<svg xmlns="http://www.w3.org/2000/svg"
     viewBox="0 0 100 100"
     width="10em"
     height="10em" >
    <polygon points="6.03 0.43 6.02 0.4 4.03 0.4 4.05 0.45 6.03 0.43" style="fill:none"/>
    <polygon points="3.38 0.45 3.36 0.39 1.78 0.39 1.78 0.47 3.38 0.45" style="fill:none"/>
    <path d="M42.73.12v0h-.35l.12,0Z" transform="translate(0 0)" style="fill:none"/>
    <path d="M44.29,0h-.75V0Q43.93,0,44.29,0Z" transform="translate(0 0)" style="fill:none"/>
    <path d="M7.51.41H6.12v0Z" transform="translate(0 0)" style="fill:none"/>
    <path d="M44.39.05h0Z" transform="translate(0 0)" style="fill:none"/>
    <polygon points="1.36 0.39 0.3 0.38 0.3 0.48 1.28 0.47 1.36 0.39" style="fill:none"/>
    <path d="M7.67.45A1.44,1.44,0,0,1,8.5.68,4.76,4.76,0,0,0,9.77.42H8Z" transform="translate(0 0)" style="fill:none"/>
    <path d="M42,.12l0,0h-.15v0Z" transform="translate(0 0)" style="fill:none"/>
    <path d="M40.07.13v0H40v0Z" transform="translate(0 0)" style="fill:none"/>
    <path d="M39.66.13l0,0-3.35,0h3.33Z" transform="translate(0 0)" style="fill:none"/>
    <path d="M10.75.38s0-.09,0-.13a2.62,2.62,0,0,0-.64.07l0,.07Z" transform="translate(0 0)" style="fill:none"/>
    <path d="M41.65.13s0,0,.05,0h-.4l0,.05Z" transform="translate(0 0)" style="fill:none"/>
    <path d="M9.77.42l.1,0L8,.41H9.77Z" transform="translate(0 0)" style="fill:none"/>
    <polygon points="13.25 0.43 13.39 0.89 13.53 0.89 14.01 0.43 13.25 0.43" style="fill:none"/>
    <path d="M11.4.37h-.24l-.11,0A1.75,1.75,0,0,0,11.4.37Z" transform="translate(0 0)" style="fill:none"/>
    <path d="M47.88.1h1V0H48S47.68.07,47.88.1Z" transform="translate(0 0)" style="fill:none"/>
    <polygon points="14.73 0.44 14.87 0.9 15 0.9 15.48 0.44 14.73 0.44" style="fill:none"/>
    <path d="M10.16.42l.13.44h.41c0-.19,0-.34,0-.45Z" transform="translate(0 0)" style="fill:none"/>
    <path d="M51.05.14s0,0,0,0h-.33v0Z" transform="translate(0 0)" style="fill:none"/>
    <polygon points="0.3 0.48 0.29 0.78 0.67 0.78 0.73 0.55 0.79 0.78 1.02 0.78 1.28 0.47 0.3 0.48" style="fill:none"/>
    <polygon points="18.38 0.45 18.61 0.93 19.04 0.94 19.14 0.45 18.38 0.45" style="fill:none"/>
    <path d="M49.41.16a.73.73,0,0,0,0,.12s0,0,0,0v0h0l-.06.25H51a2.42,2.42,0,0,1,.06-.44,4.11,4.11,0,0,1-.75,0h0V.1h-.21L50,.19A1.38,1.38,0,0,1,49.41.16Z"
          transform="translate(0 0)" style="fill:none"/>
    <path d="M2.73,1H2.32L2.49.8H2.27l0,.21H2.09L2.15.79H1.77V1H3.58L3.51.8H2.67Z" transform="translate(0 0)"
          style="fill:none"/>
    <polygon points="19.66 0.46 19.83 0.94 20.52 0.95 20.62 0.46 19.66 0.46" style="fill:none"/>
    <polygon
            points="1.78 0.47 1.77 0.79 2.15 0.79 2.21 0.55 2.27 0.8 2.5 0.8 2.62 0.64 2.67 0.8 3.51 0.81 3.38 0.45 1.78 0.47"
            style="fill:none"/>
    <polygon points="47.75 0.11 47.76 0.02 46.7 0.03 46.7 0.11 47.75 0.11" style="fill:none"/>
    <path d="M45.22.08v0h1V0H44.94Z" transform="translate(0 0)" style="fill:none"/>
    <path d="M6.12.43V.62L6,.43l-2,0,.11.36,3.53,0L7.51.41Z" transform="translate(0 0)" style="fill:none"/>
    <path d="M44.69.05h0Z" transform="translate(0 0)" style="fill:none"/>
    <polygon points="19.17 0.3 19.19 0.19 18.25 0.19 18.31 0.31 19.17 0.3" style="fill:none"/>
    <polygon points="15.59 0.34 15.73 0.2 14.66 0.2 14.7 0.34 15.59 0.34" style="fill:none"/>
    <polygon points="33.39 0 33.3 0.15 33.35 0.15 33.39 0" style="fill:none"/>
    <polygon points="33.35 0.15 33.3 0.15 33.29 0.16 33.35 0.16 33.35 0.15" style="fill:none"/>
    <polygon points="35.85 0.14 35.35 0.14 35.85 0.14 35.85 0.14" style="fill:none"/>
    <polygon points="33.24 0.51 33.35 0.16 33.29 0.16 33.06 0.51 33.24 0.51" style="fill:none"/>
    <path d="M19.34.3l2.1,0,0-.05,0,.05h.31L21.69.18H19.36A.09.09,0,0,0,19.34.3Z" transform="translate(0 0)"
          style="fill:none"/>
    <path d="M7.42.22H6.13c0,.06,0,.13,0,.18H7.51Z" transform="translate(0 0)" style="fill:none"/>
    <path d="M27.82.49h1.34c0-.09-.23-.18-.3-.28H27.68C27.81.31,27.91.41,27.82.49Z" transform="translate(0 0)"
          style="fill:none"/>
    <polygon points="0.28 1 0.61 1 0.67 0.78 0.29 0.78 0.28 1" style="fill:none"/>
    <path d="M8,.41l1.91,0,.26-.07,0-.11h-2L8.4.35Z" transform="translate(0 0)" style="fill:none"/>
    <path d="M11.37.34l-.21,0h.24c.34,0,.48-.13.31-.15h-.93s0,0,0,0A2.73,2.73,0,0,1,11.37.34Z"
          transform="translate(0 0)" style="fill:none"/>
    <path d="M7.33,0H6.14c0,.09,0,.15,0,.22H7.42Z" transform="translate(0 0)" style="fill:none"/>
    <polygon points="14.1 0.35 14.25 0.2 13.18 0.2 13.22 0.36 14.1 0.35" style="fill:none"/>
    <path d="M22,.27l3.74,0-.29,0,.07,0H21.91l-.1.09Z" transform="translate(0 0)" style="fill:none"/>
    <polygon points="15.48 0.44 15.59 0.34 14.7 0.34 14.73 0.44 15.48 0.44" style="fill:none"/>
    <polygon points="0.84 1 1.02 0.78 0.79 0.78 0.84 1" style="fill:none"/>
    <path d="M32.81.17v0H31.63v0Z" transform="translate(0 0)" style="fill:none"/>
    <polygon points="14.01 0.43 14.1 0.35 13.22 0.36 13.25 0.43 14.01 0.43" style="fill:none"/>
    <path d="M10.15.39v0h.58v0Z" transform="translate(0 0)" style="fill:none"/>
    <polygon points="26.98 0.23 26.93 0.17 26.44 0.17 26.45 0.23 26.98 0.23" style="fill:none"/>
    <polygon points="35.35 0.14 35.32 0.14 35.32 0.14 35.35 0.14" style="fill:none"/>
    <path d="M35.36.3a1.39,1.39,0,0,0-.57.12l.41,0,.19,0,0,.1h.3l0-.08c1,.06,1.8,0,0-.06v0l.87,0a6.64,6.64,0,0,0-.84,0l.05-.15h-.53Z"
          transform="translate(0 0)" style="fill:none"/>
    <path d="M28.86.21l0,0H27.61l.07.06Z" transform="translate(0 0)" style="fill:none"/>
    <path d="M21.94.46,21.86.37l.21.09,3.63,0,.18-.23h-.11L22,.27h0l0,.08h-.21L21.78.27h-.31l.17.18Z"
          transform="translate(0 0)" style="fill:none"/>
    <path d="M31.21.18l0,0H30.14v0Z" transform="translate(0 0)" style="fill:none"/>
    <polygon points="27.22 0.49 26.98 0.23 26.45 0.23 26.5 0.48 27.22 0.49" style="fill:none"/>
    <path d="M19.64.42l0,0h1.42l0-.06,0,.06h.39L21.44.28l-2.1,0C19.36.36,19.45.41,19.64.42Z" transform="translate(0 0)"
          style="fill:none"/>
    <polygon points="29.96 0.2 29.93 0.16 29.67 0.16 29.69 0.2 29.96 0.2" style="fill:none"/>
    <polygon points="19.14 0.45 19.17 0.3 18.31 0.31 18.38 0.45 19.14 0.45" style="fill:none"/>
    <path d="M47.86.11H46.69l0,.45h1l.05-.42c.42.08.18.09.59.09l0,.34h.57V.11Zm.45,0s0,0,0,0V.19S48.33.16,48.31.15Z"
          transform="translate(0 0)" style="fill:none"/>
    <path d="M75.21,0l-.06,0V0Z" transform="translate(0 0)" style="fill:none"/>
    <path d="M45.21.12l0,.38h-.29l0-.38h-.36a1.12,1.12,0,0,1,.06.43h.24v0h1.33l0-.45Zm-.09.41h-.24v0l.28,0Z"
          transform="translate(0 0)" style="fill:none"/>
    <path d="M76,0h0l0,0Z" transform="translate(0 0)" style="fill:none"/>
    <path d="M49.28.12l.13,0s0,0,0,0Z" transform="translate(0 0)" style="fill:none"/>
    <path d="M51.05.14Z" transform="translate(0 0)" style="fill:none"/>
    <polygon points="42.29 1 42.72 1 42.86 0.55 42.62 0.55 42.29 1" style="fill:none"/>
    <path d="M84.39.71l0,0a.52.52,0,0,0,0-.11l0,.16h.52v0l.11-.24v.2l0,.06h.86L85.82.62l0-.14.05.23h.51L86.55.4l.21-.22-.17.35a.25.25,0,0,0,0,.09l0,.1H87a1.07,1.07,0,0,1,.34-.3l0,.3h.2l0-.36c.2-.11.33-.18.28-.29h-.35a1.14,1.14,0,0,1-.33.18l0-.18L85.25,0h-1l0,.15A.57.57,0,0,0,84,.06l0,0h0l0,0h-.08V0H83l.21.69ZM85.61.07l0,.26L85.58.2Zm0,.16.1.2v.1a1.2,1.2,0,0,0-.16-.15Z"
          transform="translate(0 0)" style="fill:none"/>
    <path d="M45,.72h0Z" transform="translate(0 0)" style="fill:none"/>
    <path d="M51.58.15l.05,0h-.14v0Z" transform="translate(0 0)" style="fill:none"/>
    <path d="M45.15.62A.14.14,0,0,0,45,.71h.1l0,.27h1l.05-.44H45.16Z" transform="translate(0 0)" style="fill:none"/>
    <polygon points="42.94 0.12 42.62 0.55 42.86 0.55 42.99 0.12 42.94 0.12" style="fill:none"/>
    <polygon points="74.88 0.04 74.9 0 74.87 0.04 74.88 0.04" style="fill:none"/>
    <path d="M45,.67h-.05a.2.2,0,0,0-.09,0v0h0V.55h-.24c0,.17,0,.34,0,.43V1H45a1,1,0,0,1,0-.27C44.91.73,44.83.73,45,.67Z"
          transform="translate(0 0)" style="fill:none"/>
    <polygon
            points="76.91 0.68 78.06 0.68 78.27 0.03 78.59 0.69 81.29 0.7 81.29 0.68 81.3 0.7 81.78 0.7 81.89 0.02 76.79 0.03 76.91 0.28 76.91 0.68"
            style="fill:none"/>
    <path d="M87.24,1h-.41V1A.79.79,0,0,1,87,.72h-.5L86.36,1h-.07l.12-.26H85.9l0,.07,0-.07H85L85,.85V.71h-.52l0,.07,0-.07H83.17l0,.17H81.75l0-.18H81.3l.1.19h-.11V.7l-2.7,0,.16.32h.7l.09-.29V1h.87V1L81,1h1.07c1.74,0,3.77,0,5.4,0h0l0-.28h-.2ZM81.29,1Zm.13,0h-.13v0h.13l0,0Zm.33,0c.44,0,.86,0,1.33,0L81.74,1Zm1.47,0H82.05l1-.07h0l.15,0ZM84.31.89l0-.13.07.13Zm1.56,0,0,.07h-.07ZM85.79,1l0,0h.1l0,0Zm.26,0h0V1l0,0h0Zm0-.06h0Z"
          transform="translate(0 0)" style="fill:none"/>
    <path d="M75.15.9,74.94.67h0l.23.24V1h1.62a.78.78,0,0,0,0-.32H75.15Z" transform="translate(0 0)" style="fill:none"/>
    <path d="M88.84,0h0Z" transform="translate(0 0)" style="fill:none"/>
    <path d="M93.83.77l-.11,0h-1a.22.22,0,0,0,0,.08l-.14,0,0,0h0v0l-.09,0h-.89l.06.22h-.52l.11-.23h-.47l.1.23h-.33L90.6.73h0L90.46,1h-.14l0-.23H90L89.84,1a.49.49,0,0,0-.17,0h-.12l.13-.27h-.47l.12.27h.31c1.88,0,3.83,0,5.67,0V1h0V1h.92V1l.08-.25H93.83ZM89.45,1h-.12l.14-.2.08.2Zm1.39,0L91,.8,91,1Zm4.47,0V1h0ZM93,.9l.06-.13.08.17Zm.36.1h0Zm.48-.19h-.16v0h.15Z"
          transform="translate(0 0)" style="fill:none"/>
    <path d="M92.43.2l.13-.2h0L92.4.2Z" transform="translate(0 0)" style="fill:none"/>
    <polygon points="74.28 0.95 74.31 1 74.5 0.67 74.46 0.67 74.28 0.95" style="fill:none"/>
    <path d="M87.45,0l0,0V0h0V.05h.32L87.67,0Z" transform="translate(0 0)" style="fill:none"/>
    <polygon points="87.11 0 85.25 0.01 87.1 0.06 87.11 0" style="fill:none"/>
    <path d="M74.31.67h-.88l-.17.22H72.9l0,0A.22.22,0,0,0,73,.77h0A1,1,0,0,0,73.1.66H70.72v0h-.25l0,0h-.37v0H70v0h-.11v0H69.6v0h-.36v0h-.09l0,0h-.52v0H68.3l0,0H67.11l0,0H67l0,0H65.63l0,0L65.56,1h.58a.83.83,0,0,0,.47,0h.68c0-.05.19-.06.57,0l0,0h-.19c1.53,0,1,.06,1.79.06.43-.05,1-.06,1.24-.07h.68s0-.07-.05-.11h.13l.07.11h.12l0,0,.22-.21h0L71.68,1h.69a2.3,2.3,0,0,0,.17.2c.66,0,.78-.12.67-.21h.88V1a.28.28,0,0,0,.11,0l0,.09,0-.05L74.22.82A.16.16,0,0,0,74.31.67ZM65.82.93h0ZM65.57,1a.9.9,0,0,1,.23,0V1Zm.24,0V1h.11V1Zm.33-.07h0Zm.09,0Zm.69.07h-.07L66.72.88a.05.05,0,0,0,0,0A.25.25,0,0,0,67,.76h.18l.12.24Zm1.62,0L68.37.76h.22A.57.57,0,0,1,68.54,1Zm.78,0h0L69.21.76h.06l0,.17Zm.54,0L69.68.76h.25L70,.88h0l.06.09ZM70,.76h.1V.87h0Zm.08.14h0v0Zm.45.09h-.4L70.24.9h.44Zm.15-.12h-.45l.12-.11h.36l0,.07Zm.48-.2h0Zm.14.21a.54.54,0,0,0-.07-.13h.13l.08.13Zm.17-.13h.1a.53.53,0,0,0,0,.13h0Zm.08.13h0v0Zm1.59.1-.06,0h.08Zm.89-.09h0l.09,0,0,0Z"
          transform="translate(0 0)" style="fill:none"/>
    <polygon points="83.98 0.01 83.98 0 83.98 0.01 83.98 0.01" style="fill:none"/>
    <path d="M56.3.13H56c0,.12,0,.3,0,.47h.21A3.48,3.48,0,0,1,56.3.13Z" transform="translate(0 0)" style="fill:none"/>
    <path d="M56.42.8h0Z" transform="translate(0 0)" style="fill:none"/>
    <path d="M62.33.71a11.59,11.59,0,0,1-2.59,0,.33.33,0,0,0,0-.12h.34L60,.64l0,.09a1.9,1.9,0,0,0,.68-.11H58.94l-.42,0h.63l0,.06-.83,0a.08.08,0,0,0,0-.05h-.68l0,0a4.77,4.77,0,0,0-1,.08v0c-.12,0-.19,0-.23.06h-.13a.2.2,0,0,0-.09.05V.76h.11a0,0,0,0,1,0,0h-.13a.71.71,0,0,0,0-.14h.45V.7h0s0,0,0-.09H56c0,.14,0,.28,0,.35-1.2,0-2.12,0-3.19,0,0,0,0,0-.28,0,0,0,.08,0-.35,0a1.46,1.46,0,0,0,.42,0C53.86,1,55,1,56,1h.35a1.52,1.52,0,0,1,0-.19c-.1,0-.15,0,0-.05h.08s0,0,0,0h.35l.81,0h0c.36.13.16.37.27.58l.39.08A3.87,3.87,0,0,0,58.19,1h.15L58.27.86h1l.08.15h.5L59.75.84,62.33.77l0,.08c-.82,0-1.53,0-1.37.14h1.72l-.56,0h3l-.77,0h.89c0-.16,0-.27.06-.37H62.35ZM57.66.77h-.94l.21,0h-.26v0l1,.05Zm4.63.2-.7,0h0c-.59-.07-.09-.09.73-.1ZM63.58.88h0l0-.12h.2l0,.12h0l0,.09h-.22Z"
          transform="translate(0 0)" style="fill:none"/>
    <path d="M87.41,0Z" transform="translate(0 0)" style="fill:none"/>
    <path d="M44.94.06h-.39s0,.05,0,.07h.36Z" transform="translate(0 0)" style="fill:none"/>
    <path d="M65.27.63a3,3,0,0,0,0-.35l.19.07v0c0,.07-.08.11.08.15l0,.11h2.65L68.21.55a.11.11,0,0,1,0-.05h0a.43.43,0,0,1,.46-.36c0,.13,0,.34-.07.52h.52L68.78.14a2.24,2.24,0,0,1,.24,0v0h0l.16.52h.36L69.14.13h.41l.31.52H70L69.83.43l.23.13h.07v.1h.37l.16-.16.06.16h.46L71.11.58l-.06.05L70.9.46h0l.16.12.14-.09.1.17h.11l-.13-.2.28,0V.66H73.1a.83.83,0,0,0,.1-.23l.19,0-.18,0s0,0,0,0l0-.08.18,0c0,.19,0,.33,0,.43h.88a1.09,1.09,0,0,0-.26-.52h.24L74,.13h.36l.25.26-.19.29h0L74.66.4l.26.27h0L74.67.38l.15-.25h.33V.67h1.66c0-.36-.42-.43-.78-.63V.56L75.21,0h-.06V.14l-.31,0v0c.27,0,.2,0,0,0l0,0h0l0,0h-.47l0,0h0l0,0H70.13v0h-.51l0,0h-.1l0,0h-.43l0,0h0v0h-.24l0,0h-.75l-.27,0v0H63.92l0,.17-.06-.1.06-.07H62.44l-.09.55ZM74.84.08v0h0Zm0,.05-.15.23L74.44.13Zm-1.36,0V.19h0Zm-.22.13h0l0,0Zm-1.62,0v0h-.07ZM70.13.12V.36l-.32,0L69.65.13ZM68.06.37,68,.3h.06Zm0-.24a1.07,1.07,0,0,0,0,.17H68L67.87.13Zm-1,.42L67,.51h.09ZM67,.42,67,.5H67Z"
          transform="translate(0 0)" style="fill:none"/>
    <path d="M24.45.62c.22.22.19.32.91.29L25.7.48l-3.63,0,0,0,.11.31L21.94.46h-.3l.48.5h.77l0-.15.08-.16.41,0,.26.27h.77l0-.16ZM23.21.6l0,0,0,0Zm.55.26L23.64.72h.21Zm.15-.23-.36,0L23.49.54l.47,0v0Z"
          transform="translate(0 0)" style="fill:none"/>
    <path d="M61.68.27l-.46,0,.32.24.11-.11.17.12a.26.26,0,0,0,.23-.41h-.37C61.77.14,61.79.2,61.68.27Z"
          transform="translate(0 0)" style="fill:none"/>
    <path d="M29.91.61c-.28,0-.54,0-.79,0a.1.1,0,0,0,0-.12H27.82l0,0c-.07,0-.09.08-.08.12h-.35L27.22.48h-.73l0,.18h0l0,.29c-.36,0-.71,0-1.06,0H27.7L27.38.66h.34c.05.09.27.17.33.25V1s0,0,0,0a0,0,0,0,0,0,0h0a1.6,1.6,0,0,0-.11.48l.86-.08c.16-.14,0-.28.15-.41h.23L29.1.91a1.44,1.44,0,0,1,.33-.08C29.26.76,29,.7,29,.67H30l.18.33h.58V.92c.11-.17.21-.3.29-.42v0l0,0H29.85Zm0,0h-.86c.28,0,.56,0,.84,0Z"
          transform="translate(0 0)" style="fill:none"/>
    <path d="M23.63,1H22.9V1h-.77l0,0h-.38l0,0h-.44l0,0h3.05V1h-.77Z" transform="translate(0 0)" style="fill:none"/>
    <path d="M32.81.17H31.63V.43L31.58.5h1.16A.89.89,0,0,0,32.81.17Z" transform="translate(0 0)" style="fill:none"/>
    <path d="M31.1.35l.11-.17H30.14V.46L30,.19h-.27l.16.3H31l.15-.14Z" transform="translate(0 0)" style="fill:none"/>
    <path d="M33.24.54v0h-.19L33,.59a1.73,1.73,0,0,1-.32,0s0-.07.05-.1H31.58l-.33.5h.36a1.2,1.2,0,0,0,1-.31h.3l-.2.3h.37l.09-.3c.48,0,1,0,1.88,0l-1.86,0v0l1.55,0-.83,0,.55-.05h-.27A8.76,8.76,0,0,0,33.24.54ZM33,.64h-.3s0,0,0,0H33Z"
          transform="translate(0 0)" style="fill:none"/>
    <polygon points="20.62 0.46 20.79 0.95 20.83 0.95 21.08 0.46 20.62 0.46" style="fill:none"/>
    <path d="M42.09.7l.15,0h-.15c0-.05,0-.08,0-.13h-.22V1h.26C42.1.89,42.1.79,42.09.7Z" transform="translate(0 0)"
          style="fill:none"/>
    <path d="M55.88.14H56a.08.08,0,0,1,0,0h-.3C55.61.14,55.42.12,55.88.14Z" transform="translate(0 0)"
          style="fill:none"/>
    <path d="M58.94.61H61l-.35,0A.61.61,0,0,0,61,.36l-.35,0v0H61l-.1-.2h-2l.26.52Zm.92-.12.47.07v0h-.53Z"
          transform="translate(0 0)" style="fill:none"/>
    <path d="M58.32.61a.13.13,0,0,0,0-.1c-.09-.12.05-.28.13-.43h-1l.26.52Z" transform="translate(0 0)"
          style="fill:none"/>
    <polygon points="21.53 0.46 21.14 0.46 21.31 0.96 21.75 0.96 21.53 0.46" style="fill:none"/>
    <path d="M56.68.16V.58h-.41l.19,0h.29c0-.12,0-.29.06-.42a2.86,2.86,0,0,0,.58,0l-.32,0a.34.34,0,0,0,.14,0h-.9s0,0,0,0Z"
          transform="translate(0 0)" style="fill:none"/>
    <polygon points="43.01 0.07 42.98 0.07 42.94 0.12 42.99 0.12 43.01 0.07" style="fill:none"/>
    <polygon points="43.03 0 42.98 0.07 43.01 0.07 43.03 0" style="fill:none"/>
    <path d="M34.22.51h0Z" transform="translate(0 0)" style="fill:none"/>
    <path d="M42.73.12H42.5a.45.45,0,0,0,.23,0Z" transform="translate(0 0)" style="fill:none"/>
    <path d="M41.45.48c.16-.08.12-.23.2-.35h-.38l-.18.23-.31,0,.43.06-.06.09h.23l0-.06Z" transform="translate(0 0)"
          style="fill:none"/>
    <path d="M42,.12h-.17V.54h.22C42.05.34,42,.2,42,.12Z" transform="translate(0 0)" style="fill:none"/>
    <polygon points="69.07 0.05 69.03 0 69.05 0.05 69.07 0.05" style="fill:none"/>
    <path d="M68.09.05h.75l.07,0-.2,0,0,0V0Q68.39.05,68.09.05Z" transform="translate(0 0)" style="fill:none"/>
    <path d="M41.1.61h0v0h0l-.12.17-.52,0h.29a2.59,2.59,0,0,0-.63,0v.1h0v0a1.83,1.83,0,0,0,.65-.09h-.09l.29,0,0,.06h0l-.08.1c-.18,0-.47,0-.72,0v0H40l0,0h0l.06,0h0V1l.09,0h-.06s0,0,0,0L40,1l-.08,0H40c.06,0,.16,0,0,.05.21,0,1,0,.7-.05s-.15,0,.06,0l-.2,0h.6l0-.1c.21,0,.3,0,0-.05l0-.18h0a.63.63,0,0,1,.33,0,.85.85,0,0,0-.33,0l0-.06h-.23ZM40.63,1h0a.27.27,0,0,1,.09,0Zm.72-.38h0Z"
          transform="translate(0 0)" style="fill:none"/>
    <path d="M39.66.13h-3.3c.36.08.21.09.46.09l.07.29h.3l.06-.15.1.15h2.24c0-.18,0-.3,0-.38Z" transform="translate(0 0)"
          style="fill:none"/>
    <path d="M40.07.13H40a4,4,0,0,0-.14.4h.22Z" transform="translate(0 0)" style="fill:none"/>
    <path d="M40.82.64h0Z" transform="translate(0 0)" style="fill:none"/>
    <path d="M40.08.79c0-.06,0-.15,0-.26h-.22c-.05.18-.06.28,0,.33h0A.83.83,0,0,1,40.08.79Z" transform="translate(0 0)"
          style="fill:none"/>
    <path d="M39.85.87a.36.36,0,0,0,.23,0h0Z" transform="translate(0 0)" style="fill:none"/>
    <path d="M18.6,2.24h0Z" transform="translate(0 0)" style="fill:none"/>
    <polygon points="35.52 1 35.71 0.52 35.41 0.52 35.52 1" style="fill:none"/>
    <path d="M60.07,1.23c-.6.22-.41-.18-.67-.22s-.34.11-.09.21a.45.45,0,0,0,.12.67s0,.05,0,.08l.17,0,.58-.3.09.13L59.9,2l0,0c.66.13.26-.29.7-.55l-.82-.11Zm.08.48-.56.17C59.62,1.55,59.76,1.67,60.15,1.71Z"
          transform="translate(0 0)" style="fill:none"/>
    <path d="M62.63,4.57l.11-.29.23,0c-.15-.27-.15-.28-.64-.23l.35.05,0,0-.6.1C62.28,4.45,62.61,4.34,62.63,4.57Z"
          transform="translate(0 0)" style="fill:none"/>
    <path d="M60.51,5.15l-.11,0c-.12.24,0,.59-.94.43l.09.1c.37,0,.89.11,1.05-.18l-.21-.14Z" transform="translate(0 0)"
          style="fill:none"/>
    <path d="M59.73,3l-.16-.24-.17,0,.08.21L59.2,3Z" transform="translate(0 0)" style="fill:none"/>
    <path d="M62.1,4.29h0Z" transform="translate(0 0)" style="fill:none"/>
    <path d="M60.51,4.2l-.13-.26C60.25,4,60.05,4.25,60.51,4.2Z" transform="translate(0 0)" style="fill:none"/>
    <path d="M60.36,3.53a1.57,1.57,0,0,0-.85.14C59.88,3.58,60.39,4.15,60.36,3.53Z" transform="translate(0 0)"
          style="fill:none"/>
    <path d="M61.27,6.17l.35.17A2.67,2.67,0,0,1,62,5.61h-.09l.31-.1-.53-.2.3-.06v0l-.62-.11c-.23.22.09.39-.22.58-.14.09.06.22.38.29-.54.14-.57.3-.16.44l-.14-.21Z"
          transform="translate(0 0)" style="fill:none"/>
    <polygon points="61.36 6.41 61.37 6.41 61.36 6.41 61.36 6.41" style="fill:none"/>
    <path d="M61.4,4c0,.24-.27.4,0,.62,0,0,0,.12-.07.18.24,0,1-.13.7-.35-.15-.08-.14-.14,0-.19L61.88,4,62,4l.24.1c-.13-.3-.64-.16-1-.39l.22.33Z"
          transform="translate(0 0)" style="fill:none"/>
    <path d="M62,9.78c-.34.26-.31.35.17.5C62.4,10,62.24,9.94,62,9.78Z" transform="translate(0 0)" style="fill:none"/>
    <path d="M62.45,5.64c0,.12.08.27-.35.24l.15.16C62.69,6,63,5.76,62.45,5.64Z" transform="translate(0 0)"
          style="fill:none"/>
    <path d="M62.12,7.07,62.43,7l-.13-.31h0Z" transform="translate(0 0)" style="fill:none"/>
    <path d="M61.75,6.39l-.38,0c.23,0-.09.23-.18.39l.42.23L61.8,7Z" transform="translate(0 0)" style="fill:none"/>
    <polygon points="32.73 1 32.73 1 32.37 1 32.73 1" style="fill:none"/>
    <path d="M52.16,1.07c-.15,0-.14,0,.06,0L52,1a1.71,1.71,0,0,1,.32,0,1.93,1.93,0,0,0-.43,0,.86.86,0,0,0,.23,0H52l.32,0-.54,0h.29a1.73,1.73,0,0,0-.83.07c-.11,0,0,0,.15,0h.08c-.39,0-.37,0,0,0h0a0,0,0,0,1,0,0h0a.48.48,0,0,1-.12,0s0,0,0,0h0c0,.2.12.93.12.93h0c0-.54,0-.77,0-.88C51.69,1.13,52.45,1.11,52.16,1.07Zm-.69.05v0C51.52,1.09,51.55,1.1,51.47,1.12Z"
          transform="translate(0 0)" style="fill:none"/>
    <polygon points="31.25 1 31.25 1 30.89 1 31.25 1" style="fill:none"/>
    <path d="M52.54.62l-.46,0c.87,0,1.66,0,2.45,0Z" transform="translate(0 0)" style="fill:none"/>
    <path d="M53.42.79l.21-.05a1.64,1.64,0,0,0-.37.05Z" transform="translate(0 0)" style="fill:none"/>
    <path d="M58.5,11v.38l.41-.21L58.59,11Z" transform="translate(0 0)" style="fill:none"/>
    <path d="M54.59,1.56a10.84,10.84,0,0,0-1.12,0c.16,0,1.06,0,.67.05a8.64,8.64,0,0,0,1,0A2.3,2.3,0,0,0,54.59,1.56Z"
          transform="translate(0 0)" style="fill:none"/>
    <path d="M17.1.19c.2-.06-.14,0,.19,0C17.26.08,16.31.18,17.1.19Z" transform="translate(0 0)" style="fill:none"/>
    <path d="M59.84,5.34A2,2,0,0,0,59.11,5l-.06.48.29-.09.13.17Z" transform="translate(0 0)" style="fill:none"/>
    <path d="M52.51,1.72c-.13,0-.26-.06-.39,0l.17.06-.16.06a3,3,0,0,1,.61-.07.87.87,0,0,0-.28-.05Z"
          transform="translate(0 0)" style="fill:none"/>
    <path d="M52.57,1.63a7.46,7.46,0,0,0,.83,0A3.71,3.71,0,0,0,52.57,1.63Z" transform="translate(0 0)"
          style="fill:none"/>
    <path d="M52.45.69c.13,0,.25,0,.37,0l-.59,0a3.17,3.17,0,0,1,.52,0,.65.65,0,0,1,.34,0A1.77,1.77,0,0,0,52.45.69Z"
          transform="translate(0 0)" style="fill:none"/>
    <path d="M52.13,1.57c-.34,0-.3.05.18.07C52.57,1.59,52.28,1.59,52.13,1.57Z" transform="translate(0 0)"
          style="fill:none"/>
    <path d="M46.59,1h1l0-.44h-1Z" transform="translate(0 0)" style="fill:none"/>
    <path d="M4.21,1H7.76L7.69.84,4.16.81Z" transform="translate(0 0)" style="fill:none"/>
    <polygon points="48.23 1 48.86 1 48.86 0.57 48.29 0.57 48.23 1" style="fill:none"/>
    <polygon points="37.01 1 37.19 0.53 36.89 0.52 37.01 1" style="fill:none"/>
    <path d="M86,1.16c3.39.15,6.14,0,9.3.05V1.13C92,1.16,89.21,1.16,86,1.16Z" transform="translate(0 0)"
          style="fill:none"/>
    <path d="M96.78,1h1.74c-.06,0-.13-.12-.21-.24H96.93Z" transform="translate(0 0)" style="fill:none"/>
    <path d="M37.48.71l.13.29,0-.05,0,.05h.64c-.23.07-.48.32,0,.37.16-.18-.09-.33.19-.28a.1.1,0,0,0,0-.09h1c0-.19,0-.34,0-.47H37.35ZM37.87.6l0,.15h0l0,0,0,0Z"
          transform="translate(0 0)" style="fill:none"/>
    <path d="M98.31.76a4,4,0,0,1-.23-.41l-.88,0-.27.43Z" transform="translate(0 0)" style="fill:none"/>
    <polygon points="71.55 1 71.55 1 71.46 1 71.55 1" style="fill:none"/>
    <path d="M76.91,1h1.34c.12,0,0-.06-.22-.22l0-.1H76.91Z" transform="translate(0 0)" style="fill:none"/>
    <path d="M62.34,10.53l0,.23h-.07l-.23-.26-.09,0,.17.38-.17.36c.18-.17.27-.37.62-.43l-.21-.32Z"
          transform="translate(0 0)" style="fill:none"/>
    <path d="M69.51,1.07h0Z" transform="translate(0 0)" style="fill:none"/>
    <path d="M56.57.81h0Z" transform="translate(0 0)" style="fill:none"/>
    <path d="M49.22.84l0,.06h0a.35.35,0,0,0,0,.1H51a2.5,2.5,0,0,1,0-.42H49.28A1.68,1.68,0,0,0,49.22.84Z"
          transform="translate(0 0)" style="fill:none"/>
    <path d="M95.31,2V2l-1,0C94.67,2,95,2,95.31,2Z" transform="translate(0 0)" style="fill:none"/>
    <path d="M64.47,9.73a1.85,1.85,0,0,0-1.13-.23l.81.26L64,9.83c.43,0,.75,0,1-.24C64.8,9.48,64.69,9.58,64.47,9.73Z"
          transform="translate(0 0)" style="fill:none"/>
    <path d="M95.31,3.32V3.26c-.81,0-2.29,0-3,.05C93.3,3.45,94.49,3.28,95.31,3.32Z" transform="translate(0 0)"
          style="fill:none"/>
    <path d="M89.52,3.68s-1.33,0-1.78,0C88.19,3.8,91.36,3.67,89.52,3.68Z" transform="translate(0 0)" style="fill:none"/>
    <path d="M67,4.08V4l.15,0L67,3.81c-.26,0-.3,0-.33.19h-.34l.31.13-.27,0v0l.31,0c-.11.26-.16.38.19.37l-.2-.09.52-.09L67,4.2l.22-.07Z"
          transform="translate(0 0)" style="fill:none"/>
    <path d="M63.39,4.44l-.25.3.16,0,.21-.31Z" transform="translate(0 0)" style="fill:none"/>
    <path d="M62.69,9.83l-.25.37c.15-.18.86,0,.83-.33l-.36.1Z" transform="translate(0 0)" style="fill:none"/>
    <path d="M66.56,3.45l-.38-.07,0,.05.29.13,0,0-.34-.08c.16.15.34.16.82,0C66.71,3.56,66.86,3.29,66.56,3.45Z"
          transform="translate(0 0)" style="fill:none"/>
    <path d="M94.59,13.81a1.82,1.82,0,0,1,.43.11l.29.05C95.17,13.78,94.88,13.79,94.59,13.81Z" transform="translate(0 0)"
          style="fill:none"/>
    <path d="M93,3.59h.45a15.79,15.79,0,0,0-1.68,0l.85.06-.49,0h.64l-1,0c1.17.08,2.36.05,3.52.07V3.68A19.88,19.88,0,0,1,93,3.59Z"
          transform="translate(0 0)" style="fill:none"/>
    <path d="M91.77,12c.09.27-.67.24,0,.39.11,0,.06.08.08.12.74,0,1-.14.79-.26S92.6,12,91.77,12Z"
          transform="translate(0 0)" style="fill:none"/>
    <path d="M94,13.83a2.4,2.4,0,0,0,.59,0A1.47,1.47,0,0,0,94,13.83Z" transform="translate(0 0)" style="fill:none"/>
    <path d="M94.06,5h.67a7.29,7.29,0,0,0-1.66-.07H94c-1,0-.5.11.2.09Z" transform="translate(0 0)" style="fill:none"/>
    <path d="M94.73,14l.29-.08h0l-.14,0Z" transform="translate(0 0)" style="fill:none"/>
    <path d="M88.15,1h.68l0-.14a.86.86,0,0,0,.2-.13h-.62C88.13.94,87.84,1,88.15,1Z" transform="translate(0 0)"
          style="fill:none"/>
    <path d="M8.48,1.93s0,0,0,0c.29,0,0,0,0-.06C8,1.85,7.92,1.93,8.48,1.93Z" transform="translate(0 0)"
          style="fill:none"/>
    <path d="M10.41,3.36l-.77.08-.09,0,.64-.14a3.85,3.85,0,0,0-1.62.15A3.78,3.78,0,0,0,10.41,3.36Z"
          transform="translate(0 0)" style="fill:none"/>
    <path d="M7.21,2.16h0Z" transform="translate(0 0)" style="fill:none"/>
    <path d="M19.41,4.31c-.66.25,1.09.39,1.56.36-.52-.37.68-.08-.12-.8h-.12l.5-.33c-.71.23-1.88.09-2.18.39a2,2,0,0,1,.72-.08l-.46.28C19.73,4.18,19.74,4.24,19.41,4.31Z"
          transform="translate(0 0)" style="fill:none"/>
    <path d="M18.09,4.41c.06-.22.66-.12,1.18-.28L17.92,4,18,4l.78,0c-1.09,0-1.1,0-1.42.23l.51,0Z"
          transform="translate(0 0)" style="fill:none"/>
    <polygon points="20.81 1 20.83 0.95 20.79 0.95 20.81 1" style="fill:none"/>
    <path d="M18.47,2.23h0a1.7,1.7,0,0,1,.45,0,2.17,2.17,0,0,0-.58,0h.12Z" transform="translate(0 0)"
          style="fill:none"/>
    <path d="M19.31,4.13h0Z" transform="translate(0 0)" style="fill:none"/>
    <path d="M9.94,4c-.06-.2-.14-.22-.73-.19l-.29.25.34,0,0,0-.58,0,.48.07-.38.16L10,4.45l-.45.09c.52,0,.84,0,.42-.37l.7,0v0l-.61,0L10.73,4Z"
          transform="translate(0 0)" style="fill:none"/>
    <path d="M8.79,5h.35l-.42,0S8.79,5,8.79,5Z" transform="translate(0 0)" style="fill:none"/>
    <path d="M14,9.57a2.23,2.23,0,0,0-1.33-.14A6.49,6.49,0,0,0,15,9.67c-.83-.11,1.14-.22,1.51-.33A8.56,8.56,0,0,0,14,9.57Z"
          transform="translate(0 0)" style="fill:none"/>
    <path d="M7.84,5a4,4,0,0,0,.95,0l-.6,0Z" transform="translate(0 0)" style="fill:none"/>
    <path d="M7,2.16h.13a1.7,1.7,0,0,1,.45,0A2.21,2.21,0,0,0,7,2.16Z" transform="translate(0 0)" style="fill:none"/>
    <path d="M7.67,5h0Z" transform="translate(0 0)" style="fill:none"/>
    <polygon points="14.9 1 15 0.9 14.87 0.9 14.9 1" style="fill:none"/>
    <polygon points="1.36 0.39 1.49 0.23 0.3 0.24 0.3 0.38 1.36 0.39" style="fill:none"/>
    <path d="M8.15,1h0Z" transform="translate(0 0)" style="fill:none"/>
    <path d="M10.33,1h.36c0-.05,0-.09,0-.13h-.41Z" transform="translate(0 0)" style="fill:none"/>
    <polygon points="3.36 0.39 3.3 0.23 1.78 0.23 1.78 0.39 3.36 0.39" style="fill:none"/>
    <polygon points="19.85 1 20.29 1 20.29 1 20.51 1 20.52 0.95 19.83 0.94 19.85 1" style="fill:none"/>
    <polygon points="6.02 0.4 5.94 0.22 3.98 0.23 4.03 0.4 6.02 0.4" style="fill:none"/>
    <path d="M6.66,1h0Z" transform="translate(0 0)" style="fill:none"/>
    <path d="M19.87,2s0,0,0,0c.29,0,0,0,0-.07C19.42,1.93,19.31,2,19.87,2Z" transform="translate(0 0)"
          style="fill:none"/>
    <path d="M88.65.55a.83.83,0,0,1-.21.17h.62a.58.58,0,0,0,.1-.12l0,.12h.47l.26-.51.39.05L90,.73h.35l.1-.44h.05l.14.34L90.6.73h0l.06-.08,0,.08h.47l0-.07c.13,0,.22,0,.27-.07l0,.15h.89L92.17.67V.58l.13-.19.14.29-.14,0h.15l0,0h1.2a.75.75,0,0,1,.15,0v0h2.51l.14-.44-1.16,0c0,.06,0,.11,0,.16V.28l-1.49,0V.41l-.1-.17h0l.12.23V.66h-.15V.23l-.89,0,.06.11a1,1,0,0,0-.15.35h-.21L92.32.37,92.43.2h0l-.09.15L92.22.2l-2-.06H90s0,0,0,0L88.9.11l-.06.18Zm4,.16v0h-.18v0ZM92.21.2l.09.17-.11.19C92.2.43,92.21.31,92.21.2ZM90.76.33v0l0,0Z"
          transform="translate(0 0)" style="fill:none"/>
    <path d="M52.21.72h0Z" transform="translate(0 0)" style="fill:none"/>
    <path d="M16.1,4.3l.48.31.36,0C16.66,4.45,16.41,4.22,16.1,4.3Z" transform="translate(0 0)" style="fill:none"/>
    <polygon points="13.42 1 13.53 0.89 13.39 0.89 13.42 1" style="fill:none"/>
    <polygon points="18.65 1 19.03 1 19.04 0.94 18.61 0.93 18.65 1" style="fill:none"/>
    <path d="M98.54,1h0Z" transform="translate(0 0)" style="fill:none"/>
    <path d="M29.8,12.17c-.5,0-.62.51-.05.52,0,0,0-.11,0-.13C30.11,12.43,29.72,12.38,29.8,12.17Z"
          transform="translate(0 0)" style="fill:none"/>
    <path d="M37.47,1.73l.41,0a2.63,2.63,0,0,0-.41,0Z" transform="translate(0 0)" style="fill:none"/>
    <path d="M40.85,1.06h.31A.27.27,0,0,0,40.85,1.06Z" transform="translate(0 0)" style="fill:none"/>
    <path d="M28.51,14a1.67,1.67,0,0,0,.3,0l-.22-.06Z" transform="translate(0 0)" style="fill:none"/>
    <path d="M40.74,1.49c-.35,0-.31.05.17.07C41.18,1.51,40.89,1.51,40.74,1.49Z" transform="translate(0 0)"
          style="fill:none"/>
    <path d="M28.48,14.16l-.06-.11-.07,0h0Z" transform="translate(0 0)" style="fill:none"/>
    <path d="M28.22,14.14l.13-.06.16-.11C28.37,14,28.25,14,28.22,14.14Z" transform="translate(0 0)" style="fill:none"/>
    <path d="M43.2,1.48a11.05,11.05,0,0,0-1.13,0c.17,0,1.06,0,.67.05a8.75,8.75,0,0,0,1,0A2.3,2.3,0,0,0,43.2,1.48Z"
          transform="translate(0 0)" style="fill:none"/>
    <path d="M48,1h0Z" transform="translate(0 0)" style="fill:none"/>
    <path d="M48.86,1.81l.41,0a2.54,2.54,0,0,0-.41,0Z" transform="translate(0 0)" style="fill:none"/>
    <path d="M52.55,1.05a.27.27,0,0,0-.31,0Z" transform="translate(0 0)" style="fill:none"/>
    <path d="M41.17,1.55A7.3,7.3,0,0,0,42,1.5,3.78,3.78,0,0,0,41.17,1.55Z" transform="translate(0 0)"
          style="fill:none"/>
    <path d="M27,11.2v-.38A2.68,2.68,0,0,0,26,11Z" transform="translate(0 0)" style="fill:none"/>
    <path d="M41.12,1.64c-.13,0-.26-.06-.39,0l.17.06-.17.06a3.21,3.21,0,0,1,.62-.07.87.87,0,0,0-.28,0Z"
          transform="translate(0 0)" style="fill:none"/>
    <path d="M18.62,10.6l.11-.23h-.15l-.48.32a2.94,2.94,0,0,1,1.39.43l-.38-.36.38-.39C19.17,10.27,18.94,10.66,18.62,10.6Z"
          transform="translate(0 0)" style="fill:none"/>
    <path d="M19.09,10.12c1.07-.16,1.16-.24.39-.5C19.09,9.78,18.52,9.81,19.09,10.12Z" transform="translate(0 0)"
          style="fill:none"/>
    <path d="M20.92,6.24h-.86l-.1.56c.32.16,1.08-.08,1.35-.15C21.07,6.46,20.39,6.25,20.92,6.24Z"
          transform="translate(0 0)" style="fill:none"/>
    <path d="M21.42,5.27c-.71-.2,0-.35-.49-.58l-1.34.1H16.91a24.4,24.4,0,0,0,2.68,0l.61,0L19,5.09l.71.1-.2,0a2.75,2.75,0,0,1,.84.72,3.69,3.69,0,0,1,.91-.15L20.93,6c.85-.13.95-.3-.36-.45C21.29,5.48,21.74,5.35,21.42,5.27Z"
          transform="translate(0 0)" style="fill:none"/>
    <path d="M20.93,6Z" transform="translate(0 0)" style="fill:none"/>
    <path d="M17.94,9.67a2.37,2.37,0,0,1-1.3,0c-.05.34,1.53.15,1.86.33Z" transform="translate(0 0)" style="fill:none"/>
    <path d="M18.5,5.48c-1.55.07.06.63.78.24C18.31,5.75,18.58,5.6,18.5,5.48Z" transform="translate(0 0)"
          style="fill:none"/>
    <path d="M18.53,6.83l.7.08-.3-.39h-.12Z" transform="translate(0 0)" style="fill:none"/>
    <path d="M25.08,3.51a7.12,7.12,0,0,0-1.91-.14C23.38,4.1,24.37,3.33,25.08,3.51Z" transform="translate(0 0)"
          style="fill:none"/>
    <path d="M26,4.83a8.31,8.31,0,0,0-1.65.34l.83.22.29-.17.66.09C26.07,5.12,26,5,26,4.83Z" transform="translate(0 0)"
          style="fill:none"/>
    <path d="M23.08,5l-.23,0,.27.18-.49.14a5,5,0,0,0,2.57.08C23.1,5.55,23.36,5.2,23.08,5Z" transform="translate(0 0)"
          style="fill:none"/>
    <path d="M22.84,4c.88,0,.59-.08.56-.16s-.18-.06-.27-.1Z" transform="translate(0 0)" style="fill:none"/>
    <path d="M23.29,2a4,4,0,0,0,.92,0l-.77-.12a1.45,1.45,0,0,1,.29-.11l.94.21L24.59,2h1.18l-.45,0s-.1-.06-.06-.07c.43-.11.5-.24.43-.38s.24-.2-.16-.29c.57-.1,0-.15-.2-.21-.57,0-.15.44-1.5.22l.57.11-1.85.11C23.49,1.61,22.7,1.84,23.29,2Zm1.61-.21-.11.07-1-.13C24.22,1.61,24.79,1.64,24.9,1.79Z"
          transform="translate(0 0)" style="fill:none"/>
    <path d="M25.22,1c.53,0,1,0,1.41,0H25.22Z" transform="translate(0 0)" style="fill:none"/>
    <path d="M62.45,0H62a.25.25,0,0,1,0,.07h.39Z" transform="translate(0 0)"/>
    <path d="M61.57,0h-.74l0,.07h.81A.52.52,0,0,0,61.57,0Z" transform="translate(0 0)"/>
    <path d="M60.61.28v0l.35,0a.61.61,0,0,1-.29.23l.35,0h1.34l.09-.55h-.39a.26.26,0,0,1-.23.41L61.65.36l-.11.11L61.22.23l.46,0c.11-.07.09-.13,0-.2h-.81l.1.2Z"
          transform="translate(0 0)"/>
    <path d="M60.61.62a1.9,1.9,0,0,1-.68.11l0-.09.18,0h-.34a.33.33,0,0,1,0,.12,11.59,11.59,0,0,0,2.59,0l0-.09H60.61Z"
          transform="translate(0 0)"/>
    <path d="M65.92.93h0Z" transform="translate(0 0)"/>
    <path d="M57.35,0l-.14.07h.17Z" transform="translate(0 0)"/>
    <path d="M57.39.15a2.86,2.86,0,0,1-.58,0c0,.13,0,.3-.06.42h.89L57.38.08h-.17a.34.34,0,0,1-.14.05Z"
          transform="translate(0 0)"/>
    <path d="M56.74.61c0,.05,0,.09,0,.09h0v0a4.77,4.77,0,0,1,1-.08l0,0h-.9Z" transform="translate(0 0)"/>
    <path d="M56.23.61a.71.71,0,0,1,0,.14h.13a0,0,0,0,0,0,0h.11c0-.05.11-.07.23-.06V.62Z" transform="translate(0 0)"/>
    <polygon points="57.37 0 57.81 0 57.81 0 57.37 0 57.37 0"/>
    <path d="M56.22.81a.2.2,0,0,1,.09-.05h-.09Z" transform="translate(0 0)"/>
    <path d="M59.17.71l0-.06h-.63l.42,0h-.62a.08.08,0,0,1,0,.05Z" transform="translate(0 0)"/>
    <path d="M58.82,0h-.35a.3.3,0,0,1,0,.08h.43Z" transform="translate(0 0)"/>
    <path d="M58.3.51a.13.13,0,0,1,0,.1h.8L58.86.08h-.43C58.35.23,58.21.39,58.3.51Z" transform="translate(0 0)"/>
    <path d="M56.67.74h.26l-.21,0h.94l-1-.05Z" transform="translate(0 0)"/>
    <path d="M56.22.76h0Z" transform="translate(0 0)"/>
    <path d="M37.84.75h0l0-.15-.09.14,0,0Z" transform="translate(0 0)"/>
    <path d="M38.48,0h0Z" transform="translate(0 0)"/>
    <path d="M51.71,0l0,0C51.85,0,52,0,51.71,0Z" transform="translate(0 0)"/>
    <path d="M38.14,0h0Z" transform="translate(0 0)"/>
    <polygon points="39.21 0 39.34 0 39.34 0 38.88 0 38.88 0 39.21 0"/>
    <path d="M48.31.15s0,0,0,0V.13S48.3.14,48.31.15Z" transform="translate(0 0)"/>
    <path d="M47.93,0h-.17V0H48Z" transform="translate(0 0)"/>
    <path d="M47.86.11h0c-.2,0,.09,0,.09-.08h-.21V.11Z" transform="translate(0 0)"/>
    <path d="M47.86.11h0Z" transform="translate(0 0)"/>
    <polygon points="37.9 0 37.9 0 37.39 0 37.39 0 37.73 0 37.9 0"/>
    <path d="M74,.05h.35l0,0H74Z" transform="translate(0 0)"/>
    <path d="M74.28,0H74V0h.33Z" transform="translate(0 0)"/>
    <path d="M74.07.88h.11l0,0Z" transform="translate(0 0)"/>
    <path d="M73.15,0h0Z" transform="translate(0 0)"/>
    <path d="M73.46,0Z" transform="translate(0 0)"/>
    <path d="M71.61.5l-.28,0,.13.2h.15Z" transform="translate(0 0)"/>
    <path d="M71.61.67h0Z" transform="translate(0 0)"/>
    <path d="M66.14.93h0Z" transform="translate(0 0)"/>
    <path d="M89,0h0Z" transform="translate(0 0)"/>
    <path d="M68.54,1a.57.57,0,0,0,0-.21h-.22Z" transform="translate(0 0)"/>
    <polygon points="69.5 0.05 69.47 0 69.03 0 69.07 0.05 69.5 0.05"/>
    <path d="M69.09.07h.43l0,0h-.43Z" transform="translate(0 0)"/>
    <path d="M73.05,0h0Z" transform="translate(0 0)"/>
    <path d="M68.69,0V0h-.92l0,.05h.28Q68.39.05,68.69,0Z" transform="translate(0 0)"/>
    <path d="M68.09.05h-.28v0Z" transform="translate(0 0)"/>
    <path d="M69.05.05l0,0h-.12l-.07.05Z" transform="translate(0 0)"/>
    <path d="M68.81.07h.24v0h-.21Z" transform="translate(0 0)"/>
    <path d="M68.91,0h-.22l0,0Z" transform="translate(0 0)"/>
    <polygon points="73.03 0 73.15 0 73.02 0 73.03 0"/>
    <polygon points="64.33 0 64.33 0 63.96 0 63.96 0 64.33 0"/>
    <path d="M70.14,0h-.57l0,.05h.53S70.14,0,70.14,0Z" transform="translate(0 0)"/>
    <path d="M70.13.09v0H69.6l0,0Z" transform="translate(0 0)"/>
    <path d="M60.33.56,59.86.49l0,.09h.53Z" transform="translate(0 0)"/>
    <path d="M40.07,0c.24,0,.63,0,.23,0h-.23Z" transform="translate(0 0)"/>
    <path d="M89.15,0Z" transform="translate(0 0)"/>
    <path d="M41.15.54l.06-.09L40.78.39l.31,0,.18-.23h-1.2v.4Z" transform="translate(0 0)"/>
    <path d="M41.27.13l0,0L40.07.1v0Z" transform="translate(0 0)"/>
    <path d="M40.08.79a2.59,2.59,0,0,1,.63,0h-.29l.52,0,.12-.17h0v0h0l0-.07H40.07C40.08.64,40.08.73,40.08.79Z"
          transform="translate(0 0)"/>
    <path d="M41.37,0H40.3c.86,0,.3.12-.23.05V.1l1.23,0Z" transform="translate(0 0)"/>
    <path d="M17.44,0c-.15.06.44,0,.75,0l0,0h-.72Z" transform="translate(0 0)"/>
    <path d="M6.3,1h0Z" transform="translate(0 0)"/>
    <path d="M45.14.72h0Z" transform="translate(0 0)"/>
    <path d="M32.67.65H33l0,0h-.3S32.68.64,32.67.65Z" transform="translate(0 0)"/>
    <path d="M40.08.89h0Z" transform="translate(0 0)"/>
    <path d="M44.94.05V0h-.47l.07.05h.39Z" transform="translate(0 0)"/>
    <path d="M44.94.06h0Z" transform="translate(0 0)"/>
    <path d="M44.88.5h.29l0-.38h-.28Z" transform="translate(0 0)"/>
    <path d="M45.21.12v0l-.28,0V.12Z" transform="translate(0 0)"/>
    <path d="M2.32,1l0-.21H2.15L2.09,1Z" transform="translate(0 0)"/>
    <polygon points="2.21 0.55 2.15 0.79 2.27 0.8 2.21 0.55"/>
    <path d="M40.81,1l.08-.1h0l0-.06-.29,0h.09a1.83,1.83,0,0,1-.65.09V1C40.34,1,40.63,1,40.81,1Z"
          transform="translate(0 0)"/>
    <path d="M44.85.72a.2.2,0,0,1,.09,0h-.08Z" transform="translate(0 0)"/>
    <path d="M40.12,1h.06l-.09,0V1Z" transform="translate(0 0)"/>
    <path d="M45,0h0Z" transform="translate(0 0)"/>
    <path d="M44.28,0h0Z" transform="translate(0 0)"/>
    <path d="M11.52,0h0Z" transform="translate(0 0)"/>
    <path d="M27.68.22,27.61.16h-.68l.05,0Z" transform="translate(0 0)"/>
    <path d="M27.41,0h-.64l.16.17h.68A1.16,1.16,0,0,1,27.41,0Z" transform="translate(0 0)"/>
    <path d="M27.82.49c.09-.08,0-.18-.14-.27H27l.24.26Z" transform="translate(0 0)"/>
    <path d="M27.36.64h.35s0-.08.08-.12l0,0h-.6Z" transform="translate(0 0)"/>
    <path d="M23.76.86l.09-.14h-.21Z" transform="translate(0 0)"/>
    <path d="M30.14.19v0h-.2l0,0Z" transform="translate(0 0)"/>
    <path d="M30.14.19H30l.18.27Z" transform="translate(0 0)"/>
    <path d="M30.16,0H28.9l0,0c.14,0,.53,0,.74,0l0,0h.25l.11.16h.2C30.14,0,30.15,0,30.16,0Z"
          transform="translate(0 0)"/>
    <path d="M31.33,0l0,0,.19,0Z" transform="translate(0 0)"/>
    <path d="M23.63,1l0,0h-.72V1Z" transform="translate(0 0)"/>
    <path d="M23.35.71l-.41,0-.08.16,0,.15h.72Z" transform="translate(0 0)"/>
    <path d="M29.07.64h.87l0,0c-.28,0-.56,0-.84,0Z" transform="translate(0 0)"/>
    <polygon points="2.37 0 2.18 0 2.25 0 2.37 0"/>
    <path d="M29.16.49h.69L29.69.2h-.83C28.93.31,29.12.4,29.16.49Z" transform="translate(0 0)"/>
    <path d="M29.62.06c-.26,0-.52,0-.78,0a.22.22,0,0,0,0,.08h.84Z" transform="translate(0 0)"/>
    <path d="M29.12.61c.25,0,.51,0,.79,0L29.85.5h-.69A.1.1,0,0,1,29.12.61Z" transform="translate(0 0)"/>
    <path d="M29.69.2l0,0h-.84l0,0Z" transform="translate(0 0)"/>
    <polygon points="19.69 0 19.6 0 19.69 0 19.69 0"/>
    <polygon points="21.75 0.96 22.12 0.96 21.64 0.46 21.53 0.46 21.75 0.96"/>
    <polygon points="21.64 0.46 21.47 0.28 21.44 0.28 21.53 0.46 21.64 0.46"/>
    <polygon points="21.42 0.23 21.44 0.28 21.47 0.28 21.42 0.23"/>
    <path d="M21.77,1h.38l0,0h-.37Z" transform="translate(0 0)"/>
    <path d="M13.18,0Z" transform="translate(0 0)"/>
    <path d="M22,.27h-.22l.1-.09h-.22l.09.09Z" transform="translate(0 0)"/>
    <path d="M22,.12l0-.12h-.4l.15.18h.22Z" transform="translate(0 0)"/>
    <path d="M22.06.35l0-.08h-.26l.07.09Z" transform="translate(0 0)"/>
    <path d="M23.49.54l.06.07.36,0L24,.55v0Z" transform="translate(0 0)"/>
    <path d="M23.21.6h0l0,0Z" transform="translate(0 0)"/>
    <path d="M22.22.79,22.11.48a.05.05,0,0,1,0,0h-.13Z" transform="translate(0 0)"/>
    <path d="M21.94.46h.13L21.86.37Z" transform="translate(0 0)"/>
    <polygon points="2.62 0.64 2.5 0.8 2.67 0.8 2.62 0.64"/>
    <path d="M2.73,1,2.67.8H2.49L2.32,1Z" transform="translate(0 0)"/>
    <polygon points="83.17 0.7 82.96 0.01 81.89 0.02 81.78 0.7 83.17 0.7"/>
    <path d="M83.22.87l0-.17H81.78l0,.18Z" transform="translate(0 0)"/>
    <path d="M83,0H81.89V0H83Z" transform="translate(0 0)"/>
    <path d="M84,0h0Z" transform="translate(0 0)"/>
    <path d="M84,.05l0,0h-.06V0Z" transform="translate(0 0)"/>
    <rect x="82.95" width="0.42"/>
    <path d="M85.12,0h0Z" transform="translate(0 0)"/>
    <polygon points="84.26 0.01 84.25 0 83.98 0 83.98 0.01 84.26 0.01"/>
    <path d="M84,.06a.57.57,0,0,1,.28.1l0-.15H84Z" transform="translate(0 0)"/>
    <path d="M70.17,1h.4L70.68.9h-.44Z" transform="translate(0 0)"/>
    <path d="M86.36,1,86.5.72h-.09L86.29,1Z" transform="translate(0 0)"/>
    <path d="M86.55.62a.25.25,0,0,1,0-.09l.17-.35L86.55.4l-.14.32h.09Z" transform="translate(0 0)"/>
    <path d="M67,.76a.25.25,0,0,1-.25.08.05.05,0,0,1,0,0l.13.12h.44L67.17.76Z" transform="translate(0 0)"/>
    <path d="M71.61.75h-.1l.08.13h0A.53.53,0,0,1,71.61.75Z" transform="translate(0 0)"/>
    <path d="M81.29,0Z" transform="translate(0 0)"/>
    <path d="M71.59.88l0,0v0Z" transform="translate(0 0)"/>
    <path d="M85.81.94l0,0h.14l0,0Z" transform="translate(0 0)"/>
    <path d="M86.83,1h.41l.05-.28H87a.79.79,0,0,0-.16.23Z" transform="translate(0 0)"/>
    <path d="M87.34.42a1.07,1.07,0,0,0-.34.3h.29Z" transform="translate(0 0)"/>
    <path d="M85.67.43l-.1-.2,0,.15a1.2,1.2,0,0,1,.16.15Z" transform="translate(0 0)"/>
    <path d="M81.29,1h0Z" transform="translate(0 0)"/>
    <path d="M85.87.85l0,.07h.07Z" transform="translate(0 0)"/>
    <path d="M61.58,1h0l.7,0,0-.07C61.49.91,61,.93,61.58,1Z" transform="translate(0 0)"/>
    <polygon points="81.29 0.68 81.29 0.7 81.3 0.7 81.29 0.68"/>
    <path d="M81.4.89,81.3.7h0V.89Z" transform="translate(0 0)"/>
    <path d="M81.29.94V1h.15l0,0Z" transform="translate(0 0)"/>
    <path d="M81.75.93V1L83.08.91C82.61.89,82.19.91,81.75.93Z" transform="translate(0 0)"/>
    <path d="M83.08.91l-1,.07h1.17v0l-.15,0Z" transform="translate(0 0)"/>
    <polygon points="85.61 0.07 85.58 0.2 85.65 0.33 85.61 0.07"/>
    <path d="M84.38.55a.52.52,0,0,1,0,.11l0,0h0Z" transform="translate(0 0)"/>
    <polygon points="84.42 0.71 84.39 0.71 84.44 0.78 84.42 0.71"/>
    <path d="M84.31.89h.1L84.34.76Z" transform="translate(0 0)"/>
    <polygon points="86.05 0.92 86.05 0.91 86.04 0.92 86.05 0.92"/>
    <path d="M86,1V1h0v0h0Z" transform="translate(0 0)"/>
    <polygon points="85.85 0.48 85.82 0.62 85.88 0.71 85.9 0.71 85.85 0.48"/>
    <polygon points="85.9 0.71 85.88 0.71 85.92 0.78 85.9 0.71"/>
    <polygon points="85.05 0.65 85.05 0.46 84.94 0.69 84.94 0.71 85.02 0.71 85.05 0.65"/>
    <polygon points="85.02 0.71 84.94 0.71 84.95 0.85 85.02 0.71"/>
    <path d="M63.79.89h-.21l0,.09h.22Z" transform="translate(0 0)"/>
    <path d="M66.23.93Z" transform="translate(0 0)"/>
    <path d="M68.61.67v0h-.33l0,0Z" transform="translate(0 0)"/>
    <path d="M68.68.13a.43.43,0,0,0-.46.36h0a.11.11,0,0,0,0,.05l.07.09h.33C68.64.47,68.66.26,68.68.13Z"
          transform="translate(0 0)"/>
    <path d="M67.07.55l0,0H67Z" transform="translate(0 0)"/>
    <path d="M69.24.67v0h-.1l0,0Z" transform="translate(0 0)"/>
    <path d="M69.07.13h0v0a2.24,2.24,0,0,0-.24,0l.35.51h.1Z" transform="translate(0 0)"/>
    <path d="M70.13.36V.12h-.48l.16.26Z" transform="translate(0 0)"/>
    <path d="M69.87.67v0h-.27v0Z" transform="translate(0 0)"/>
    <path d="M69.55.13h-.41l.45.52h.27Z" transform="translate(0 0)"/>
    <path d="M73.23.26v0l0,0Z" transform="translate(0 0)"/>
    <path d="M67,.42,67,.5H67Z" transform="translate(0 0)"/>
    <path d="M65.81,1V1h.11V1Z" transform="translate(0 0)"/>
    <path d="M63.81.76h-.2l0,.12h.21Z" transform="translate(0 0)"/>
    <path d="M65.57,1h.24V1A.9.9,0,0,0,65.57,1Z" transform="translate(0 0)"/>
    <path d="M71.61.25l-.07.06h.07Z" transform="translate(0 0)"/>
    <path d="M68.07.3a1.07,1.07,0,0,1,0-.17h-.23L68,.3Z" transform="translate(0 0)"/>
    <path d="M67.13.67l0,0h0l0,0Z" transform="translate(0 0)"/>
    <path d="M67.11.63h0Z" transform="translate(0 0)"/>
    <path d="M68.06.37V.3H68Z" transform="translate(0 0)"/>
    <path d="M63.89.23l0-.17h0l-.06.07Z" transform="translate(0 0)"/>
    <polygon points="63.92 0.04 63.89 0.07 63.92 0.07 63.92 0.04"/>
    <path d="M69.27.76h-.06l.11.17h0Z" transform="translate(0 0)"/>
    <path d="M70.14.76H70l.06.11h0Z" transform="translate(0 0)"/>
    <polygon points="69.32 0.93 69.32 0.94 69.32 0.93 69.32 0.93"/>
    <path d="M69.32.93Z" transform="translate(0 0)"/>
    <path d="M70.12.9l0,0v0Z" transform="translate(0 0)"/>
    <path d="M70,.88,69.93.76h-.25l.18.22h.2L70,.89Z" transform="translate(0 0)"/>
    <path d="M73.43.66c0-.1,0-.24,0-.43l-.18,0,0,.08s0,0,0,0l.18,0-.19,0a.83.83,0,0,1-.1.23Z"
          transform="translate(0 0)"/>
    <path d="M73.16.77H73a.22.22,0,0,1-.09.07l0,0h.36l.17-.22H73.1A1,1,0,0,1,73,.77Z" transform="translate(0 0)"/>
    <path d="M71.25.49l-.14.09.07.07h.17Z" transform="translate(0 0)"/>
    <path d="M71.35.66h0Z" transform="translate(0 0)"/>
    <path d="M73.18,1l0,0h-.08Z" transform="translate(0 0)"/>
    <path d="M73.45.13l0,0h0Z" transform="translate(0 0)"/>
    <path d="M71.2.67h0Z" transform="translate(0 0)"/>
    <path d="M70.39.76l-.12.11h.45l0,0,0-.07Z" transform="translate(0 0)"/>
    <path d="M70.9.46l.15.17.06-.05L71,.46Z" transform="translate(0 0)"/>
    <polygon points="70.67 0.49 70.5 0.66 70.72 0.66 70.67 0.49"/>
    <path d="M70.72.68v0H70.5l0,0Z" transform="translate(0 0)"/>
    <polygon points="71.62 0 71.17 0 71.17 0 71.47 0 71.62 0 71.62 0"/>
    <polygon points="71.17 0 71.62 0 71.62 0 71.47 0 71.17 0 71.17 0"/>
    <path d="M70.13.68v0H70v0Z" transform="translate(0 0)"/>
    <path d="M70.13.55h-.07L69.83.43,70,.65h.16Z" transform="translate(0 0)"/>
    <path d="M71.27.75a.54.54,0,0,1,.07.13h.14L71.4.75Z" transform="translate(0 0)"/>
    <path d="M91.57,1,91.51.74h-.35L91.05,1Z" transform="translate(0 0)"/>
    <path d="M91.47.59c0,.1-.14.12-.27.07l0,.07h.35Z" transform="translate(0 0)"/>
    <path d="M92.53,0H92.2a.91.91,0,0,1,0,.17v0h.18Z" transform="translate(0 0)"/>
    <polygon points="92.4 0.2 92.22 0.2 92.31 0.36 92.4 0.2"/>
    <path d="M90.84,1H91L91,.8Z" transform="translate(0 0)"/>
    <path d="M92.21.2c0,.11,0,.23,0,.36L92.3.37Z" transform="translate(0 0)"/>
    <path d="M92.11,0Z" transform="translate(0 0)"/>
    <path d="M93.1,0h0Z" transform="translate(0 0)"/>
    <path d="M92.56,0h0Z" transform="translate(0 0)"/>
    <path d="M90.72,0h-.27a.08.08,0,0,0,0,0l0,0,0,.06,0,.06h.12l0-.11Z" transform="translate(0 0)"/>
    <path d="M92.7.73v0h-.19v0Z" transform="translate(0 0)"/>
    <path d="M92.69.82a.22.22,0,0,1,0-.08h-.17l0,0Z" transform="translate(0 0)"/>
    <path d="M92.53.74Z" transform="translate(0 0)"/>
    <path d="M93,.9l.14,0L93.05.77Z" transform="translate(0 0)"/>
    <path d="M93.83.66V.47L93.71.24h0V.66Z" transform="translate(0 0)"/>
    <path d="M93.68.18V.23h0Z" transform="translate(0 0)"/>
    <path d="M93.35,1h0Z" transform="translate(0 0)"/>
    <path d="M93.82.24h-.1l.1.17Z" transform="translate(0 0)"/>
    <path d="M93.85,0h-.17V.16l0,.08h.1C93.83.17,93.83.1,93.85,0Z" transform="translate(0 0)"/>
    <path d="M24.9,1.79c-.11-.15-.68-.18-1.14-.06l1,.13Z" transform="translate(0 0)"/>
    <path d="M93.83.74h-.11l.11,0Z" transform="translate(0 0)"/>
    <path d="M93.83.72a.75.75,0,0,0-.15,0h.15Z" transform="translate(0 0)"/>
    <path d="M95.24,0H95L95,.16A.8.8,0,0,0,95.24,0Z" transform="translate(0 0)"/>
    <path d="M44.88.52h.28l-.28,0Z" transform="translate(0 0)"/>
    <path d="M40.63,1h.07a.27.27,0,0,0-.09,0Z" transform="translate(0 0)"/>
    <path d="M74.81.13h-.37l.22.23Z" transform="translate(0 0)"/>
    <path d="M41.35.62Z" transform="translate(0 0)"/>
    <path d="M90.76.33h0l0,0Z" transform="translate(0 0)"/>
    <path d="M74.84.08h0Z" transform="translate(0 0)"/>
    <path d="M19.34.3a.09.09,0,0,1,0-.11h-.17l0,.11Z" transform="translate(0 0)"/>
    <path d="M55.68.08V0c-.24,0-.48,0-.73,0V0H51.71c.72,0,.39.09-.06.07l0,0h4Z" transform="translate(0 0)"/>
    <path d="M34.22.51h-1v0A8.76,8.76,0,0,1,34.22.51Z" transform="translate(0 0)"/>
    <path d="M13.18.19A9.29,9.29,0,0,1,11.5,0c.08.06-.19.13.17.2h1.51Z" transform="translate(0 0)"/>
    <polygon points="18.31 0.31 18.25 0.19 15.73 0.2 15.59 0.34 18.31 0.31"/>
    <path d="M7.51.41H8L8.4.35,8.14.22H7.42Z" transform="translate(0 0)"/>
    <path d="M6.14,0H7.33l.09.22h.72L7.72,0H5.85l.09.22h.19C6.13.15,6.14.09,6.14,0Z" transform="translate(0 0)"/>
    <polygon points="14.7 0.34 14.66 0.2 14.25 0.2 14.1 0.35 14.7 0.34"/>
    <polygon points="49.85 0 49.33 0 48.86 0 48.86 0.01 50 0 49.85 0"/>
    <path d="M11.4.37h1.83L13.18.2H11.71C11.88.24,11.74.33,11.4.37Z" transform="translate(0 0)"/>
    <path d="M.31,0H0V.24H.3Z" transform="translate(0 0)"/>
    <path d="M42.23,0H42a.15.15,0,0,1,0,.08h.38Z" transform="translate(0 0)"/>
    <polygon points="1.79 0 1.68 0 1.49 0.23 1.78 0.23 1.79 0"/>
    <path d="M25.77.24h.68V.17h-.89l-.07,0Z" transform="translate(0 0)"/>
    <path d="M33.06.51l.23-.35h-.48a.89.89,0,0,1-.07.34Z" transform="translate(0 0)"/>
    <polygon points="3.91 0 3.17 0 3.17 0 3.21 0 3.3 0.23 3.98 0.23 3.91 0"/>
    <path d="M14.6,0h-.14l-.21.2h.41Z" transform="translate(0 0)"/>
    <path d="M32.69.61a1.73,1.73,0,0,0,.32,0l.05-.08h-.32S32.71.58,32.69.61Z" transform="translate(0 0)"/>
    <path d="M25.7.48h.79l0-.25h-.57Z" transform="translate(0 0)"/>
    <path d="M40,0h0l0,0h-.3l-.06.1H40Z" transform="translate(0 0)"/>
    <path d="M51.49.06l-.14,0h.14V0h-.4l0,.1h.43Z" transform="translate(0 0)"/>
    <path d="M18.19.06c-.49,0-1,0-1.47,0H17l-.35,0h.1l-.09,0h-.69l-.2.2h2.51ZM17.1.19c-.79,0,.16-.11.19,0C17,.15,17.3.13,17.1.19Z"
          transform="translate(0 0)"/>
    <polygon points="76.77 0 76.03 0 76.03 0.03 76.79 0.03 76.77 0"/>
    <polygon points="96.93 0.76 97.2 0.33 96.48 0.31 96.34 0.76 96.93 0.76"/>
    <path d="M36.3.13c.08,0,.21,0,.18,0-.23,0,.22,0,.06-.1h-.63l0,.14h.44Z" transform="translate(0 0)"/>
    <path d="M6.12.4c0-.05,0-.12,0-.18H5.94L6,.4Z" transform="translate(0 0)"/>
    <path d="M31.64.05a2.23,2.23,0,0,1-.36,0l-.05.08h.4Z" transform="translate(0 0)"/>
    <path d="M19.52.06h0l0-.06h-.27l0,.19h.17A.36.36,0,0,1,19.52.06Z" transform="translate(0 0)"/>
    <path d="M41.85,0h0a.31.31,0,0,0-.11.08h.15Z" transform="translate(0 0)"/>
    <path d="M100,0H98.07L98,.2a1.09,1.09,0,0,0,.08.15L100,.41Z" transform="translate(0 0)"/>
    <path d="M46.71,0h-.43V0h.43Z" transform="translate(0 0)"/>
    <path d="M97.41,0H97a.35.35,0,0,1-.48.07l-.08.24.72,0Z" transform="translate(0 0)"/>
    <path d="M26.41,0h-.32l-.54.17h.89Z" transform="translate(0 0)"/>
    <polygon points="0.3 0.38 0 0.38 0 0.49 0.3 0.48 0.3 0.38"/>
    <polygon points="0.3 0.48 0 0.49 0 0.78 0.29 0.78 0.3 0.48"/>
    <polygon points="0.3 0.24 0 0.24 0 0.38 0.3 0.38 0.3 0.24"/>
    <polygon points="4.03 0.4 3.98 0.23 3.3 0.23 3.36 0.39 4.03 0.4"/>
    <path d="M89.06.73h.15l0-.12A.58.58,0,0,1,89.06.73Z" transform="translate(0 0)"/>
    <polygon points="1.78 0.39 1.78 0.23 1.49 0.23 1.36 0.39 1.78 0.39"/>
    <path d="M98.08.35a4,4,0,0,0,.23.41H100V.41Z" transform="translate(0 0)"/>
    <polygon points="18.48 2.23 18.48 2.23 18.48 2.23 18.48 2.23"/>
    <path d="M87.73.07l1.17,0s0,0,0-.06l0,0H87.67Z" transform="translate(0 0)"/>
    <polygon points="7.08 2.15 7.08 2.15 7.08 2.15 7.08 2.15"/>
    <path d="M98.52,1H96.78l.15-.24h-.59L96.26,1V1h-.92V1h0v.07c-1.84,0-3.79,0-5.67,0h-.31L89.21.73h-.15a.86.86,0,0,1-.2.13l0,.14h-.68c-.31,0,0-.06.29-.28h-1l0,.28h0c-1.63,0-3.66,0-5.4,0H81l-.59,0V1h-.87V.71L79.45,1h-.7L78.59.68h-.53l0,.1c.21.16.34.18.22.22H76.91V.68h-.1a.78.78,0,0,1,0,.32H75.15V.91L74.92.67H74.5L74.31,1l0-.05,0,.05,0-.09a.28.28,0,0,1-.11,0V1h-.88c.11.09,0,.18-.67.21a2.3,2.3,0,0,1-.17-.2h-.69l.19-.24h0L71.65,1l0,0h-1c-.21,0-.81,0-1.24.07h0c-.82,0-.26-.06-1.79-.06h.19l0,0c-.38,0-.53,0-.57,0h-.68a.83.83,0,0,1-.47,0h-.58l.09-.33,0,0h-.36c0,.1,0,.21-.06.37h-.89l.77,0h-3l.56,0H60.94c-.16-.15.55-.16,1.37-.14l0-.08L59.75.84l.07.16h-.5L59.24.85h-1l.07.14h-.15a3.87,3.87,0,0,1,.05.49l-.39-.08c-.11-.21.09-.45-.27-.58h0l-.81,0h-.36a1.52,1.52,0,0,0,0,.19H56c-1,0-2.17,0-3.39,0a1.46,1.46,0,0,1-.42,0c.43,0,.31,0,.35,0,.24,0,.3,0,.28,0,1.07,0,2,0,3.19,0,0-.07,0-.21,0-.35l-5,0A2.5,2.5,0,0,0,51,1H49.19a.35.35,0,0,1,0-.1h0l0-.06a1.68,1.68,0,0,1,.06-.27h-.42V1h-.63l.06-.43h-.6l0,.44h-1l0-.44h-.43L46.16,1h-1l0-.27H45A1,1,0,0,0,45,1h-.35V1c0-.09,0-.26,0-.43H42.86L42.71,1h-.86V.54h-.47l0,.06a.85.85,0,0,1,.33,0,.63.63,0,0,0-.33,0h0l0,.18c.28,0,.19,0,0,.05l0,.1h-.6l.2,0c-.21,0-.21,0-.06,0s-.49.06-.7.05c.12,0,0,0,0-.05h-.11L40,1l.1,0s0,0,0,0h0L40,1h0l0,0h.13v0a.36.36,0,0,1-.23,0h0c-.05,0,0-.15,0-.33h-.26c0,.13,0,.28,0,.47h-1a.1.1,0,0,1,0,.09c-.28-.05,0,.1-.19.28-.53-.05-.28-.3,0-.37h-.64l0-.05,0,.05L37.48.71,37.35.52h-.16L37,1,36.89.52H35.71L35.52,1,35.41.52h-.92l-.55.05.83,0-1.55,0v0l1.86,0c-.85,0-1.4,0-1.88,0L33.1,1h-.37l.2-.3h-.3a1.2,1.2,0,0,1-1,.31h-.36l.33-.5H31l0,0v0c-.08.12-.18.25-.29.42V1h-.58L30,.67H29c-.07,0,.23.09.4.16a1.44,1.44,0,0,0-.33.08l.08.09H29c-.12.13,0,.27-.15.41l-.86.08A1.6,1.6,0,0,1,28.05,1H26.63c-.43,0-.88,0-1.41,0h-.84V1H21.33l0,0h-.48l0,.05,0-.05h-.27V1h-.66l0-.06H19V1h-.38l0-.07L15,.9l-.1.1,0-.1H13.53L13.42,1l0-.11L10.7.87s0,.08,0,.13h-.36l0-.14-2.6,0L7.76,1H4.21l0-.19H3.51l.07.2H1.77V.79H1L.84,1l0-.22H.67L.61,1H.28V.78H0V100H100V1h0V.77H98.31C98.39.88,98.46,1,98.52,1Zm-78.59.93c0,.06.27,0,0,.07-.05,0,0,0,0,0C19.31,2,19.42,1.93,19.93,1.93Zm-1,.29a1.7,1.7,0,0,0-.45,0h-.13A2.17,2.17,0,0,1,18.93,2.22Zm-.18,1.72L18,4l0,.05,1.35.1h0l.46-.28a2,2,0,0,0-.72.08c.3-.3,1.47-.16,2.18-.39l-.5.33h.12c.8.72-.4.43.12.8-.47,0-2.22-.11-1.56-.36.33-.07.32-.13-.1-.18h0c-.52.16-1.12.06-1.18.28l-.25-.29-.51,0C17.65,3.89,17.66,3.89,18.75,3.94Zm-8.56-.68-.64.14.09,0,.77-.08a3.78,3.78,0,0,1-1.84.05A3.85,3.85,0,0,1,10.19,3.26ZM8.53,1.85c0,.06.27,0,0,.06,0,0,0,0,0,0C7.92,1.93,8,1.85,8.53,1.85Zm-1.32.31H7a2.21,2.21,0,0,1,.58,0,1.7,1.7,0,0,0-.45,0ZM8.79,5a4,4,0,0,1-.95,0l.35,0h0l.6,0s0,0-.07,0l.42,0Zm1.84-.79v0l-.7,0c.42.41.1.34-.42.37L10,4.45,8.8,4.36l.38-.16L8.7,4.13l.58,0,0,0-.34,0,.29-.25c.59,0,.67,0,.73.19h.79L10,4.13ZM15,9.67a6.49,6.49,0,0,1-2.34-.24A2.23,2.23,0,0,1,14,9.57a8.56,8.56,0,0,1,2.52-.23C16.11,9.45,14.14,9.56,15,9.67ZM16.1,4.3c.31-.08.56.15.84.28l-.36,0Zm.54,5.41a2.37,2.37,0,0,0,1.3,0l.56.37C18.17,9.86,16.59,10.05,16.64,9.71ZM18.5,5.48c.08.12-.19.27.78.24C18.56,6.11,17,5.55,18.5,5.48Zm.73,1.43-.7-.08.28-.32h.12Zm.26,4.2a2.94,2.94,0,0,0-1.39-.43l.48-.32h.15l-.11.23c.32.06.55-.33.87-.24l-.38.39Zm-.4-1c-.57-.31,0-.34.39-.5C20.25,9.88,20.16,10,19.09,10.12ZM20,6.79l.1-.56h.86c-.53,0,.15.22.39.4C21,6.71,20.28,7,20,6.79Zm1-.79h0l.32-.22a3.69,3.69,0,0,0-.91.15,2.75,2.75,0,0,0-.84-.72l.2,0L19,5.09l1.21-.2-.61,0a24.4,24.4,0,0,1-2.68,0h2.68l1.34-.1c.53.23-.22.38.49.58.32.08-.13.21-.85.28C21.88,5.7,21.78,5.87,20.93,6ZM24.4,1.34l-.57-.11c1.35.22.93-.18,1.5-.22.25.06.77.11.2.21.4.09.11.19.16.29s0,.27-.43.38c0,0,0,0,.06.07l.45,0H24.59l.08-.06-.94-.21a1.45,1.45,0,0,0-.29.11l.77.12a4,4,0,0,1-.92,0c-.59-.16.2-.39-.74-.55Zm-1.23,2a7.12,7.12,0,0,1,1.91.14C24.37,3.33,23.38,4.1,23.17,3.37ZM22.84,4l.29-.26c.09,0,.26.07.27.1S23.72,4.08,22.84,4Zm-.21,1.27.49-.14L22.85,5l.23,0c.28.24,0,.59,2.12.43A5,5,0,0,1,22.63,5.31Zm2.54.08-.83-.22A8.31,8.31,0,0,1,26,4.83c0,.16.08.29.13.48l-.66-.09ZM27,11.2,26,11a2.68,2.68,0,0,1,.91-.17ZM28.51,14l-.16.11.07,0,.06.11-.13-.08h0l-.13.06c0-.16.15-.18.29-.17l.08,0,.22.06A1.67,1.67,0,0,1,28.51,14Zm1.28-1.41c-.05,0,0,.09,0,.13-.57,0-.45-.55.05-.52C29.72,12.38,30.11,12.43,29.79,12.56ZM37.47,1.73V1.67a2.63,2.63,0,0,1,.41,0Zm3.69-.68h-.31A.27.27,0,0,1,41.16,1.05Zm-.42.44c.15,0,.44,0,.17.07C40.43,1.54,40.39,1.52,40.74,1.49Zm0,.23.17-.06-.17-.06c.13,0,.26,0,.39,0l0,0a.87.87,0,0,1,.28,0A3.21,3.21,0,0,0,40.73,1.72Zm.44-.17A3.78,3.78,0,0,1,42,1.5,7.3,7.3,0,0,1,41.17,1.55Zm1.57-.06c.39,0-.5,0-.67-.05a11.05,11.05,0,0,1,1.13,0,2.3,2.3,0,0,1,.59,0A8.75,8.75,0,0,1,42.74,1.49ZM46.28,1h0Zm2.58.81V1.75a2.54,2.54,0,0,1,.41,0Zm3.69-.76h-.31A.27.27,0,0,1,52.55,1.05Zm.2-.29a3.17,3.17,0,0,0-.52,0h0l.59,0c-.12,0-.24,0-.37,0a1.77,1.77,0,0,1,.64,0A.65.65,0,0,0,52.75.76Zm.67,0h-.16a1.64,1.64,0,0,1,.37-.05ZM52.54.62l2,0c-.79,0-1.58,0-2.45,0ZM51.49,2h0s-.07-.73-.12-.93h0s0,0,0,0a.48.48,0,0,0,.12,0h0c-.33,0-.35,0,0,0h-.08c-.18,0-.26,0-.15,0A1.73,1.73,0,0,1,52.1.86h-.29l.54,0L52,.92h.09a.86.86,0,0,1-.23,0,1.93,1.93,0,0,1,.43,0A1.71,1.71,0,0,0,52,1l.22,0c-.2,0-.21,0-.06,0s-.47.06-.69.05C51.48,1.23,51.48,1.46,51.49,2Zm.64-.43c.15,0,.44,0,.18.07C51.83,1.62,51.79,1.61,52.13,1.57Zm0,.23.16-.06-.17-.06c.13,0,.26.05.39,0l0,0a.87.87,0,0,1,.28.05A3,3,0,0,0,52.13,1.8Zm.44-.17a3.71,3.71,0,0,1,.83,0A7.46,7.46,0,0,1,52.57,1.63Zm1.57-.06c.39,0-.51,0-.67-.05a10.84,10.84,0,0,1,1.12,0,2.3,2.3,0,0,1,.59,0A8.64,8.64,0,0,1,54.14,1.57Zm4.36,9.79V11h.09l.32.18Zm.55-5.89L59.11,5a2,2,0,0,1,.73.35l-.37.21-.13-.17Zm.35-2.74.17,0,.16.24H59.2l.28-.06Zm.11.94a1.57,1.57,0,0,1,.85-.14C60.39,4.15,59.88,3.58,59.51,3.67Zm.87.27.13.26C60.05,4.25,60.25,4,60.38,3.94Zm-.83,1.71-.09-.1c.93.16.82-.19.94-.43l.11,0-.12.18.21.14C60.44,5.76,59.92,5.62,59.55,5.65ZM59.94,2l0,0,.34-.12-.09-.13-.58.3L59.4,2s.05-.07,0-.08a.45.45,0,0,1-.12-.67c-.25-.1,0-.15.09-.21s.07.44.67.22l-.25.11.82.11C60.2,1.71,60.6,2.13,59.94,2ZM62.2,4.09,62,4l-.08,0,.2.28h0l.6-.1,0,0-.35-.05c.49,0,.49,0,.64.23l-.23,0-.11.29c0-.23-.35-.12-.53-.28h0c-.18,0-.19.11,0,.19.3.22-.46.39-.7.35,0-.06.11-.14.07-.18-.28-.22-.06-.38,0-.62h.05l-.22-.33C61.56,3.93,62.07,3.79,62.2,4.09Zm0,2-.15-.16c.43,0,.31-.12.35-.24C63,5.76,62.69,6,62.25,6Zm.18,1-.31.08.13-.39h0ZM61.19,6.8c.09-.16.41-.37.18-.39h0C61,6.26,61,6.1,61.52,6c-.32-.07-.52-.2-.38-.29.31-.19,0-.36.22-.58L62,5.2v0l-.3.06.53.2-.31.1H62a2.67,2.67,0,0,0-.38.73l-.35-.17-.05,0,.14.21h0l.38,0,0,.56L61.61,7Zm.82,3c.23.16.39.26.17.5C61.7,10.13,61.67,10,62,9.78Zm0,1.49.17-.36L62,10.53l.09,0,.23.26h.07l0-.23h.07l.21.32C62.27,10.9,62.18,11.1,62,11.27Zm.44-1.07.25-.37.22.14.36-.1C63.3,10.22,62.59,10,62.44,10.2Zm.7-5.46.25-.3.12,0-.21.31ZM64,9.83l.14-.07-.81-.26a1.85,1.85,0,0,1,1.13.23c.22-.15.33-.25.59-.14C64.76,9.87,64.44,9.81,64,9.83Zm2-6.31.34.08,0,0-.29-.13,0-.05.38.07c.3-.16.15.11.31.12C66.39,3.68,66.21,3.67,66.05,3.52Zm1.16.84-.52.09.2.09c-.35,0-.3-.11-.19-.37l-.31,0v0l.27,0L66.35,4h.34c0-.2.07-.22.33-.19l.13.25L67,4v0l.26,0L67,4.2ZM87.74,3.7c.45,0,1.77,0,1.78,0C91.36,3.67,88.19,3.8,87.74,3.7Zm4.14,8.82s0-.1-.08-.12c-.7-.15.06-.12,0-.39.83,0,.76.15.9.25S92.62,12.5,91.88,12.52ZM94,4.94h-.89A7.29,7.29,0,0,1,94.73,5h-.67l.1,0C93.46,5.05,92.94,5,94,4.94Zm1.06,9-.29.08.15-.11.14,0a1.82,1.82,0,0,0-.43-.11,2.4,2.4,0,0,1-.59,0,1.47,1.47,0,0,1,.59,0c.29,0,.58,0,.72.16L95,13.92Zm.29-10.16c-1.16,0-2.35,0-3.52-.07l1,0h-.64l.49,0-.85-.06a15.79,15.79,0,0,1,1.68,0H93a19.88,19.88,0,0,0,2.29.09Zm0-.44c-.82,0-2,.13-3,0,.74,0,2.22,0,3-.05Zm0-1.32c-.32,0-.64,0-1,0l1,0Zm0-.79c-3.16,0-5.91.1-9.3-.05,3.2,0,6,0,9.3,0Z"
          transform="translate(0 0)"/>
    <polygon points="14.01 0.43 13.53 0.89 14.87 0.9 14.73 0.44 14.01 0.43"/>
    <path d="M43,.12h1.58s0,0,0-.07h-.19L43,.07Z" transform="translate(0 0)"/>
    <path d="M50.08.1,50.2,0H48.86v.1Z" transform="translate(0 0)"/>
    <path d="M10.74.42c0,.11,0,.26,0,.45l2.69,0L13.25.43Z" transform="translate(0 0)"/>
    <polygon points="15.48 0.44 15 0.9 18.61 0.93 18.38 0.45 15.48 0.44"/>
    <polygon points="21.08 0.46 20.83 0.95 21.31 0.96 21.14 0.46 21.08 0.46"/>
    <polygon points="20.62 0.46 20.52 0.95 20.79 0.95 20.62 0.46 20.62 0.46"/>
    <path d="M51.07.14h0A2.42,2.42,0,0,0,51,.58l5,0c0-.17,0-.35,0-.47h-.11c-.46,0-.27,0-.2-.05h-4l-.05,0h-.09v0h-.43s0,0,0,0Z"
          transform="translate(0 0)"/>
    <polygon points="19.14 0.45 19.04 0.94 19.83 0.94 19.66 0.46 19.14 0.45"/>
    <path d="M44.55.05h0Z" transform="translate(0 0)"/>
    <path d="M9.77.42A4.76,4.76,0,0,1,8.5.68,1.44,1.44,0,0,0,7.67.45L8,.41H7.51l.18.43,2.6,0L10.16.42Z"
          transform="translate(0 0)"/>
    <polygon points="1.28 0.47 1.02 0.78 1.77 0.79 1.78 0.47 1.28 0.47"/>
    <polygon points="0.67 0.78 0.79 0.78 0.73 0.55 0.67 0.78"/>
    <polygon points="78.06 0.68 78.59 0.69 78.27 0.03 78.06 0.68"/>
    <polygon points="46.7 0.11 46.7 0.03 46.27 0.04 46.27 0.11 46.7 0.11"/>
    <polygon points="3.38 0.45 3.51 0.81 4.16 0.81 4.05 0.45 3.38 0.45"/>
    <path d="M48.86.57h.42l.06-.25h0v0s0,0,0,0a.73.73,0,0,1,0-.12l-.13,0h.17s0,0,0,.05a1.38,1.38,0,0,0,.57,0l.1-.09H48.86Z"
          transform="translate(0 0)"/>
    <path d="M43,.12l-.13.43h1.77a1.12,1.12,0,0,0-.06-.43Z" transform="translate(0 0)"/>
    <path d="M42.07.54s0,.08,0,.13h.15l-.15,0c0,.09,0,.19,0,.3h.18l.33-.46Z" transform="translate(0 0)"/>
    <path d="M87.45.36l0,.36h1a.83.83,0,0,0,.21-.17l.19-.26L88.9.11l-1.17,0C87.78.18,87.65.25,87.45.36Z"
          transform="translate(0 0)"/>
    <path d="M41.65.13c-.08.12,0,.27-.2.35H41.4l0,.06h.47V.12Z" transform="translate(0 0)"/>
    <path d="M65.5.37v0L65.3.28a3,3,0,0,1,0,.35h.36l0-.11C65.42.48,65.45.44,65.5.37Z" transform="translate(0 0)"/>
    <path d="M47.74.14l-.05.42h.6l0-.34C47.92.23,48.16.22,47.74.14Z" transform="translate(0 0)"/>
    <polygon points="46.27 0.11 46.21 0.56 46.64 0.56 46.7 0.11 46.27 0.11"/>
    <path d="M42.62.54l.32-.42h-.21v0a.45.45,0,0,1-.23,0H42c0,.08,0,.22,0,.42Z" transform="translate(0 0)"/>
    <path d="M28.06,1v0C28,.83,27.77.75,27.72.66h-.34L27.7,1h.35a0,0,0,0,1,0,0S28.05,1,28.06,1Z"
          transform="translate(0 0)"/>
    <path d="M31.63.18h-.42L31.1.35h.08L31,.5h.55l.05-.07Z" transform="translate(0 0)"/>
    <path d="M26.53.67h0l0-.18H25.7l-.34.43c-.72,0-.69-.07-.91-.29l-.11.2,0,.16h1.13c.35,0,.7,0,1.06,0Z"
          transform="translate(0 0)"/>
    <path d="M36.36.14h-.51L35.8.29a6.64,6.64,0,0,1,.84,0l-.87,0v0c1.78.09,1,.12,0,.06l0,.08h1.18L36.82.23C36.57.23,36.72.22,36.36.14Z"
          transform="translate(0 0)"/>
    <polygon points="37.19 0.53 37.35 0.53 37.25 0.37 37.19 0.53"/>
    <path d="M39.66.13l0,0c0,.08,0,.2,0,.38h.26A4,4,0,0,1,40,.13Z" transform="translate(0 0)"/>
    <path d="M35.2.4l-.41,0A1.39,1.39,0,0,1,35.36.3l0-.16-2,0-.1.35h2.16l0-.1Z" transform="translate(0 0)"/>
    <polygon points="18.38 0.45 18.31 0.31 15.59 0.34 15.48 0.44 18.38 0.45"/>
    <path d="M10.74.42h2.51l0-.07H11.4a1.75,1.75,0,0,1-.35,0l.11,0h-.41Z" transform="translate(0 0)"/>
    <path d="M11.16.38l.21,0a2.73,2.73,0,0,0-.6-.09s0,.08,0,.13Z" transform="translate(0 0)"/>
    <path d="M36.36.14h0Z" transform="translate(0 0)"/>
    <path d="M33.39,0l0,.15h2l0-.14H32.81a.75.75,0,0,1,0,.15h.49Z" transform="translate(0 0)"/>
    <polygon points="33.35 0.16 35.32 0.14 35.32 0.14 33.35 0.15 33.35 0.16"/>
    <polygon points="74.5 0.67 74.92 0.67 74.66 0.4 74.5 0.67"/>
    <path d="M10.16.42v0H9.87l-.1,0Z" transform="translate(0 0)"/>
    <path d="M40,.13v0h-.32l0,0Z" transform="translate(0 0)"/>
    <path d="M10.13.32,9.87.39h.28Z" transform="translate(0 0)"/>
    <path d="M31.63.18v0h-.4l0,0Z" transform="translate(0 0)"/>
    <polygon points="14.73 0.44 14.7 0.34 14.1 0.35 14.01 0.43 14.73 0.44"/>
    <polygon points="20.62 0.46 20.62 0.46 20.62 0.46 20.62 0.46"/>
    <polygon points="87.78 0 87.67 0 87.67 0 87.78 0"/>
    <path d="M19.66.46l0,0c-.19,0-.28-.06-.3-.12h-.17l0,.15Z" transform="translate(0 0)"/>
    <polygon points="21.08 0.46 21.14 0.46 21.12 0.4 21.08 0.46"/>
    <path d="M41.65.13h.2v0H41.7S41.66.11,41.65.13Z" transform="translate(0 0)"/>
    <path d="M33.29.16h-.48v0Z" transform="translate(0 0)"/>
    <path d="M76.81.68h.1V.27L76.79,0H76v0C76.39.25,76.77.32,76.81.68Z" transform="translate(0 0)"/>
    <polygon points="7.96 0.41 7.84 0.41 7.95 0.41 7.96 0.41"/>
    <path d="M6.12.43v0H6v0Z" transform="translate(0 0)"/>
    <polygon points="7.84 0.41 7.51 0.41 7.51 0.41 7.84 0.41"/>
    <path d="M43,0l0,.07,1.35,0c-.3,0-.12,0-.07,0q-.36,0-.75,0V0h-.81V.07H43Z" transform="translate(0 0)"/>
    <path d="M6.12.62V.43H6Z" transform="translate(0 0)"/>
    <polygon points="1.78 0.47 1.78 0.39 1.36 0.39 1.28 0.47 1.78 0.47"/>
    <path d="M42.5.12l-.12,0H42l0,0Z" transform="translate(0 0)"/>
    <path d="M42.94.12l0,0h-.25v0Z" transform="translate(0 0)"/>
    <polygon points="4.05 0.45 4.03 0.4 3.36 0.39 3.38 0.45 4.05 0.45"/>
    <path d="M75.15.14h-.33l-.15.25.27.29h.21Z" transform="translate(0 0)"/>
    <path d="M75.15.67h-.21l.21.23Z" transform="translate(0 0)"/>
    <path d="M87.45,0h0V0Z" transform="translate(0 0)"/>
    <polygon points="87.45 0 87.41 0 87.41 0 87.45 0 87.45 0"/>
    <path d="M89.33,1h.22L89.47.8Z" transform="translate(0 0)"/>
    <path d="M51.47,1.12c.08,0,.05,0,0,0Z" transform="translate(0 0)"/>
    <path d="M90.46,1,90.6.73h-.24l0,.23Z" transform="translate(0 0)"/>
    <path d="M90.65.64,90.51.3h-.05l-.1.44h.24Z" transform="translate(0 0)"/>
    <path d="M59.59,1.88l.56-.17C59.76,1.67,59.62,1.55,59.59,1.88Z" transform="translate(0 0)"/>
    <path d="M51.49,1a0,0,0,0,0,0,0h0Z" transform="translate(0 0)"/>
    <path d="M89.17.07V0a.08.08,0,0,0,0,0Z" transform="translate(0 0)"/>
    <path d="M89.67,1a.49.49,0,0,1,.17,0L90,.73h-.33L89.55,1Z" transform="translate(0 0)"/>
    <path d="M90.33.27,89.94.22l-.26.51H90Z" transform="translate(0 0)"/>
    <path d="M90.43.13h0L90.38,0h-.33l0,.07V.14h.41Z" transform="translate(0 0)"/>
    <path d="M90.21.14H90s0,0,0,0Z" transform="translate(0 0)"/>
    <path d="M92.79.21,92.69,0h-.13l-.13.2Z" transform="translate(0 0)"/>
    <path d="M92.32.37l.17.31h.21a1,1,0,0,1,.15-.35L92.79.21h-.36Z" transform="translate(0 0)"/>
    <path d="M87.41,0h0Z" transform="translate(0 0)"/>
    <path d="M92.48.74H92.4l.09,0Z" transform="translate(0 0)"/>
    <path d="M92.48.74h0l0,0h-.15l.14,0L92.31.39l-.13.19V.67l.23.07Z" transform="translate(0 0)"/>
    <path d="M56.36.76c-.1,0,0,.05,0,.05h0s0,0,0,0Z" transform="translate(0 0)"/>
    <path d="M93.67.81h.16v0h-.15Z" transform="translate(0 0)"/>
    <path d="M88.3,1h0Z" transform="translate(0 0)"/>
    <path d="M95.31.94V1h0Z" transform="translate(0 0)"/>
    <path d="M90.79,1l-.1-.23H90.6L90.46,1Z" transform="translate(0 0)"/>
    <polygon points="90.66 0.65 90.61 0.73 90.69 0.73 90.66 0.65"/>
    <path d="M55.67,0h0Z" transform="translate(0 0)"/>
    <path d="M95.32.28h0V.44S95.32.34,95.32.28Z" transform="translate(0 0)"/>
    <path d="M95.34,0h0V.28h0C95.32.2,95.33.11,95.34,0Z" transform="translate(0 0)"/>
    <path d="M50.73,0h-.46l0,.1h.44Z" transform="translate(0 0)"/>
    <path d="M50.47.17H50.3a4.11,4.11,0,0,0,.75,0h-.32v0h-.44V.16Z" transform="translate(0 0)"/>
    <path d="M45,.71H45a.14.14,0,0,1,.11-.09V.55h-.29V.67H45c-.16.06-.08.06,0,.06H45Z" transform="translate(0 0)"/>
    <path d="M45.16.54h-.28v0h.29Z" transform="translate(0 0)"/>
    <path d="M56.46.6l-.19,0h.41V.16l-.38,0a3.48,3.48,0,0,0-.07.47Z" transform="translate(0 0)"/>
    <path d="M56.23.6h0Z" transform="translate(0 0)"/>
    <path d="M56.34,0H56a.78.78,0,0,1,0,.09h.33Z" transform="translate(0 0)"/>
    <path d="M56.3.13s0,0,0,0H56a.08.08,0,0,0,0,0Z" transform="translate(0 0)"/>
    <path d="M40.08.79a.83.83,0,0,0-.21.06h0l.23,0Z" transform="translate(0 0)"/>
    <path d="M76,.56V.05l0,0h-.79Z" transform="translate(0 0)"/>
    <path d="M76,0l-.06,0h-.79l.06,0Z" transform="translate(0 0)"/>
    <path d="M71.35.89s0,.07.05.11h.15L71.48.89Z" transform="translate(0 0)"/>
    <path d="M74.31.67a.16.16,0,0,1-.09.15l.06.13.18-.28Z" transform="translate(0 0)"/>
    <path d="M74.65.38,74.4.12H74l.25,0h-.24a1.09,1.09,0,0,1,.26.52h.15Z" transform="translate(0 0)"/>
    <polygon points="74.9 0 74.33 0 74.36 0.04 74.87 0.04 74.9 0"/>
    <path d="M74.85.07l0,0h-.51l0,0Z" transform="translate(0 0)"/>
    <path d="M87.67,0h0Z" transform="translate(0 0)"/>
    <path d="M75.15,0V0H74.9l0,0Z" transform="translate(0 0)"/>
    <path d="M74.86.07c.19,0,.26,0,0,0v0l.31,0V0h-.27Z" transform="translate(0 0)"/>
    <path d="M10.86,0H10l.07.21h.68A.56.56,0,0,1,10.86,0Z" transform="translate(0 0)"/>
    <path d="M10.77.25s0,0,0,0H10.1l0,.11A2.62,2.62,0,0,1,10.77.25Z" transform="translate(0 0)"/>
    <path d="M87.05.24a1.14,1.14,0,0,0,.33-.18H87.1Z" transform="translate(0 0)"/>
    <path d="M87.38.06h0V0h-.3V.06Z" transform="translate(0 0)"/>
    <path d="M87.41,0h0Z" transform="translate(0 0)"/>
</svg>