<svg xmlns="http://www.w3.org/2000/svg"
     viewBox="0 0 100 100" width="10em" height="10em">
<!--    fill="white" style="object-fit:cover">-->
    <polygon points="99.57 6.03 99.6 6.02 99.61 4.03 99.55 4.05 99.57 6.03" style="fill:none"/>
    <polygon points="99.55 3.38 99.61 3.36 99.61 1.78 99.53 1.78 99.55 3.38" style="fill:none"/>
    <path d="M99.88,42.73h.05v-.35a.61.61,0,0,0-.05.12Z" transform="translate(0 0)" style="fill:none"/>
    <path d="M100,44.29v-.75h0Q100,43.93,100,44.29Z" transform="translate(0 0)" style="fill:none"/>
    <path d="M99.59,7.51h0V6.12h0Z" transform="translate(0 0)" style="fill:none"/>
    <path d="M99.94,44.39v0Z" transform="translate(0 0)" style="fill:none"/>
    <polygon points="99.62 1.36 99.62 0.3 99.52 0.3 99.53 1.28 99.62 1.36" style="fill:none"/>
    <path d="M99.55,7.67a1.54,1.54,0,0,1-.23.83,4.76,4.76,0,0,0,.26,1.27V8Z" transform="translate(0 0)"
          style="fill:none"/>
    <path d="M99.88,42l0,0v-.15h0Z" transform="translate(0 0)" style="fill:none"/>
    <path d="M99.87,40.07h0V40h0Z" transform="translate(0 0)" style="fill:none"/>
    <path d="M99.87,39.66l0,0,0-3.35v3.33Z" transform="translate(0 0)" style="fill:none"/>
    <path d="M99.62,10.75l.13,0a2.62,2.62,0,0,0-.07-.64l-.07,0Z" transform="translate(0 0)" style="fill:none"/>
    <path d="M99.87,41.65l0,.05v-.4l0,0Z" transform="translate(0 0)" style="fill:none"/>
    <path d="M99.58,9.77l0,.1,0-1.91h0Z" transform="translate(0 0)" style="fill:none"/>
    <polygon points="99.57 13.25 99.11 13.39 99.11 13.53 99.57 14.01 99.57 13.25" style="fill:none"/>
    <path d="M99.62,11.4v-.24l0-.11A3.49,3.49,0,0,0,99.62,11.4Z" transform="translate(0 0)" style="fill:none"/>
    <path d="M99.9,47.88v1h.1V48S99.93,47.68,99.9,47.88Z" transform="translate(0 0)" style="fill:none"/>
    <polygon points="99.56 14.73 99.1 14.87 99.1 15 99.56 15.48 99.56 14.73" style="fill:none"/>
    <path d="M99.58,10.16l-.44.13v.41l.45,0Z" transform="translate(0 0)" style="fill:none"/>
    <path d="M99.86,51.05h0v-.33h0Z" transform="translate(0 0)" style="fill:none"/>
    <polygon points="99.52 0.3 99.22 0.29 99.22 0.67 99.45 0.73 99.22 0.79 99.22 1.02 99.53 1.28 99.52 0.3"
             style="fill:none"/>
    <polygon points="99.55 18.38 99.07 18.61 99.06 19.04 99.55 19.14 99.55 18.38" style="fill:none"/>
    <path d="M99.84,49.41a.33.33,0,0,0-.12,0s0,0,0,0h0l-.24-.06V51l.44.06a3.91,3.91,0,0,1,0-.74h0v.17a1,1,0,0,0,0-.17h.06v-.21l-.09-.1A1.23,1.23,0,0,1,99.84,49.41Z"
          transform="translate(0 0)" style="fill:none"/>
    <path d="M99,2.73V2.32l.2.17V2.27l-.21,0V2.09l.21.05V1.77H99V3.58l.2-.07V2.67Z" transform="translate(0 0)"
          style="fill:none"/>
    <polygon points="99.55 19.66 99.06 19.83 99.05 20.52 99.54 20.62 99.55 19.66" style="fill:none"/>
    <polygon
            points="99.53 1.78 99.21 1.77 99.21 2.15 99.45 2.21 99.21 2.27 99.2 2.5 99.36 2.62 99.2 2.67 99.2 3.51 99.55 3.38 99.53 1.78"
            style="fill:none"/>
    <polygon points="99.89 47.75 99.98 47.76 99.97 46.7 99.89 46.7 99.89 47.75" style="fill:none"/>
    <path d="M99.92,45.22h0v1H100V44.94h0A2.64,2.64,0,0,1,99.92,45.22Z" transform="translate(0 0)" style="fill:none"/>
    <path d="M99.57,6.12h-.19L99.57,6l0-2-.36.1,0,3.54.43-.18Z" transform="translate(0 0)" style="fill:none"/>
    <path d="M100,44.69v-.15h0Z" transform="translate(0 0)" style="fill:none"/>
    <polygon points="99.7 19.17 99.81 19.19 99.81 18.25 99.69 18.31 99.7 19.17" style="fill:none"/>
    <polygon points="99.67 15.59 99.81 15.73 99.8 14.66 99.66 14.7 99.67 15.59" style="fill:none"/>
    <polygon points="100 33.39 99.85 33.3 99.85 33.35 100 33.39" style="fill:none"/>
    <polygon points="99.85 33.35 99.85 33.3 99.84 33.29 99.84 33.35 99.85 33.35" style="fill:none"/>
    <polygon points="99.86 35.85 99.86 35.35 99.86 35.85 99.86 35.85" style="fill:none"/>
    <polygon points="99.49 33.24 99.84 33.35 99.84 33.29 99.49 33.06 99.49 33.24" style="fill:none"/>
    <path d="M99.7,19.34l0,2.1,0,0,0,0v.31l.09-.09V19.36A.09.09,0,0,0,99.7,19.34Z" transform="translate(0 0)"
          style="fill:none"/>
    <path d="M99.78,7.42V6.13H99.6V7.51Z" transform="translate(0 0)" style="fill:none"/>
    <path d="M99.51,27.82v1.34c.09,0,.18-.23.28-.3V27.68C99.69,27.81,99.59,27.91,99.51,27.82Z"
          transform="translate(0 0)" style="fill:none"/>
    <polygon points="99 0.28 99 0.61 99.22 0.67 99.22 0.29 99 0.28" style="fill:none"/>
    <path d="M99.59,8l0,1.91c0,.08,0,.17.07.26l.11,0V8.14l-.13.26Z" transform="translate(0 0)" style="fill:none"/>
    <path d="M99.66,11.37l0-.21v.24c0,.34.14.48.16.31a.08.08,0,0,0,0,0v-.89h0A2.82,2.82,0,0,1,99.66,11.37Z"
          transform="translate(0 0)" style="fill:none"/>
    <path d="M100,7.33V6.14h-.22V7.42Z" transform="translate(0 0)" style="fill:none"/>
    <polygon points="99.65 14.1 99.8 14.25 99.8 13.18 99.64 13.22 99.65 14.1" style="fill:none"/>
    <path d="M99.73,22l0,3.74,0-.29,0,.07V21.91l-.09-.1Z" transform="translate(0 0)" style="fill:none"/>
    <polygon points="99.56 15.48 99.67 15.59 99.66 14.7 99.56 14.73 99.56 15.48" style="fill:none"/>
    <polygon points="99 0.84 99.22 1.02 99.22 0.79 99 0.84" style="fill:none"/>
    <path d="M99.83,32.81h0V31.63h0Z" transform="translate(0 0)" style="fill:none"/>
    <polygon points="99.57 14.01 99.65 14.1 99.64 13.22 99.57 13.25 99.57 14.01" style="fill:none"/>
    <path d="M99.61,10.15h0v.58h0Z" transform="translate(0 0)" style="fill:none"/>
    <polygon points="99.78 26.98 99.83 26.93 99.83 26.44 99.77 26.45 99.78 26.98" style="fill:none"/>
    <polygon points="99.86 35.35 99.86 35.32 99.86 35.32 99.86 35.35" style="fill:none"/>
    <path d="M99.7,35.36a1.39,1.39,0,0,0-.12-.57c0,.27,0,.42,0,.41s0,.12,0,.18l-.1,0v.3l.08,0c-.06,1,0,1.8.06,0h0c0,.35,0,.65,0,.86,0-.18,0-.5,0-.83l.15.05v-.53Z"
          transform="translate(0 0)" style="fill:none"/>
    <path d="M99.79,28.86l0,0V27.61l-.06.07Z" transform="translate(0 0)" style="fill:none"/>
    <path d="M99.54,21.94l.09-.08a.82.82,0,0,0-.1.21V25.7l.23.18v-.11l0-3.74h0l-.08,0v-.21l.09-.07v-.31l-.18.17Z"
          transform="translate(0 0)" style="fill:none"/>
    <path d="M99.82,31.21l0,0V30.14h0Z" transform="translate(0 0)" style="fill:none"/>
    <polygon points="99.52 27.22 99.78 26.98 99.77 26.45 99.52 26.5 99.52 27.22" style="fill:none"/>
    <path d="M99.58,19.64l0,0v1h0v.46l.06,0-.06,0v.39l.18-.09,0-2.1C99.64,19.36,99.59,19.45,99.58,19.64Z"
          transform="translate(0 0)" style="fill:none"/>
    <polygon points="99.81 29.96 99.84 29.93 99.84 29.67 99.8 29.69 99.81 29.96" style="fill:none"/>
    <polygon points="99.55 19.14 99.7 19.17 99.69 18.31 99.55 18.38 99.55 19.14" style="fill:none"/>
    <path d="M99.89,47.86s0-.07,0-.12h0V46.69l-.45,0v1l.43.05c-.09.42-.09.18-.09.59l-.34,0v.57h.46Zm0,.45s0,0,0,0h-.06S99.84,48.33,99.85,48.31Z"
          transform="translate(0 0)" style="fill:none"/>
    <path d="M100,75.21l0-.06h0Z" transform="translate(0 0)" style="fill:none"/>
    <path d="M99.88,45.21l-.38,0v-.29l.38,0v-.36a1.12,1.12,0,0,1-.43.06v.24h0a2.18,2.18,0,0,0,0,.28h0v1.05l.45,0Zm-.41-.09v-.24h0l0,.28Z"
          transform="translate(0 0)" style="fill:none"/>
    <path d="M100,76v0l0,0Z" transform="translate(0 0)" style="fill:none"/>
    <path d="M99.88,49.28s0,.08,0,.13,0,0,0,0Z" transform="translate(0 0)" style="fill:none"/>
    <path d="M99.86,51.05h0v0Z" transform="translate(0 0)" style="fill:none"/>
    <polygon points="99 42.29 99 42.72 99.45 42.86 99.45 42.62 99 42.29" style="fill:none"/>
    <path d="M99.29,84.39l0,0,.11,0-.16,0v.52h0l.24.11h-.2l-.06,0v.86l.09-.06.14,0-.23.05v.51l.32.14.22.21-.35-.17a.15.15,0,0,0-.09,0l-.1,0V87a1.07,1.07,0,0,1,.3.34l-.3-.06v.21l.36,0c.11.2.18.33.29.28v-.35a1.14,1.14,0,0,1-.18-.33l.18,0,0-1.85v-1l-.15,0a.57.57,0,0,0,.1-.28l0,0h0l0,0s0,0,0-.08h0V83l-.69.21Zm.64,1.22-.26,0,.13-.07Zm-.16,0-.2.1h-.1s.09-.1.15-.16Z"
          transform="translate(0 0)" style="fill:none"/>
    <path d="M99.28,45h0v0Z" transform="translate(0 0)" style="fill:none"/>
    <path d="M99.85,51.58l.05.05v-.14h-.05Z" transform="translate(0 0)" style="fill:none"/>
    <path d="M99.38,45.15a.14.14,0,0,0-.09-.11v.1h0V45h0v.11l-.27,0v1l.44.05V45.16Z" transform="translate(0 0)"
          style="fill:none"/>
    <polygon points="99.88 42.94 99.45 42.62 99.45 42.86 99.88 42.99 99.88 42.94" style="fill:none"/>
    <polygon points="99.97 74.88 100 74.9 99.97 74.87 99.97 74.88" style="fill:none"/>
    <path d="M99.33,45v-.05a.2.2,0,0,0,0-.09h0v.08h0v-.09h.12v-.24c-.17,0-.34,0-.43,0h0V45a1.45,1.45,0,0,1,.27.05C99.27,44.91,99.27,44.83,99.33,45Z"
          transform="translate(0 0)" style="fill:none"/>
    <polygon
            points="99.32 76.91 99.32 78.06 99.97 78.27 99.31 78.59 99.31 81.29 99.32 81.29 99.31 81.3 99.3 81.78 99.98 81.89 99.97 76.79 99.73 76.91 99.32 76.91"
            style="fill:none"/>
    <path d="M99,87.24c0-.12,0-.26,0-.41h0a.79.79,0,0,1,.23.16v-.5L99,86.36v-.07l.26.12V85.9l-.07,0,.07,0V85L99.15,85h.14v-.52l-.07,0,.07,0V83.17l-.18,0q0-.77,0-1.47l.18,0V81.3l-.19.1v-.11h.19v-2.7l-.31.16v.7l.29.09H99v.87h0c0,.22,0,.41,0,.59v.41c0,.22,0,.45,0,.69v0c0,1.74,0,3.77,0,5.4a.38.38,0,0,0,0-.12v.16h0v0l.28,0v-.21Zm0-5.95h0v0Zm0,.13v-.13h0v.13l0,0Zm0,.33c0,.44,0,.86,0,1.33L99,81.74Zm0,1.47V82.05c0,.37,0,.7.07,1h0a.77.77,0,0,0,0,.15Zm.09,1.09.13,0-.13.07Zm0,1.56-.07,0v-.07ZM99,85.79l0,0v.1l0,0A.82.82,0,0,0,99,85.79Zm0,.26v0l0,0,0,0h0Zm.06,0h0Z"
          transform="translate(0 0)" style="fill:none"/>
    <path d="M99.09,75.15l.24-.21v0l-.24.23H99v1.62a.78.78,0,0,0,.32,0V75.15Z" transform="translate(0 0)"
          style="fill:none"/>
    <path d="M100,88.84v0Z" transform="translate(0 0)" style="fill:none"/>
    <path d="M99.23,93.83l0-.11v-1h-.08l0-.14,0,0v0h0l0-.09v-.89l-.22.06v-.52l.23.11v-.47l-.23.1v-.33l.23.14h0L99,90.45v-.13l.23,0V90L99,89.84a.49.49,0,0,0,0-.17v-.12l.27.13v-.47l-.27.11v.23h0v.11s0,0,0,0c0,1.88,0,3.83,0,5.67h0v.92h0l.25.08V93.83ZM99,89.44v-.11l.2.14-.2.08Zm0,1.39.16.12L99,91Zm0,4.48h0Zm0-2.32.13.06-.17.08Zm-.1.36v0c0,.05,0,.1,0,.14Zm.19.48v-.16h0v.15Z"
          transform="translate(0 0)" style="fill:none"/>
    <path d="M99.8,92.43l.2.13v0l-.2-.13Z" transform="translate(0 0)" style="fill:none"/>
    <polygon points="99.06 74.28 99 74.31 99.33 74.5 99.33 74.46 99.06 74.28" style="fill:none"/>
    <path d="M100,87.45l0,0h0s0,0,0,0v.35l.07-.06Z" transform="translate(0 0)" style="fill:none"/>
    <polygon points="100 87.11 99.99 85.25 99.94 87.1 100 87.11" style="fill:none"/>
    <path d="M99.33,74.31v-.88l-.21-.17V72.9l0,0a.31.31,0,0,0,.07.09v0l.11.08V71.61h0a.76.76,0,0,0,0-.15h0v-.11h0v-.63h0v-.25l0,0v-.37h0a.76.76,0,0,0,0-.15h0v-.11h0V69.6l0,0v-.35h0v-.1h0v-.52h0c0-.1,0-.2,0-.31l0,0V67.11l0,0V67l0,0V65.63l0,0L99,65.56v.52h0v.06a.83.83,0,0,0,0,.47v.24h0v.44s.06.19,0,.57l0,0v.45h0v.2c0-.28,0-.55,0-.83,0,1.53-.06,1-.06,1.79,0,.43.06,1,.07,1.24v.1h0v.58l.11-.05v.13l-.11.07v.12l0,0,.21.22h0L99,71.68v.26h0V72h0v.33h0a2.3,2.3,0,0,0-.2.17c0,.66.12.78.21.67v.21h0v.66h0a.19.19,0,0,0,0,.1l-.09.06,0,0,.13-.06A.18.18,0,0,0,99.33,74.31Zm-.26-8.49v.1h0v-.1ZM99,65.57a.9.9,0,0,1,0,.23h0Zm0,.24h0v.11h0Zm.07.33v0h0v.07h0Zm0,.09h0v.26h0Zm-.07.69v-.07l.12-.13a.05.05,0,0,0,0,0,.25.25,0,0,0,.08.25v.18l-.24.12Zm0,1.62.22-.17v.22A.71.71,0,0,1,99,68.54Zm0,.78h0l.17-.12v.07l-.17,0Zm0,.54.22-.18v.25l-.13.07h0l-.09.06Zm.22.18v.09h-.11v0Zm-.14.08v0h0Zm-.09.45c0-.1,0-.23,0-.4h0l.07.07v.44Zm.12.15v-.45l.11.12v.36l-.07,0Zm.2.48v0Zm-.21.14.13-.07v.13l-.13.08Zm.13.17v.1h-.13v0Zm-.13.08v0h0ZM99,73.18l0-.06a.19.19,0,0,1,0,.08Zm.09.89h0l0,.09,0,0Z"
          transform="translate(0 0)" style="fill:none"/>
    <polygon points="99.99 83.98 100 83.98 99.99 83.98 99.99 83.98" style="fill:none"/>
    <path d="M99.87,56.3V56l-.47,0v.21A3.48,3.48,0,0,1,99.87,56.3Z" transform="translate(0 0)" style="fill:none"/>
    <path d="M99.2,56.42h0v0Z" transform="translate(0 0)" style="fill:none"/>
    <path d="M99.29,62.33a11.59,11.59,0,0,1,0-2.59.33.33,0,0,0,.12,0v.34l0-.18-.09,0a1.9,1.9,0,0,0,.11.68V58.94c0-.18,0-.34,0-.42,0,.19,0,.4,0,.62l0,0c0-.28,0-.57,0-.83l0,0v-.68l0,0a4.77,4.77,0,0,0-.08-1h0c0-.12,0-.19-.06-.23v-.07h0v-.05h0v0a.41.41,0,0,0,0-.09h.06v0h.14c0,.11,0,.23,0,.45H99.3v0l.09,0V57a.07.07,0,0,0,0-.05v-.71h0V56l-.35,0c0-1.2,0-2.13,0-3.19,0,0,0-.05,0-.28,0,0,0,.08,0-.35a1.46,1.46,0,0,0,0,.42C99,53.86,99,55,99,56h0v.34l.19,0c0-.1,0-.15,0,0a.17.17,0,0,0,0,.07h0v.35c0,.27,0,.54,0,.81h0c-.14.37-.37.17-.58.28l-.08.39a3.87,3.87,0,0,0,.49-.05v.14l.14-.06c0,.33,0,.65,0,1l-.15.08v.5h0v0l.16-.07c0,.84,0,1.69.07,2.58l-.08,0c0-.82,0-1.53-.14-1.37s0,.41,0,.61v.19c0,.36,0,.65,0,.92,0-.09,0-.22,0-.56v3c0-.28,0-.53,0-.77v.89l.37.06V62.35Zm-.06-4.67c0-.31,0-.61,0-.91v-.08h0c0,.45,0,.72,0,1ZM99,62.29c0-.22,0-.45,0-.7v0c.07-.59.09-.09.1.73Zm.08,1.28v0l.12,0v.2l-.12,0v-.15a.76.76,0,0,0,0,.15l-.09,0c0-.07,0-.15,0-.22Z"
          transform="translate(0 0)" style="fill:none"/>
    <path d="M100,87.41h0v0h0v.22h0v-.26h0v0Z" transform="translate(0 0)" style="fill:none"/>
    <path d="M99.94,44.94a2.09,2.09,0,0,0,0-.25v-.14l-.07,0v.36Z" transform="translate(0 0)" style="fill:none"/>
    <path d="M99.37,65.27l.35,0c0,.07,0,.13-.07.19h0c-.07,0-.11-.08-.16.08l-.11,0v1.44h0v0h0v1.17l.1-.07h0v.31c0-.1,0-.21,0-.31a.43.43,0,0,1,.37.46l-.52-.07v.52l.51-.35c0,.07,0,.15,0,.24h0v0l-.52.16v.35l.52-.44v.41l-.52.31V70l.22-.14-.13.23a.17.17,0,0,0,0,.07h-.1v.37l.16.16-.16.06v.46a.27.27,0,0,0,.08-.07l0-.06.17-.15v0l-.12.16.09.14-.17.1v.11l.2-.13c0,.09,0,.18,0,.28h-.16V73.1a.83.83,0,0,0,.23.1l0,.19,0-.18h0l.09,0,0,.18-.43,0h0v.88a1.09,1.09,0,0,0,.52-.26,2,2,0,0,1,0,.24l0-.25h0c0,.12,0,.24,0,.37l-.25.25-.29-.19v0l.27.16-.27.26v0l.29-.27.25.15c0,.11,0,.22,0,.33h-.53v1.66c.36,0,.43-.42.63-.78h-.51l.53-.82v-.06h-.11l0-.31h0c0,.27,0,.2,0,0l0,0h0l0,0c0-.13,0-.3,0-.47l0,0v0l0,0a2.3,2.3,0,0,1,0-.35h0V70.13h0c0-.15,0-.33,0-.51l0,0v-.1l0,0c0-.15,0-.3,0-.43l0,0v0h0v-.24l0,0v-.75a2.45,2.45,0,0,1,0-.27h0l0-3.89-.16,0,.1-.07.06.07V62.44l-.55-.09Zm.54,9.57h0v0Zm0,0-.24-.15.24-.22Zm0-1.36h-.06v-.06Zm-.13-.22v0l0,0Zm0-1.62h0s0,0,0-.08Zm.13-1.48h-.24l0-.32.26-.16C99.88,69.85,99.88,70,99.88,70.13Zm-.25-2.07.07,0v.06Zm.24,0-.17,0V68l.17-.14Zm-.42-1,0-.11v.09Zm.13-.06-.08,0V67Z"
          transform="translate(0 0)" style="fill:none"/>
    <path d="M99.38,24.45c-.22.22-.32.19-.29.91l.43.34V22.07l0,0-.3.1.33-.27v-.3l-.5.48v.77l.14,0,.17.08c0,.14,0,.26,0,.41l-.27.26v.77l.15,0Zm0-1.24,0,0,0,0Zm-.26.55.14-.12v.21Zm.23.15,0-.36.07-.06,0,.47h0Z"
          transform="translate(0 0)" style="fill:none"/>
    <path d="M99.73,61.68l0-.46-.24.32.11.11-.12.17a.26.26,0,0,0,.41.23v-.37C99.86,61.76,99.8,61.79,99.73,61.68Z"
          transform="translate(0 0)" style="fill:none"/>
    <path d="M99.39,29.91c0-.28,0-.54,0-.79a.12.12,0,0,0,.12,0V27.82l0,0c0-.07-.08-.09-.12-.08v-.35l.15-.14v-.73l-.18,0c0-.24,0-.49,0-.77v.77l-.29.05c0-.36,0-.72,0-1.06V27.7l.34-.32v.34c-.09.05-.17.27-.25.33H99v0a2,2,0,0,0-.48-.1l.08.86c.13.16.28,0,.41.15v.23l.09-.08a1.44,1.44,0,0,1,.08.33c.06-.17.13-.47.16-.4h0c0,.32,0,.62,0,.92l-.33.18v.58h.08l.41.28h0l0,0V29.85Zm0,0v-.87h0c0,.28,0,.56,0,.84Z"
          transform="translate(0 0)" style="fill:none"/>
    <path d="M99,23.63V22.9h0v-.77l0,0v-.38l0,0v-.44l0,0V22.4h0v.24h0v0h0v1h0v.25h0v.24h0v.26h0v-.77Z"
          transform="translate(0 0)" style="fill:none"/>
    <path d="M99.83,32.81V31.63h-.25l-.07,0v1.15A.74.74,0,0,0,99.83,32.81Z" transform="translate(0 0)"
          style="fill:none"/>
    <path d="M99.65,31.1l.17.11V30.14h-.27L99.8,30v-.27l-.3.16V31l.14.15Z" transform="translate(0 0)"
          style="fill:none"/>
    <path d="M99.46,33.24h0v-.18L99.41,33a1.73,1.73,0,0,1,0-.32l.1,0V31.58l-.5-.33v.36h0a1.2,1.2,0,0,0,.31,1c0,.1,0,.2,0,.3l-.3-.2v.37l.3.09c0,.48,0,1,0,1.88,0-.64,0-1.25,0-1.86h0c0,.49,0,1,0,1.55,0-.24,0-.5,0-.83,0,.16,0,.33,0,.55v-.27A8.76,8.76,0,0,0,99.46,33.24Zm-.1-.27c0-.1,0-.2,0-.3l0,0V33Z"
          transform="translate(0 0)" style="fill:none"/>
    <polygon points="99.54 20.62 99.05 20.79 99.05 20.83 99.54 21.08 99.54 20.62" style="fill:none"/>
    <path d="M99.3,42.09l0,.15a.76.76,0,0,0,0-.15l.13,0v-.22H99v.26h0v.18h0v-.18Z" transform="translate(0 0)"
          style="fill:none"/>
    <path d="M99.86,55.88V56h0v-.3C99.86,55.61,99.88,55.42,99.86,55.88Z" transform="translate(0 0)" style="fill:none"/>
    <path d="M99.39,58.94V61c0-.1,0-.22,0-.35a.61.61,0,0,0,.23.29l0-.35h0V61l.2-.1v-2l-.52.26C99.4,59.05,99.39,59,99.39,58.94Zm.12.92-.07.47h0v-.53Z"
          transform="translate(0 0)" style="fill:none"/>
    <path d="M99.39,58.32a.13.13,0,0,0,.1,0c.12-.09.28.05.43.13v-1l-.52.26Z" transform="translate(0 0)"
          style="fill:none"/>
    <polygon points="99.54 21.53 99.54 21.14 99.04 21.31 99.04 21.75 99.54 21.53" style="fill:none"/>
    <path d="M99.84,56.68h-.42c0-.15,0-.31,0-.41v.67s0-.12,0-.19l.42.06a2.86,2.86,0,0,0,0,.58l0-.32a.34.34,0,0,0,0,.14v-.9h0Z"
          transform="translate(0 0)" style="fill:none"/>
    <polygon points="99.93 43.01 99.93 42.98 99.88 42.94 99.88 42.99 99.93 43.01" style="fill:none"/>
    <polygon points="100 43.03 99.93 42.98 99.93 43.01 100 43.03" style="fill:none"/>
    <path d="M99.49,34.22v0Z" transform="translate(0 0)" style="fill:none"/>
    <path d="M99.88,42.73V42.5a.45.45,0,0,0,0,.23Z" transform="translate(0 0)" style="fill:none"/>
    <path d="M99.52,41.45c.08.16.23.12.35.2v-.38l-.23-.18,0-.31-.06.43-.09-.06v.23l.06,0Z" transform="translate(0 0)"
          style="fill:none"/>
    <path d="M99.88,42v-.17h-.41v.22Z" transform="translate(0 0)" style="fill:none"/>
    <polygon points="99.95 69.07 100 69.03 99.95 69.05 99.95 69.07" style="fill:none"/>
    <path d="M100,68.09v.75l0,.07c0-.07,0-.14,0-.21h0Q99.95,68.39,100,68.09Z" transform="translate(0 0)"
          style="fill:none"/>
    <path d="M99.39,41.09v0h0v-.25a1.85,1.85,0,0,0,0,.23l-.17-.12,0-.52v.29h0a2.59,2.59,0,0,0,0-.63h-.1a1,1,0,0,1,0,.17v-.17h0a1.83,1.83,0,0,0,.09.65v-.09l0,.29-.06,0v-.06s0,0,0,.06l-.1-.08c0-.18,0-.47,0-.72h0a.57.57,0,0,1,0-.13l0,0v0l0,.06h0l0,.09v-.06h0v0s0,0,0,0a.23.23,0,0,0,0-.1s0-.06,0-.08V40c0,.06,0,.16-.05,0,0,.21,0,1,.05.7s0-.15,0,.06c0-.07,0-.14,0-.2v.08c0,.07,0,.14,0,.22a.13.13,0,0,0,0-.06v.36l.1,0c0,.21,0,.3.05,0l.17,0v0a.63.63,0,0,1,0,.33.72.72,0,0,0,0-.33l.07,0v-.23ZM99,40.62h0a.27.27,0,0,1,0,.09Zm.38.73v0Z"
          transform="translate(0 0)" style="fill:none"/>
    <path d="M99.87,39.66v-3.3c-.08.36-.09.21-.09.46l-.29.07v.3l.15.06-.15.1v2.24l.38,0Z" transform="translate(0 0)"
          style="fill:none"/>
    <path d="M99.87,40.07V40a4,4,0,0,0-.4-.14v.22Z" transform="translate(0 0)" style="fill:none"/>
    <path d="M99.36,40.81v0h0Z" transform="translate(0 0)" style="fill:none"/>
    <path d="M99.21,40.08h.25v-.22c-.18-.05-.28-.06-.33,0s0,0,0,0A.83.83,0,0,1,99.21,40.08Z" transform="translate(0 0)"
          style="fill:none"/>
    <path d="M99.13,39.85a.36.36,0,0,0,0,.23h0C99.12,40,99.13,39.88,99.13,39.85Z" transform="translate(0 0)"
          style="fill:none"/>
    <path d="M97.76,18.6a.45.45,0,0,0,0-.12h0Z" transform="translate(0 0)" style="fill:none"/>
    <polygon points="99 35.52 99.48 35.71 99.48 35.41 99 35.52" style="fill:none"/>
    <path d="M98.77,60.07c-.22-.6.17-.41.22-.67s-.11-.34-.21-.09a.45.45,0,0,0-.67.12s-.06,0-.08,0l0,.17.3.58-.13.09L98,59.9l0,0c-.13.66.29.26.55.7l.11-.82Zm-.48.08-.17-.56C98.45,59.62,98.33,59.75,98.29,60.15Z"
          transform="translate(0 0)" style="fill:none"/>
    <path d="M95.43,62.63l.29.11,0,.22c.27-.14.28-.14.23-.63l-.05.35,0,0c0-.2-.07-.4-.1-.6C95.55,62.28,95.66,62.61,95.43,62.63Z"
          transform="translate(0 0)" style="fill:none"/>
    <path d="M94.85,60.51l0-.11c-.24-.12-.59,0-.43-.94l-.1.09c0,.37-.11.89.18,1.05l.14-.21Z" transform="translate(0 0)"
          style="fill:none"/>
    <path d="M97,59.73l.24-.16,0-.17-.21.07L97,59.2Z" transform="translate(0 0)" style="fill:none"/>
    <path d="M95.71,62.1h0v0h0Z" transform="translate(0 0)" style="fill:none"/>
    <path d="M95.8,60.51l.26-.13C96,60.24,95.75,60.05,95.8,60.51Z" transform="translate(0 0)" style="fill:none"/>
    <path d="M96.47,60.36a1.57,1.57,0,0,0-.14-.85C96.41,59.88,95.85,60.39,96.47,60.36Z" transform="translate(0 0)"
          style="fill:none"/>
    <path d="M93.83,61.27l-.17.35a2.67,2.67,0,0,1,.73.38v-.09l.1.31.2-.53,0,.3h0l.11-.62c-.22-.23-.39.09-.58-.22-.09-.14-.22.06-.29.38-.14-.55-.3-.57-.44-.16l.21-.14Z"
          transform="translate(0 0)" style="fill:none"/>
    <polygon points="93.59 61.36 93.59 61.37 93.6 61.36 93.59 61.36" style="fill:none"/>
    <path d="M96,61.39c-.24,0-.4-.26-.62,0,0,0-.12,0-.18-.07,0,.24.13,1,.35.7.08-.15.14-.14.19,0l.28-.2L96,62l-.1.24c.3-.13.16-.64.39-1l-.34.22Z"
          transform="translate(0 0)" style="fill:none"/>
    <path d="M90.22,62c-.26-.35-.35-.31-.51.17C90,62.4,90.06,62.24,90.22,62Z" transform="translate(0 0)"
          style="fill:none"/>
    <path d="M94.36,62.45c-.12,0-.27.08-.24-.35l-.16.15C94,62.69,94.24,63,94.36,62.45Z" transform="translate(0 0)"
          style="fill:none"/>
    <path d="M92.93,62.12l.07.31.32-.13v0Z" transform="translate(0 0)" style="fill:none"/>
    <path d="M93.61,61.75c0-.06,0-.24,0-.39,0,.24-.23-.08-.39-.17l-.23.42.08.18Z" transform="translate(0 0)"
          style="fill:none"/>
    <polygon points="99 32.73 99 32.73 99 32.37 99 32.73" style="fill:none"/>
    <path d="M98.93,52.16c0-.15,0-.14,0,.06,0-.08,0-.15,0-.22a1.71,1.71,0,0,1,0,.32,2.83,2.83,0,0,0,0-.43.86.86,0,0,0,0,.23V52l0,.32,0-.54v.3h0a1.73,1.73,0,0,0-.07-.83c0-.11,0,0,0,.15v.08c0-.39,0-.37,0,0h0v0h0v0h0a.48.48,0,0,1,0-.12l0,0a.09.09,0,0,1,0,0v0c-.2,0-.93.12-.93.12h0l.88,0C98.87,51.69,98.89,52.45,98.93,52.16Zm-.05-.69h0C98.91,51.52,98.9,51.55,98.88,51.47Z"
          transform="translate(0 0)" style="fill:none"/>
    <polygon points="99 31.25 99 31.25 99 30.89 99 31.25" style="fill:none"/>
    <path d="M99.38,52.54l0-.46c0,.87,0,1.66,0,2.45C99.37,53.88,99.37,53.23,99.38,52.54Z" transform="translate(0 0)"
          style="fill:none"/>
    <path d="M99.21,53.42l.05.21a1.64,1.64,0,0,0-.05-.37Z" transform="translate(0 0)" style="fill:none"/>
    <path d="M89,58.5h-.38l.21.41.18-.32Z" transform="translate(0 0)" style="fill:none"/>
    <path d="M98.44,54.59a10.84,10.84,0,0,0,0-1.12c0,.16,0,1.06,0,.67a8.64,8.64,0,0,0,0,1A2.3,2.3,0,0,0,98.44,54.59Z"
          transform="translate(0 0)" style="fill:none"/>
    <path d="M99.81,17.1c.06.2,0-.14,0,.19C99.91,17.26,99.82,16.31,99.81,17.1Z" transform="translate(0 0)"
          style="fill:none"/>
    <path d="M94.66,59.84a2,2,0,0,0,.35-.73l-.48-.06.09.29-.17.13Z" transform="translate(0 0)" style="fill:none"/>
    <path d="M98.28,52.51c0-.13,0-.26,0-.39l-.06.17-.06-.16a3,3,0,0,1,.07.61.87.87,0,0,0,0-.28Z"
          transform="translate(0 0)" style="fill:none"/>
    <path d="M98.37,52.57a7.64,7.64,0,0,0,0,.83A3.71,3.71,0,0,0,98.37,52.57Z" transform="translate(0 0)"
          style="fill:none"/>
    <path d="M99.31,52.45c0,.13,0,.25,0,.37,0-.2,0-.4,0-.59a3.17,3.17,0,0,1,0,.52.65.65,0,0,1,0,.34A1.77,1.77,0,0,0,99.31,52.45Z"
          transform="translate(0 0)" style="fill:none"/>
    <path d="M98.43,52.13c0-.34-.05-.3-.07.17C98.41,52.57,98.41,52.28,98.43,52.13Z" transform="translate(0 0)"
          style="fill:none"/>
    <path d="M99,46.59v1h0l.43,0v-1Z" transform="translate(0 0)" style="fill:none"/>
    <path d="M99,4.21v.85h0v.17h0v1h0V6.5h0v0h0v.21h0v1l.16-.07,0-3.54Z" transform="translate(0 0)" style="fill:none"/>
    <polygon points="99 48.23 99 48.86 99.43 48.86 99.43 48.29 99 48.23" style="fill:none"/>
    <polygon points="99 37.01 99.48 37.19 99.48 36.89 99 37.01" style="fill:none"/>
    <path d="M98.84,86c-.15,3.39,0,6.14,0,9.3h.08C98.84,92,98.84,89.21,98.84,86Z" transform="translate(0 0)"
          style="fill:none"/>
    <path d="M99,96.78v1.74a.57.57,0,0,1,.24-.21V96.93Z" transform="translate(0 0)" style="fill:none"/>
    <path d="M99.29,37.48l-.29.13,0,0,0,0V38h0v.36c-.07-.23-.32-.48-.37,0,.18.16.33-.09.28.19a.1.1,0,0,0,.09,0v.92h0v.12l.47,0V37.35Zm.11.39-.15,0h0l0,0,0,0Z"
          transform="translate(0 0)" style="fill:none"/>
    <path d="M99.24,98.31a4,4,0,0,1,.41-.23l0-.88-.43-.27Z" transform="translate(0 0)" style="fill:none"/>
    <polygon points="99 71.55 99 71.55 99 71.46 99 71.55" style="fill:none"/>
    <path d="M99,76.91v1.34c0,.12.06,0,.22-.22l.1,0V76.91Z" transform="translate(0 0)" style="fill:none"/>
    <path d="M89.47,62.34l-.23,0v-.07l.26-.23,0-.09-.38.17L88.73,62c.17.18.37.27.43.62l.32-.21Z"
          transform="translate(0 0)" style="fill:none"/>
    <path d="M98.92,69.5v0h0Z" transform="translate(0 0)" style="fill:none"/>
    <path d="M99.19,56.57v-.15h0Z" transform="translate(0 0)" style="fill:none"/>
    <path d="M99.16,49.22l-.06,0v0H99V51l.42,0v-1.7Z" transform="translate(0 0)" style="fill:none"/>
    <path d="M98,95.31h0c0-.32,0-.63,0-1C98,94.67,98,95,98,95.31Z" transform="translate(0 0)" style="fill:none"/>
    <path d="M90.27,64.47a1.85,1.85,0,0,0,.23-1.13c-.1.3-.18.55-.26.81L90.17,64c0,.43,0,.75.24,1C90.52,64.79,90.42,64.69,90.27,64.47Z"
          transform="translate(0 0)" style="fill:none"/>
    <path d="M96.68,95.31h.06c0-.81,0-2.29,0-3A27.94,27.94,0,0,0,96.68,95.31Z" transform="translate(0 0)"
          style="fill:none"/>
    <path d="M96.32,89.51s0-1.32,0-1.77C96.2,88.19,96.32,91.36,96.32,89.51Z" transform="translate(0 0)"
          style="fill:none"/>
    <path d="M95.92,67h0l0,.15.25-.13c0-.26,0-.3-.19-.33v-.35l-.13.32,0-.27h0l0,.31c-.26-.12-.38-.16-.37.19l.09-.2.09.52L95.8,67l.07.22Z"
          transform="translate(0 0)" style="fill:none"/>
    <path d="M95.56,63.39l-.31-.25,0,.16.31.21Z" transform="translate(0 0)" style="fill:none"/>
    <path d="M90.17,62.69l-.37-.25c.18.15,0,.86.33.83l-.1-.36Z" transform="translate(0 0)" style="fill:none"/>
    <path d="M96.55,66.56l.07-.38-.05,0-.13.29,0,0,.08-.34c-.15.16-.16.34,0,.82C96.44,66.71,96.71,66.85,96.55,66.56Z"
          transform="translate(0 0)" style="fill:none"/>
    <path d="M86.19,94.59a1.82,1.82,0,0,1-.11.43l0,.29C86.22,95.17,86.21,94.88,86.19,94.59Z" transform="translate(0 0)"
          style="fill:none"/>
    <path d="M96.4,93v.45a15.79,15.79,0,0,0,0-1.68c0,.3,0,.55-.06.85l0-.49v.64c0-.43,0-.84,0-1-.08,1.17,0,2.35-.07,3.52h.08A22.67,22.67,0,0,1,96.4,93Z"
          transform="translate(0 0)" style="fill:none"/>
    <path d="M88,91.76c-.28.1-.24-.66-.39,0,0,.11-.08.06-.13.08,0,.74.15,1,.27.79S88,92.6,88,91.76Z"
          transform="translate(0 0)" style="fill:none"/>
    <path d="M86.17,94a2.4,2.4,0,0,0,0,.59A1.47,1.47,0,0,0,86.17,94Z" transform="translate(0 0)" style="fill:none"/>
    <path d="M95,94.06v.67a7.29,7.29,0,0,0,.07-1.66c0,.26,0,.52,0,.89,0-1-.11-.5-.09.2Z" transform="translate(0 0)"
          style="fill:none"/>
    <path d="M86,94.73l.08.29h0l0-.14Z" transform="translate(0 0)" style="fill:none"/>
    <path d="M99,88.15v0h0v.18h0v0h0v0a.43.43,0,0,1,0,0h0v.49l.14,0a.86.86,0,0,0,.13.2v-.62C99.06,88.13,99,87.84,99,88.15Z"
          transform="translate(0 0)" style="fill:none"/>
    <path d="M98.07,8.48s0,0,0,0c0,.29,0,0,.07,0C98.15,8,98.07,7.92,98.07,8.48Z" transform="translate(0 0)"
          style="fill:none"/>
    <path d="M96.64,10.41l-.08-.77,0-.09.13.64a3.7,3.7,0,0,0-.14-1.62A3.78,3.78,0,0,0,96.64,10.41Z"
          transform="translate(0 0)" style="fill:none"/>
    <path d="M97.84,7.21a.53.53,0,0,0,0-.13h0Z" transform="translate(0 0)" style="fill:none"/>
    <path d="M95.68,19.41c-.24-.66-.38,1.08-.35,1.56.37-.52.08.68.8-.12v-.12l.33.5c-.23-.71-.09-1.88-.39-2.18a2,2,0,0,1,.08.72l-.28-.46C95.82,19.73,95.76,19.74,95.68,19.41Z"
          transform="translate(0 0)" style="fill:none"/>
    <path d="M95.59,18.08c.22.07.12.67.28,1.18l.1-1.34,0,0c0,.26,0,.52,0,.78,0-1.09,0-1.1-.23-1.42l0,.51Z"
          transform="translate(0 0)" style="fill:none"/>
    <polygon points="99 20.81 99.05 20.83 99.05 20.79 99 20.81" style="fill:none"/>
    <path d="M97.77,18.47h0a1.7,1.7,0,0,1,0,.45,2.17,2.17,0,0,0,0-.58s0,.08,0,.12Z" transform="translate(0 0)"
          style="fill:none"/>
    <path d="M95.87,19.31v0Z" transform="translate(0 0)" style="fill:none"/>
    <path d="M96,9.94c.2-.06.22-.14.19-.73l-.25-.29,0,.34,0,0,0-.58-.07.48-.16-.39L95.55,10l-.09-.45c0,.52,0,.84.37.42,0,.14,0,.42,0,.69h0l0-.61c0,.24.08.47.13.72Z"
          transform="translate(0 0)" style="fill:none"/>
    <path d="M95,8.79v.35l0-.43C95.06,8.77,95.05,8.79,95,8.79Z" transform="translate(0 0)" style="fill:none"/>
    <path d="M90.43,14a2.23,2.23,0,0,0,.14-1.33A6.49,6.49,0,0,0,90.33,15c.11-.84.22,1.14.33,1.51A8.56,8.56,0,0,0,90.43,14Z"
          transform="translate(0 0)" style="fill:none"/>
    <path d="M95,7.84a4,4,0,0,0,0,.95l0-.6Z" transform="translate(0 0)" style="fill:none"/>
    <path d="M97.84,7s0,.08,0,.13h0a1.7,1.7,0,0,1,0,.45A2.21,2.21,0,0,0,97.84,7Z" transform="translate(0 0)"
          style="fill:none"/>
    <path d="M95,7.67v.52h0V7.67Z" transform="translate(0 0)" style="fill:none"/>
    <polygon points="99 14.9 99.1 15 99.1 14.87 99 14.9" style="fill:none"/>
    <polygon points="99.62 1.36 99.77 1.49 99.76 0.3 99.62 0.3 99.62 1.36" style="fill:none"/>
    <path d="M99,8.15V7.76h0Z" transform="translate(0 0)" style="fill:none"/>
    <path d="M99,10.33v.36h.13v-.41Z" transform="translate(0 0)" style="fill:none"/>
    <polygon points="99.61 3.36 99.77 3.3 99.77 1.78 99.61 1.78 99.61 3.36" style="fill:none"/>
    <polygon points="99 19.85 99 20.29 99 20.29 99 20.51 99.05 20.52 99.06 19.83 99 19.85" style="fill:none"/>
    <polygon points="99.6 6.02 99.78 5.94 99.77 3.98 99.61 4.03 99.6 6.02" style="fill:none"/>
    <path d="M99,6.66V6.28h0Z" transform="translate(0 0)" style="fill:none"/>
    <path d="M98,19.87s0,0,0,0c0,.29,0,0,.06,0C98.07,19.42,98,19.31,98,19.87Z" transform="translate(0 0)"
          style="fill:none"/>
    <path d="M99.45,88.65a1,1,0,0,1-.17-.21v.62a.58.58,0,0,0,.12.1l-.12,0v.47l.51.26c0,.12,0,.25,0,.39L99.27,90v.35l.44.1v.05l-.34.14-.09-.05h0l.08.06-.08,0v.47l.07,0c-.06.13,0,.22.07.27l-.15,0v.89c0-.07,0-.15.07-.23h.09l.19.13-.29.14a.88.88,0,0,0,0-.14v.15l0,0v0h0v0h0v1.16h0a.75.75,0,0,1,0,.15h0v2.51l.44.14,0-1.16h0l0-1.49h-.17l.17-.1h0l-.23.12h-.19v-.15h.42l0-.89-.11.06a1,1,0,0,0-.36-.15v-.21l.31-.17.17.11v0l-.16-.09.16-.09.06-2V90h0l0-1.12-.18-.06Zm-.16,4h0v-.18h0Zm.51-.49-.18.09-.18-.11Zm-.13-1.45h0l0,0Z"
          transform="translate(0 0)" style="fill:none"/>
    <path d="M99.28,52.21v0h0Z" transform="translate(0 0)" style="fill:none"/>
    <path d="M95.7,16.1l-.31.48,0,.36C95.55,16.66,95.78,16.41,95.7,16.1Z" transform="translate(0 0)" style="fill:none"/>
    <polygon points="99 13.42 99.11 13.53 99.11 13.39 99 13.42" style="fill:none"/>
    <polygon points="99 18.65 99 19.03 99.06 19.04 99.07 18.61 99 18.65" style="fill:none"/>
    <path d="M99,98.54v0Z" transform="translate(0 0)" style="fill:none"/>
    <path d="M87.83,29.8c0-.5-.51-.62-.52-.05,0,0,.11,0,.13,0C87.57,30.11,87.62,29.72,87.83,29.8Z"
          transform="translate(0 0)" style="fill:none"/>
    <path d="M98.27,37.47l0,.41a2.63,2.63,0,0,0,0-.41Z" transform="translate(0 0)" style="fill:none"/>
    <path d="M98.94,40.85v.31A.27.27,0,0,0,98.94,40.85Z" transform="translate(0 0)" style="fill:none"/>
    <path d="M86,28.51c0,.11,0,.22,0,.29l.07-.21Z" transform="translate(0 0)" style="fill:none"/>
    <path d="M98.51,40.74c0-.35-.05-.31-.07.17C98.49,41.18,98.49,40.89,98.51,40.74Z" transform="translate(0 0)"
          style="fill:none"/>
    <path d="M85.84,28.48l.11-.06,0-.07h0Z" transform="translate(0 0)" style="fill:none"/>
    <path d="M85.86,28.22l.06.13.11.16C86,28.37,86,28.25,85.86,28.22Z" transform="translate(0 0)" style="fill:none"/>
    <path d="M98.52,43.2a11.05,11.05,0,0,0,0-1.13c0,.16,0,1.06,0,.67a8.75,8.75,0,0,0,0,1A2.3,2.3,0,0,0,98.52,43.2Z"
          transform="translate(0 0)" style="fill:none"/>
    <path d="M99,48v0Z" transform="translate(0 0)" style="fill:none"/>
    <path d="M98.19,48.86l0,.41a2.54,2.54,0,0,0,0-.41Z" transform="translate(0 0)" style="fill:none"/>
    <path d="M99,52.55a.27.27,0,0,0,0-.31Z" transform="translate(0 0)" style="fill:none"/>
    <path d="M98.45,41.17a7.3,7.3,0,0,0,0,.83A3.78,3.78,0,0,0,98.45,41.17Z" transform="translate(0 0)"
          style="fill:none"/>
    <path d="M88.8,27h.38A2.68,2.68,0,0,0,89,26Z" transform="translate(0 0)" style="fill:none"/>
    <path d="M98.36,41.12c0-.13.06-.26,0-.39l-.06.17-.06-.17a3.21,3.21,0,0,1,.07.62.92.92,0,0,0,.05-.28Z"
          transform="translate(0 0)" style="fill:none"/>
    <path d="M89.4,18.62l.23.11v-.15l-.32-.48a3,3,0,0,1-.43,1.39l.36-.38.39.38C89.73,19.17,89.33,18.94,89.4,18.62Z"
          transform="translate(0 0)" style="fill:none"/>
    <path d="M89.88,19.09c.16,1.07.24,1.16.5.39C90.22,19.09,90.19,18.51,89.88,19.09Z" transform="translate(0 0)"
          style="fill:none"/>
    <path d="M93.75,20.92c0-.32,0-.73,0-.86l-.56-.1c-.16.32.08,1.08.15,1.35C93.54,21.07,93.75,20.39,93.75,20.92Z"
          transform="translate(0 0)" style="fill:none"/>
    <path d="M94.73,21.42c.2-.71.35,0,.58-.49,0-.51-.07-.92-.1-1.34,0-.94,0-1.65,0-2.68a24.33,24.33,0,0,0,0,2.68c0,.22,0,.43,0,.61L94.91,19l-.1.71,0-.21a2.59,2.59,0,0,1-.73.85,3.79,3.79,0,0,1,.16.91L94,20.93c.13.85.3.95.45-.36C94.52,21.29,94.65,21.74,94.73,21.42Z"
          transform="translate(0 0)" style="fill:none"/>
    <path d="M94,20.93Z" transform="translate(0 0)" style="fill:none"/>
    <path d="M90.33,17.94a2.4,2.4,0,0,1,0-1.31c-.34,0-.15,1.54-.33,1.87Z" transform="translate(0 0)" style="fill:none"/>
    <path d="M94.52,18.49c-.07-1.55-.63.07-.24.79C94.25,18.31,94.4,18.58,94.52,18.49Z" transform="translate(0 0)"
          style="fill:none"/>
    <path d="M93.17,18.53l-.08.7.39-.3v-.12Z" transform="translate(0 0)" style="fill:none"/>
    <path d="M96.49,25.08a7.12,7.12,0,0,0,.14-1.91C95.9,23.38,96.67,24.37,96.49,25.08Z" transform="translate(0 0)"
          style="fill:none"/>
    <path d="M95.17,26a8.31,8.31,0,0,0-.34-1.65c-.07.25-.13.48-.22.83l.17.29c0,.1,0,.26-.09.66Z"
          transform="translate(0 0)" style="fill:none"/>
    <path d="M95,23.08l0-.23-.18.27-.14-.49a4.88,4.88,0,0,0-.08,2.57C94.45,23.1,94.8,23.36,95,23.08Z"
          transform="translate(0 0)" style="fill:none"/>
    <path d="M96,22.84c0,.88.08.59.16.56a1.79,1.79,0,0,0,.1-.27Z" transform="translate(0 0)" style="fill:none"/>
    <path d="M98,23.29a3.89,3.89,0,0,0,0,.91l.12-.76a1.45,1.45,0,0,1,.11.29l-.21.94L98,24.59v1.18c0-.21,0-.35,0-.45s.06-.1.07-.06c.11.43.24.5.38.42s.2.25.29-.15c.1.57.15,0,.21-.2,0-.57-.44-.15-.22-1.5l-.11.57c0-.66-.07-1.21-.11-1.85C98.39,23.49,98.16,22.7,98,23.29Zm.21,1.61-.07-.11c0-.36.09-.7.13-1C98.39,24.22,98.36,24.79,98.21,24.9Z"
          transform="translate(0 0)" style="fill:none"/>
    <path d="M99,25.21v.3C99,25.41,99,25.31,99,25.21Z" transform="translate(0 0)" style="fill:none"/>
    <path d="M100,62.45v.41h0V62l-.07,0v.39Z" transform="translate(0 0)"/>
    <path d="M100,61.57v-.74l-.07,0v.81Z" transform="translate(0 0)"/>
    <path d="M99.72,60.61h0l0,.35a.61.61,0,0,1-.23-.29c0,.13,0,.25,0,.35v1.34l.55.09v-.39a.26.26,0,0,1-.41-.23l.12-.17-.11-.11.24-.32,0,.46c.07.11.13.08.2,0v-.81l-.2.1Z"
          transform="translate(0 0)"/>
    <path d="M99.38,60.61a1.9,1.9,0,0,1-.11-.68l.09,0,0,.18v-.34a.33.33,0,0,1-.12,0,11.59,11.59,0,0,0,0,2.59l.09,0V60.61Z"
          transform="translate(0 0)"/>
    <path d="M99.07,65.92v-.1h0v.1Z" transform="translate(0 0)"/>
    <path d="M100,57.35l-.07-.14v.17Z" transform="translate(0 0)"/>
    <path d="M99.85,57.39a2.86,2.86,0,0,1,0-.58l-.42-.06c0,.07,0,.14,0,.19v.7l.52-.26v-.17a.34.34,0,0,1,0-.14Z"
          transform="translate(0 0)"/>
    <path d="M99.39,56.74l-.09,0v0h0a4.77,4.77,0,0,1,.08,1l0,0v-.7a.07.07,0,0,1,0,.05Z" transform="translate(0 0)"/>
    <path d="M99.39,56.23h-.14v.16h0v.07c.05,0,.06.11.06.23h.08C99.38,56.46,99.38,56.34,99.39,56.23Z"
          transform="translate(0 0)"/>
    <polygon points="100 57.37 100 57.81 100 57.81 100 57.37 100 57.37"/>
    <path d="M99.19,56.22a.41.41,0,0,1,0,.09v-.08h0Z" transform="translate(0 0)"/>
    <path d="M99.29,59.17l0,0c0-.22,0-.43,0-.62,0,.08,0,.24,0,.42v-.62l0,0C99.33,58.6,99.31,58.89,99.29,59.17Z"
          transform="translate(0 0)"/>
    <path d="M100,58.82v.24h0v-.59l-.08,0v.43Z" transform="translate(0 0)"/>
    <path d="M99.49,58.3a.13.13,0,0,1-.1,0v.62c0,.06,0,.11,0,.18l.52-.26v-.43C99.77,58.35,99.61,58.21,99.49,58.3Z"
          transform="translate(0 0)"/>
    <path d="M99.26,56.67v.08c0,.3,0,.6,0,.91h0c0-.27,0-.54,0-1Z" transform="translate(0 0)"/>
    <path d="M99.24,56.22h0v.09h0v-.11Z" transform="translate(0 0)"/>
    <path d="M99.25,37.84h0l.15,0-.14-.09,0,0Z" transform="translate(0 0)"/>
    <path d="M100,38.48v.28h0v.11h0v-.46a.13.13,0,0,1,0,.06Z" transform="translate(0 0)"/>
    <path d="M100,51.71l0,0C100,51.85,100,52,100,51.71Z" transform="translate(0 0)"/>
    <path d="M100,38.13v0Z" transform="translate(0 0)"/>
    <polygon points="100 39.21 100 39.34 100 39.34 100 38.88 100 38.88 100 39.21"/>
    <path d="M99.85,48.31s0,0,0,0h.06S99.86,48.3,99.85,48.31Z" transform="translate(0 0)"/>
    <path d="M100,47.93v-.17h0V48S100,48,100,47.93Z" transform="translate(0 0)"/>
    <path d="M99.89,47.86v0c0-.2,0,.09.08.08v-.2h-.09Z" transform="translate(0 0)"/>
    <path d="M99.89,47.86v-.11h0S99.89,47.83,99.89,47.86Z" transform="translate(0 0)"/>
    <polygon points="100 37.9 100 37.9 100 37.39 100 37.39 100 37.73 100 37.9"/>
    <path d="M100,74a2.3,2.3,0,0,0,0,.35l0,0V74Z" transform="translate(0 0)"/>
    <path d="M100,74.28V74h0v.33Z" transform="translate(0 0)"/>
    <path d="M99.12,74.07h0v.11l0,0Z" transform="translate(0 0)"/>
    <path d="M100,73.15h0v.08h0v.17h0v-.26Z" transform="translate(0 0)"/>
    <path d="M100,73.46h0v0h0Z" transform="translate(0 0)"/>
    <path d="M99.5,71.61c0-.1,0-.19,0-.28l-.2.13v.15Z" transform="translate(0 0)"/>
    <path d="M99.33,71.61h0v-.15h0A.76.76,0,0,1,99.33,71.61Z" transform="translate(0 0)"/>
    <path d="M99.07,66.14v0h0v.07h0Z" transform="translate(0 0)"/>
    <path d="M100,89v0Z" transform="translate(0 0)"/>
    <path d="M99,68.54a.71.71,0,0,0,.22,0v-.22Z" transform="translate(0 0)"/>
    <polygon points="99.95 69.5 100 69.47 100 69.03 99.95 69.07 99.95 69.5"/>
    <path d="M99.93,69.09c0,.13,0,.28,0,.43l0,0v-.43Z" transform="translate(0 0)"/>
    <path d="M100,73.05v.1h0v-.1Z" transform="translate(0 0)"/>
    <path d="M100,68.69h0v-.92l0,0v.28Q100,68.39,100,68.69Z" transform="translate(0 0)"/>
    <path d="M100,68.09v-.28h0A2.45,2.45,0,0,0,100,68.09Z" transform="translate(0 0)"/>
    <path d="M100,69.05l0,0v-.12l0-.07Z" transform="translate(0 0)"/>
    <path d="M99.93,68.81v.24h0v-.21Z" transform="translate(0 0)"/>
    <path d="M100,68.91v-.22h0C100,68.77,100,68.84,100,68.91Z" transform="translate(0 0)"/>
    <polygon points="100 73.03 100 73.15 100 73.02 100 73.03"/>
    <polygon points="100 64.33 100 64.33 100 63.96 100 63.96 100 64.33"/>
    <path d="M100,70.14v-.57l0,0v.53Z" transform="translate(0 0)"/>
    <path d="M99.91,70.13h0V69.6l0,0C99.92,69.8,99.91,70,99.91,70.13Z" transform="translate(0 0)"/>
    <path d="M99.44,60.33l.07-.47-.09,0v.53Z" transform="translate(0 0)"/>
    <path d="M100,40.07c0,.24,0,.63,0,.23v-.23Z" transform="translate(0 0)"/>
    <path d="M100,89.15h0v0Z" transform="translate(0 0)"/>
    <path d="M99.46,41.15l.09.06.06-.43,0,.31.23.18v-1.2h-.41Z" transform="translate(0 0)"/>
    <path d="M99.87,41.27l0,0V40.07h0Z" transform="translate(0 0)"/>
    <path d="M99.21,40.08a2.59,2.59,0,0,1,0,.63h0v-.29l0,.52.17.12a1.85,1.85,0,0,1,0-.23v0h0v.25h0v0l.07.06V40.07Z"
          transform="translate(0 0)"/>
    <path d="M100,41.37V40.3c0,.86-.12.3,0-.23h0V41.3Z" transform="translate(0 0)"/>
    <path d="M100,17.44c0-.16,0,.44,0,.75l0,0V17.07A2.23,2.23,0,0,1,100,17.44Z" transform="translate(0 0)"/>
    <path d="M99,6.3v.21h0Z" transform="translate(0 0)"/>
    <path d="M99.27,45.14h0V45h0Z" transform="translate(0 0)"/>
    <path d="M99.35,32.67c0,.1,0,.2,0,.3l0,0v-.3Z" transform="translate(0 0)"/>
    <path d="M99.11,40.08h0v.17A1,1,0,0,0,99.11,40.08Z" transform="translate(0 0)"/>
    <path d="M100,44.94h0v-.46a.15.15,0,0,1,0,.06v.4Z" transform="translate(0 0)"/>
    <path d="M99.94,44.94h0v-.25A2.09,2.09,0,0,1,99.94,44.94Z" transform="translate(0 0)"/>
    <path d="M99.5,44.88v.29l.38,0v-.28Z" transform="translate(0 0)"/>
    <path d="M99.88,45.21h0a2.64,2.64,0,0,0,0-.28h-.06Z" transform="translate(0 0)"/>
    <path d="M99,2.32l.21,0V2.14L99,2.09Z" transform="translate(0 0)"/>
    <polygon points="99.45 2.21 99.21 2.15 99.21 2.27 99.45 2.21"/>
    <path d="M99,40.81l.1.08s0,0,0-.06v.06l.06,0,0-.29v.09a1.83,1.83,0,0,1-.09-.65h0C99,40.34,99,40.63,99,40.81Z"
          transform="translate(0 0)"/>
    <path d="M99.28,44.85a.2.2,0,0,1,0,.09v-.08Z" transform="translate(0 0)"/>
    <path d="M99,40.12v.06l0-.09h0v0Z" transform="translate(0 0)"/>
    <path d="M100,44.94v0Z" transform="translate(0 0)"/>
    <path d="M100,44.28v0Z" transform="translate(0 0)"/>
    <path d="M100,11.52v0c0,.23,0,.46,0,.69Z" transform="translate(0 0)"/>
    <path d="M99.78,27.68l.06-.07v-.69l0,.06Z" transform="translate(0 0)"/>
    <path d="M100,27.41v-.64l-.17.15v.69A1.16,1.16,0,0,1,100,27.41Z" transform="translate(0 0)"/>
    <path d="M99.51,27.82c.08.09.18,0,.27-.14V27l-.27.24Z" transform="translate(0 0)"/>
    <path d="M99.36,27.36v.35s.08,0,.12.08l0,0v-.6Z" transform="translate(0 0)"/>
    <path d="M99.14,23.76l.14.09v-.21Z" transform="translate(0 0)"/>
    <path d="M99.81,30.14h0v-.21l0,0Z" transform="translate(0 0)"/>
    <path d="M99.81,30.14V30l-.26.17Z" transform="translate(0 0)"/>
    <path d="M100,30.16V28.9h0v0l0,0c0,.14,0,.53,0,.74l0,0v.25l-.16.1v.21C100,30.14,100,30.15,100,30.16Z"
          transform="translate(0 0)"/>
    <path d="M100,31.33l0,0c0,.06,0,.11,0,.19Z" transform="translate(0 0)"/>
    <path d="M99,23.63l0,0v-.72h0Z" transform="translate(0 0)"/>
    <path d="M99.29,23.35c0-.15,0-.27,0-.41l-.17-.08-.14,0v.72Z" transform="translate(0 0)"/>
    <path d="M99.36,29.07v.87l0,0c0-.28,0-.56,0-.84Z" transform="translate(0 0)"/>
    <polygon points="100 2.37 100 2.18 100 2.25 100 2.37"/>
    <path d="M99.51,29.16v.69l.3-.16v-.83C99.69,28.93,99.6,29.12,99.51,29.16Z" transform="translate(0 0)"/>
    <path d="M99.94,29.62c0-.26,0-.52,0-.78h-.08v.84Z" transform="translate(0 0)"/>
    <path d="M99.39,29.12c0,.25,0,.51,0,.79l.11-.06v-.69A.12.12,0,0,1,99.39,29.12Z" transform="translate(0 0)"/>
    <path d="M99.8,29.69l0,0v-.84l0,0Z" transform="translate(0 0)"/>
    <polygon points="100 19.69 100 19.6 100 19.69 100 19.69"/>
    <polygon points="99.04 21.75 99.04 22.12 99.54 21.64 99.54 21.53 99.04 21.75"/>
    <polygon points="99.54 21.64 99.72 21.47 99.72 21.44 99.54 21.53 99.54 21.64"/>
    <polygon points="99.77 21.42 99.72 21.44 99.72 21.47 99.77 21.42"/>
    <path d="M99,21.77v.38l0,0v-.37Z" transform="translate(0 0)"/>
    <path d="M100,13.18h0v0Z" transform="translate(0 0)"/>
    <path d="M99.73,22v-.22l.09.1v-.22l-.09.09Z" transform="translate(0 0)"/>
    <path d="M99.88,22l.12,0v-.62h0v.22l-.18.15v.22Z" transform="translate(0 0)"/>
    <path d="M99.65,22.06l.08,0h0v-.25l-.09.07Z" transform="translate(0 0)"/>
    <path d="M99.46,23.49l-.07.06,0,.36.08.06h0Z" transform="translate(0 0)"/>
    <path d="M99.4,23.21v0l0,0Z" transform="translate(0 0)"/>
    <path d="M99.21,22.21l.3-.1,0,0v-.13Z" transform="translate(0 0)"/>
    <path d="M99.54,21.94v.13a.82.82,0,0,1,.1-.21Z" transform="translate(0 0)"/>
    <polygon points="99.36 2.62 99.2 2.5 99.2 2.67 99.36 2.62"/>
    <path d="M99,2.73l.2-.06V2.49L99,2.32Z" transform="translate(0 0)"/>
    <polygon points="99.3 83.17 99.99 82.96 99.98 81.89 99.3 81.78 99.3 83.17"/>
    <path d="M99.12,83.22l.18,0V81.78l-.18,0Q99.14,82.46,99.12,83.22Z" transform="translate(0 0)"/>
    <path d="M100,83V81.89h0V83Z" transform="translate(0 0)"/>
    <path d="M100,84v-.06h0V84Z" transform="translate(0 0)"/>
    <path d="M100,84l0,0v-.06h0S100,84,100,84Z" transform="translate(0 0)"/>
    <rect x="100" y="82.95" height="0.42"/>
    <path d="M100,85.12v0Z" transform="translate(0 0)"/>
    <polygon points="99.99 84.26 100 84.25 100 83.98 99.99 83.98 99.99 84.26"/>
    <path d="M99.94,84a.57.57,0,0,1-.1.28l.15,0V84Z" transform="translate(0 0)"/>
    <path d="M99,70.17h0c0,.17,0,.3,0,.4l.09.11v-.44Z" transform="translate(0 0)"/>
    <path d="M99,86.36l.26.14v-.09L99,86.29Z" transform="translate(0 0)"/>
    <path d="M99.38,86.55a.15.15,0,0,1,.09,0l.35.17-.22-.21-.32-.14v.09Z" transform="translate(0 0)"/>
    <path d="M99.24,67a.25.25,0,0,1-.08-.25.05.05,0,0,1,0,0l-.12.13v.44l.24-.12Z" transform="translate(0 0)"/>
    <path d="M99.25,71.61v-.1l-.13.08v0Z" transform="translate(0 0)"/>
    <path d="M100,81.29h0v.6h0Z" transform="translate(0 0)"/>
    <path d="M99.12,71.59l0,0h0Z" transform="translate(0 0)"/>
    <path d="M99.06,85.81l0,0a.82.82,0,0,1,0,.14l0,0Z" transform="translate(0 0)"/>
    <path d="M99,86.83c0,.15,0,.29,0,.41l.28,0V87a.79.79,0,0,0-.23-.16Z" transform="translate(0 0)"/>
    <path d="M99.58,87.34a1.07,1.07,0,0,0-.3-.34v.28Z" transform="translate(0 0)"/>
    <path d="M99.57,85.67l.2-.1-.15,0c-.06.06-.1.12-.15.16Z" transform="translate(0 0)"/>
    <path d="M99,81.29v0Z" transform="translate(0 0)"/>
    <path d="M99.15,85.87l-.07,0v.07Z" transform="translate(0 0)"/>
    <path d="M99,61.58v0c0,.25,0,.48,0,.7l.07,0C99.09,61.49,99.07,61,99,61.58Z" transform="translate(0 0)"/>
    <polygon points="99.32 81.29 99.31 81.29 99.31 81.3 99.32 81.29"/>
    <path d="M99.11,81.4l.19-.1h-.19Z" transform="translate(0 0)"/>
    <path d="M99.06,81.29h0v.15l0,0Z" transform="translate(0 0)"/>
    <path d="M99.07,81.75h0l.06,1.34C99.11,82.61,99.09,82.19,99.07,81.75Z" transform="translate(0 0)"/>
    <path d="M99.09,83.08c0-.33,0-.66-.07-1v1.17h0a.77.77,0,0,1,0-.15Z" transform="translate(0 0)"/>
    <polygon points="99.93 85.61 99.8 85.58 99.67 85.65 99.93 85.61"/>
    <path d="M99.45,84.38l-.11,0,0,0v0Z" transform="translate(0 0)"/>
    <polygon points="99.29 84.42 99.29 84.39 99.22 84.44 99.29 84.42"/>
    <path d="M99.11,84.31v.1l.13-.07Z" transform="translate(0 0)"/>
    <polygon points="99.08 86.05 99.09 86.05 99.08 86.04 99.08 86.05"/>
    <path d="M99.05,86l0,0v0h0Z" transform="translate(0 0)"/>
    <polygon points="99.52 85.85 99.38 85.82 99.29 85.88 99.29 85.9 99.52 85.85"/>
    <polygon points="99.29 85.9 99.29 85.88 99.22 85.92 99.29 85.9"/>
    <polygon points="99.35 85.05 99.55 85.05 99.31 84.94 99.29 84.94 99.29 85.02 99.35 85.05"/>
    <polygon points="99.29 85.02 99.29 84.94 99.15 84.95 99.29 85.02"/>
    <path d="M99.11,63.79a.76.76,0,0,1,0-.15v-.07l-.08,0c0,.07,0,.15,0,.22Z" transform="translate(0 0)"/>
    <path d="M99.07,66.23h0v.26h0Z" transform="translate(0 0)"/>
    <path d="M99.32,68.61h0v-.33l0,0C99.33,68.41,99.33,68.51,99.32,68.61Z" transform="translate(0 0)"/>
    <path d="M99.87,68.68a.43.43,0,0,0-.37-.46c0,.1,0,.21,0,.31v-.31h0l-.1.07v.33Z" transform="translate(0 0)"/>
    <path d="M99.45,67.07l0,0V67Z" transform="translate(0 0)"/>
    <path d="M99.33,69.24h0v-.1h0Z" transform="translate(0 0)"/>
    <path d="M99.87,69.07v0h0c0-.09,0-.17,0-.24l-.51.35v.1Z" transform="translate(0 0)"/>
    <path d="M99.64,70.13h.24c0-.12,0-.28,0-.48l-.26.16Z" transform="translate(0 0)"/>
    <path d="M99.33,69.87h0v-.28l0,0Z" transform="translate(0 0)"/>
    <path d="M99.87,69.55v-.41l-.52.44v.28Z" transform="translate(0 0)"/>
    <path d="M99.74,73.23h0l0,0Z" transform="translate(0 0)"/>
    <path d="M99.58,67,99.5,67V67Z" transform="translate(0 0)"/>
    <path d="M99,65.81h0v.11h0Z" transform="translate(0 0)"/>
    <path d="M99.24,63.81v-.2l-.12,0v.21Z" transform="translate(0 0)"/>
    <path d="M99,65.57v.24h0A.9.9,0,0,0,99,65.57Z" transform="translate(0 0)"/>
    <path d="M99.75,71.61l-.06-.08s0,0,0,.08Z" transform="translate(0 0)"/>
    <path d="M99.7,68.07l.17,0v-.23L99.7,68Z" transform="translate(0 0)"/>
    <path d="M99.33,67.13l0,0v0l0,0Z" transform="translate(0 0)"/>
    <path d="M99.37,67.11v0h0v0Z" transform="translate(0 0)"/>
    <path d="M99.63,68.06h.07V68Z" transform="translate(0 0)"/>
    <path d="M99.77,63.89l.16,0v0l-.06-.07Z" transform="translate(0 0)"/>
    <polygon points="99.97 63.92 99.94 63.89 99.94 63.92 99.97 63.92"/>
    <path d="M99.24,69.27V69.2l-.17.12h0Z" transform="translate(0 0)"/>
    <path d="M99.24,70.13V70l-.11.06v0Z" transform="translate(0 0)"/>
    <polygon points="99.07 69.32 99.06 69.32 99.07 69.32 99.07 69.32"/>
    <path d="M99.07,69.32Z" transform="translate(0 0)"/>
    <path d="M99.1,70.12l0,0h0Z" transform="translate(0 0)"/>
    <path d="M99.11,70l.13-.07v-.25l-.22.18v.2l.09-.06Z" transform="translate(0 0)"/>
    <path d="M99.34,73.43l.43,0,0-.18-.09,0h0l0,.18,0-.19a.83.83,0,0,1-.23-.1v.33Z" transform="translate(0 0)"/>
    <path d="M99.23,73.16V73a.31.31,0,0,1-.07-.09l0,0v.36l.21.17V73.1L99.23,73Z" transform="translate(0 0)"/>
    <path d="M99.51,71.25l-.09-.14a.27.27,0,0,1-.08.07v.17Z" transform="translate(0 0)"/>
    <path d="M99.34,71.35v0Z" transform="translate(0 0)"/>
    <path d="M99,73.18l0,0a.19.19,0,0,0,0-.08Z" transform="translate(0 0)"/>
    <path d="M99.87,73.45l-.05-.06v.06Z" transform="translate(0 0)"/>
    <path d="M99.33,71.2h0v0Z" transform="translate(0 0)"/>
    <path d="M99.24,70.39l-.11-.12v.45l0,0,.07,0Z" transform="translate(0 0)"/>
    <path d="M99.54,70.9l-.17.15,0,.06.12-.16Z" transform="translate(0 0)"/>
    <polygon points="99.51 70.67 99.35 70.5 99.35 70.72 99.51 70.67"/>
    <path d="M99.32,70.72h0V70.5l0,0Z" transform="translate(0 0)"/>
    <polygon points="100 71.62 100 71.17 100 71.17 100 71.47 100 71.62 100 71.62"/>
    <polygon points="100 71.17 100 71.62 100 71.62 100 71.47 100 71.17 100 71.17"/>
    <path d="M99.32,70.13h0V70h0A.76.76,0,0,1,99.32,70.13Z" transform="translate(0 0)"/>
    <path d="M99.45,70.13a.17.17,0,0,1,0-.07l.13-.23-.22.14v.16Z" transform="translate(0 0)"/>
    <path d="M99.25,71.27l-.13.07v.14l.13-.08Z" transform="translate(0 0)"/>
    <path d="M99,91.57l.22-.06v-.35L99,91.05Z" transform="translate(0 0)"/>
    <path d="M99.41,91.47c-.1,0-.13-.14-.07-.27l-.07,0v.35Z" transform="translate(0 0)"/>
    <path d="M100,92.53v-.42h0v.09h-.2v.18Z" transform="translate(0 0)"/>
    <polygon points="99.8 92.4 99.81 92.22 99.64 92.31 99.8 92.4"/>
    <path d="M99,90.83V91L99.2,91Z" transform="translate(0 0)"/>
    <path d="M99.8,92.21l-.36,0,.18.11Z" transform="translate(0 0)"/>
    <path d="M100,92.11h0v0Z" transform="translate(0 0)"/>
    <path d="M100,93.1v-.41h0v.42Z" transform="translate(0 0)"/>
    <path d="M100,92.56v0Z" transform="translate(0 0)"/>
    <path d="M100,90.72v-.27a.08.08,0,0,0,0,0l0,0-.06,0-.06,0v.12l.11,0v.09Z" transform="translate(0 0)"/>
    <path d="M99.27,92.7h0v-.19h0Z" transform="translate(0 0)"/>
    <path d="M99.18,92.69h.08v-.17l0,0Z" transform="translate(0 0)"/>
    <path d="M99.26,92.52h0v0Z" transform="translate(0 0)"/>
    <path d="M99.1,93l0,.14.17-.08Z" transform="translate(0 0)"/>
    <path d="M99.34,93.83h.19l.23-.12v0h-.42Z" transform="translate(0 0)"/>
    <path d="M99.82,93.68h-.06v0Z" transform="translate(0 0)"/>
    <path d="M99,93.35v.11s0-.09,0-.14Z" transform="translate(0 0)"/>
    <path d="M99.76,93.82v-.1l-.17.1Z" transform="translate(0 0)"/>
    <path d="M100,93.85v-.17h-.15l-.08,0v.1Z" transform="translate(0 0)"/>
    <path d="M98.21,24.9c.15-.11.18-.68.06-1.15,0,.34-.09.68-.13,1Z" transform="translate(0 0)"/>
    <path d="M99.26,93.83v-.11l0,.11Z" transform="translate(0 0)"/>
    <path d="M99.28,93.83a.75.75,0,0,0,0-.15h0v.15Z" transform="translate(0 0)"/>
    <path d="M100,95.24V95l-.16,0A.8.8,0,0,0,100,95.24Z" transform="translate(0 0)"/>
    <path d="M99.48,44.88v.28l0-.28Z" transform="translate(0 0)"/>
    <path d="M99,40.62v.08a.27.27,0,0,0,0-.09Z" transform="translate(0 0)"/>
    <path d="M99.87,74.81v-.37l-.24.22Z" transform="translate(0 0)"/>
    <path d="M99.38,41.35h0v0Z" transform="translate(0 0)"/>
    <path d="M99.67,90.76h0l0,0Z" transform="translate(0 0)"/>
    <path d="M99.91,74.84v0Z" transform="translate(0 0)"/>
    <path d="M99.7,19.34a.09.09,0,0,1,.11,0v-.17l-.11,0Z" transform="translate(0 0)"/>
    <path d="M99.92,55.68H100c0-.24,0-.48,0-.74h0V51.71h0c0,.72-.09.39-.07-.06l0,0v4Z" transform="translate(0 0)"/>
    <path d="M99.49,34.22v-1h0A8.76,8.76,0,0,1,99.49,34.22Z" transform="translate(0 0)"/>
    <path d="M99.81,13.18A9.29,9.29,0,0,1,100,11.5c-.06.08-.13-.19-.2.17v1.51Z" transform="translate(0 0)"/>
    <polygon points="99.69 18.31 99.81 18.25 99.81 15.73 99.67 15.59 99.69 18.31"/>
    <path d="M99.59,7.51V8l.06.44.13-.26V7.42Z" transform="translate(0 0)"/>
    <path d="M100,6.14v.73h0v.46l-.22.09v.72l.22-.42V4.66h0v.73h0v.46l-.22.09v.19Z" transform="translate(0 0)"/>
    <polygon points="99.66 14.7 99.8 14.66 99.8 14.25 99.65 14.1 99.66 14.7"/>
    <polygon points="100 49.85 100 49.33 100 48.86 99.99 48.86 100 50 100 49.85"/>
    <path d="M99.62,11.4l0,1.82.16,0V11.67a.08.08,0,0,1,0,0C99.76,11.88,99.67,11.74,99.62,11.4Z"
          transform="translate(0 0)"/>
    <path d="M100,.31V0h-.24V.3Z" transform="translate(0 0)"/>
    <path d="M100,42.23V42a.15.15,0,0,1-.08,0v.38A1,1,0,0,1,100,42.23Z" transform="translate(0 0)"/>
    <polygon points="100 1.79 100 1.68 99.77 1.49 99.77 1.78 100 1.79"/>
    <path d="M99.76,25.77v.68h.06v-.89l0-.07Z" transform="translate(0 0)"/>
    <path d="M99.49,33.06l.35.23v-.48a.74.74,0,0,1-.34-.08Z" transform="translate(0 0)"/>
    <polygon points="100 3.91 100 3.17 100 3.17 100 3.21 99.77 3.3 99.77 3.98 100 3.91"/>
    <path d="M100,14.6v-.14l-.2-.21v.41Z" transform="translate(0 0)"/>
    <path d="M99.39,32.69a1.73,1.73,0,0,0,0,.32l.08.05v-.33Z" transform="translate(0 0)"/>
    <path d="M99.52,25.7v.79l.25,0v-.57Z" transform="translate(0 0)"/>
    <path d="M100,40a.17.17,0,0,0,0-.07V40l0,0V39.7h0v0l-.1-.06V40Z" transform="translate(0 0)"/>
    <path d="M99.94,51.49c0-.05,0-.1,0-.14v.14h0v-.4l-.1,0v.43Z" transform="translate(0 0)"/>
    <path d="M99.94,18.19a14.42,14.42,0,0,1,0-1.47V17l0-.35v.1l0-.09v-.69l-.2-.21v2.52Zm-.13-1.09c0-.79.1.16,0,.19C99.85,17,99.87,17.3,99.81,17.1Z"
          transform="translate(0 0)"/>
    <polygon points="100 76.77 100 76.03 99.97 76.03 99.97 76.79 100 76.77"/>
    <polygon points="99.24 96.93 99.67 97.2 99.69 96.48 99.25 96.34 99.24 96.93"/>
    <path d="M99.87,36.3c0,.08,0,.21,0,.18,0-.23,0,.22.1.06v-.63l-.14-.06v.45Z" transform="translate(0 0)"/>
    <path d="M99.6,6.12h.18V5.94L99.6,6Z" transform="translate(0 0)"/>
    <path d="M100,31.64a2.23,2.23,0,0,1,0-.36l-.08-.05v.4Z" transform="translate(0 0)"/>
    <path d="M99.94,19.52h0l.06,0v-.27l-.19,0v.17A.36.36,0,0,1,99.94,19.52Z" transform="translate(0 0)"/>
    <path d="M100,41.85v0a.24.24,0,0,0-.08-.11v.15Z" transform="translate(0 0)"/>
    <path d="M100,100V98.07L99.8,98l-.15.08L99.59,100Z" transform="translate(0 0)"/>
    <path d="M100,46.71V46h0v.3h0v0h0v.43Z" transform="translate(0 0)"/>
    <path d="M100,97.41V97a.35.35,0,0,1-.07-.48l-.24-.08,0,.72Z" transform="translate(0 0)"/>
    <path d="M100,26.41v-.32l-.17-.54v.89Z" transform="translate(0 0)"/>
    <polygon points="99.62 0.3 99.62 0 99.52 0 99.52 0.3 99.62 0.3"/>
    <polygon points="99.52 0.3 99.52 0 99.23 0 99.22 0.29 99.52 0.3"/>
    <polygon points="99.76 0.3 99.76 0 99.62 0 99.62 0.3 99.76 0.3"/>
    <polygon points="99.61 4.03 99.77 3.98 99.77 3.3 99.61 3.36 99.61 4.03"/>
    <path d="M99.27,89.06v.15l.12,0A.58.58,0,0,1,99.27,89.06Z" transform="translate(0 0)"/>
    <polygon points="99.61 1.78 99.77 1.78 99.77 1.49 99.62 1.36 99.61 1.78"/>
    <path d="M99.65,98.08a4,4,0,0,0-.41.23V100h.36Z" transform="translate(0 0)"/>
    <polygon points="97.77 18.48 97.77 18.48 97.77 18.48 97.77 18.48"/>
    <path d="M99.93,87.73l0,1.17.06,0,0,0v0h0V87.67Z" transform="translate(0 0)"/>
    <polygon points="97.85 7.08 97.85 7.08 97.85 7.08 97.85 7.08"/>
    <path d="M99,98.52V96.78l.24.15v-.59L99,96.26h0v-.92h0c0-1.84,0-3.79,0-5.67,0,0,0,0,0,0v-.11h0v-.23l.27-.11v-.15a.86.86,0,0,1-.13-.2l-.14,0v-.49h0v0h0v-.18h0v0c0-.31.06,0,.28.29v-1l-.28,0v0h0v-.16a.38.38,0,0,1,0,.12c0-1.63,0-3.66,0-5.4v0c0-.24,0-.47,0-.69V81c0-.18,0-.37,0-.59h0v-.87h.29L99,79.45v-.7l.31-.16v-.53l-.1,0c-.16.21-.18.34-.22.22V76.91h.32v-.1a.78.78,0,0,1-.32,0V75.15h.09l.24-.23V74.5L99,74.31l0,0,0,0,.09-.06a.19.19,0,0,1,0-.1h0v-.66h0v-.21c-.09.11-.19,0-.21-.67a2.3,2.3,0,0,1,.2-.17h0V72h0V72h0v-.26l.24.19h0L99,71.65l0,0v-.12h0v-.73h0v-.1c0-.21,0-.81-.07-1.24v0h0c0-.82.06-.26.06-1.79,0,.28,0,.55,0,.83v-.2h0v-.45l0,0c0-.38,0-.53,0-.57v-.44h0v-.24a.83.83,0,0,1,0-.47v-.06h0v-.52l.33.09,0,0v-.36L99,65.21v-.89c0,.24,0,.49,0,.77v-3c0,.34,0,.47,0,.56,0-.27,0-.56,0-.92v-.19c0-.2,0-.41,0-.61s.16.55.14,1.37l.08,0c0-.89,0-1.74-.07-2.58l-.16.07v0h0v-.5l.15-.08c0-.32,0-.64,0-1l-.14.06v-.14a3.87,3.87,0,0,1-.49.05l.08-.39c.21-.11.44.09.58-.28h0c0-.27,0-.54,0-.81v-.35h0v0l-.19,0V56h0c0-1.05,0-2.17,0-3.39a1.46,1.46,0,0,1,0-.42c0,.43,0,.31,0,.35,0,.23,0,.3,0,.28,0,1.06,0,2,0,3.19l.35,0,0-5L99,51V49.19h.1v0l.06,0,.27.06v-.42H99v-.63l.43.06v-.6l-.43,0h0v-1l.44,0v-.43L99,46.16v-1l.27,0V45A1.45,1.45,0,0,0,99,45v-.33h0c.09,0,.26,0,.43,0V42.86L99,42.71v-.42h0v-.18h0v-.26h.46v-.47l-.07,0a.72.72,0,0,1,0,.33.63.63,0,0,0,0-.33v0l-.17,0c0,.28,0,.19-.05,0l-.1,0v-.36a.13.13,0,0,1,0,.06c0-.08,0-.15,0-.22v-.08c0,.06,0,.13,0,.2,0-.21,0-.21,0-.06s-.06-.49-.05-.7c0,.12,0,0,.05,0v-.11s0,0,0,.08a.23.23,0,0,1,0,.1s0,0,0,0v0h0L99,40v0l0,0a.57.57,0,0,0,0,.13h0a.36.36,0,0,1,0-.23h0c0-.05.15,0,.33,0v-.26l-.47,0v-.12h0v-.92a.1.1,0,0,1-.09,0c0-.28-.1,0-.28-.19.05-.53.3-.28.37,0V38h0v-.28l0,0,0,0,.29-.13.19-.13v-.16L99,37l.48-.11V35.71L99,35.52l.48-.11v-.92c0-.22,0-.39,0-.55,0,.33,0,.59,0,.83,0-.55,0-1.06,0-1.55h0c0,.61,0,1.22,0,1.86,0-.85,0-1.4,0-1.88L99,33.1v-.37h0v0l.3.2c0-.1,0-.2,0-.3a1.2,1.2,0,0,1-.31-1h0v-.36h0v0l.5.33V31l0,0h0l-.41-.28H99v-.58l.33-.18c0-.3,0-.6,0-.92h0c0-.07-.1.23-.16.4a1.44,1.44,0,0,0-.08-.33l-.09.08V29c-.13-.12-.28,0-.41-.15l-.08-.86A2,2,0,0,1,99,28V25.21c0,.1,0,.2,0,.3V24.38h0v-.26h0v-.24h0v-.25h0v-1h0v0h0V22.4h0V21.33l0,0v-.48l0,0,0,0v-.27h0v-.23h0v-.43l.06,0V19H99v-.38l.07,0,0-3.61-.1-.1.1,0V13.53L99,13.42l.11,0,0-2.69H99v-.36l.14,0,0-2.6L99,7.76v0h0v-1h0V6.51h0V6.28h0v0h0v-1h0V5.06h0V4.21l.19-.06V3.51l-.2.07V1.76h.21V1L99,.84l.22,0V.67L99,.61V.28h.22V0H0V100H99v0h.23V98.31A.57.57,0,0,0,99,98.52Zm-.94-78.6s0,.28-.06,0c0-.05,0,0,0,0C98,19.31,98.07,19.42,98.06,19.92Zm-.28-1a1.7,1.7,0,0,0,0-.45.45.45,0,0,1,0,.12v-.13s0-.09,0-.12A2.17,2.17,0,0,1,97.78,18.93Zm2.28-.18c0-.26,0-.52,0-.78l0,0-.1,1.34v0l.28.46a2,2,0,0,0-.08-.72c.3.3.16,1.47.39,2.18l-.33-.5v.12c-.72.8-.43-.4-.8.12,0-.48.11-2.22.35-1.56.08.33.14.32.19-.1h0v0c-.16-.51-.06-1.11-.28-1.18l.29-.24,0-.51C100.11,17.65,100.11,17.66,100.06,18.75Zm-3.33-8.56-.13-.64,0,.09.08.77a3.78,3.78,0,0,1,0-1.84A3.7,3.7,0,0,1,96.73,10.19Zm1.42-1.66c-.06,0,0,.27-.07,0,0,0,0,0,0,0C98.07,7.92,98.15,8,98.15,8.53Zm-.31-1.32V7.08s0-.09,0-.13a2.21,2.21,0,0,1,0,.58,1.7,1.7,0,0,0,0-.45A.53.53,0,0,1,97.84,7.21ZM95,8.79a4,4,0,0,1,0-.95l0,.35h0v0l0,.6s0,0,0-.08l0,.43Zm.79,1.83h0c0-.27,0-.55,0-.69-.41.42-.34.1-.37-.42l.09.45.09-1.17.16.39.07-.48,0,.58,0,0,0-.34.25.29c0,.59,0,.67-.19.73v.79c0-.25-.09-.48-.13-.72ZM98.33,14a6.49,6.49,0,0,1,.24-2.34A2.23,2.23,0,0,1,98.43,13a8.56,8.56,0,0,1,.23,2.52C98.55,15.11,98.44,13.13,98.33,14ZM95.7,16.1c.08.31-.15.56-.28.84l0-.36Zm2.59-6.47a2.4,2.4,0,0,0,0,1.31L98,11.5C98.14,11.17,98,9.59,98.29,9.63Zm-3.77,8.86c-.12.09-.27-.18-.24.79C93.89,18.56,94.45,16.94,94.52,18.49Zm-1.43.74.08-.7.31.28v.12Zm4.8-1.74a3,3,0,0,0,.43-1.39l.32.48v.15l-.23-.11c-.07.32.33.55.24.87l-.39-.38Zm1-3.4c.31-.58.34,0,.5.39C99.12,15.25,99,15.16,98.88,14.09Zm.74,8.28.56.11c0,.13,0,.54,0,.86,0-.53-.21.15-.39.39C99.7,23.46,99.45,22.7,99.62,22.37ZM98,11.93h0l.22.32a3.79,3.79,0,0,0-.16-.91,2.59,2.59,0,0,0,.73-.85l0,.21.1-.71.2,1.21c0-.18,0-.39,0-.61a24.33,24.33,0,0,1,0-2.68c0,1,0,1.74,0,2.68,0,.42.06.83.1,1.34-.23.53-.38-.22-.58.49-.08.32-.21-.13-.28-.85C98.3,12.88,98.13,12.78,98,11.93Zm.66,12.47.11-.57c-.22,1.35.17.93.22,1.5-.06.25-.11.77-.21.2-.09.4-.19.11-.29.15s-.27,0-.38-.42c0,0,0,0-.07.06s0,.24,0,.45V24.59l.06.08.21-.94a1.45,1.45,0,0,0-.11-.29L98,24.2a3.89,3.89,0,0,1,0-.91c.16-.59.39.2.55-.74C98.59,23.19,98.62,23.74,98.66,24.4Zm-2-1.23a7.12,7.12,0,0,1-.14,1.91C96.67,24.37,95.9,23.38,96.63,23.17ZM96,22.84l.26.29a1.79,1.79,0,0,1-.1.27C96,23.43,95.92,23.72,96,22.84Zm2.73-4.21.14.49.18-.27,0,.23c-.24.28-.59,0-.43,2.12A4.88,4.88,0,0,1,98.69,18.63Zm-.08,15.54c.09-.35.15-.58.22-.83A8.31,8.31,0,0,1,99.17,35l-.48.13c.06-.4.08-.56.09-.66ZM88.8,27,89,26a2.68,2.68,0,0,1,.17.91ZM86,28.51l-.11-.16,0,.07-.11.06.08-.13h0l-.06-.13c.16,0,.18.15.17.29l0,.08L86,28.8C86,28.73,86,28.62,86,28.51Zm1.41,1.28c0-.05-.09,0-.13,0,0-.57.55-.45.52.05C87.62,29.72,87.57,30.11,87.44,29.79Zm10.83,7.68h.06a2.63,2.63,0,0,1,0,.41ZM99,41.16v-.31A.27.27,0,0,1,99,41.16Zm-.44-.42c0,.15,0,.44-.07.17C98.46,40.43,98.47,40.39,98.51,40.74Zm-.23,0,.06.17.06-.17c0,.13-.05.26,0,.39l0,0a.92.92,0,0,1-.05.28A3.21,3.21,0,0,0,98.28,40.73Zm.17.44a3.78,3.78,0,0,1,0,.83A7.3,7.3,0,0,1,98.45,41.17Zm.06,1.57c0,.39,0-.51,0-.67a11.05,11.05,0,0,1,0,1.13,2.3,2.3,0,0,1,0,.59A8.75,8.75,0,0,1,98.51,42.74ZM99,46.28v0Zm-.81,2.58h.06a2.54,2.54,0,0,1,0,.41ZM99,52.55v-.31A.27.27,0,0,1,99,52.55Zm.29.2a3.17,3.17,0,0,0,0-.52v0h0c0,.19,0,.39,0,.59,0-.12,0-.24,0-.37a1.77,1.77,0,0,1,0,.64A.65.65,0,0,0,99.24,52.75Zm0,.67v-.16a1.64,1.64,0,0,1,.05.37Zm.17-.88c0,.69,0,1.34,0,2,0-.79,0-1.58,0-2.45Zm-1.38-1h0s.73-.07.93-.12v0a.09.09,0,0,0,0,0l0,0a.48.48,0,0,0,0,.12h0c0-.33,0-.35,0,0v-.08c0-.18,0-.26,0-.15a1.73,1.73,0,0,1,.07.83h0v-.3l0,.54,0-.32v.09a.86.86,0,0,1,0-.23,2.83,2.83,0,0,1,0,.43A1.71,1.71,0,0,0,99,52c0,.07,0,.14,0,.22,0-.2,0-.21,0-.06s-.06-.47-.05-.69Zm.43.64c0,.15,0,.44-.07.17C98.38,51.83,98.39,51.79,98.43,52.13Zm-.23,0,.06.16.06-.17c0,.13,0,.26,0,.39l0,0a.87.87,0,0,1,0,.28A3,3,0,0,0,98.2,52.13Zm.17.44a3.71,3.71,0,0,1,0,.83A7.64,7.64,0,0,1,98.37,52.57Zm.06,1.57c0,.39,0-.51,0-.67a10.84,10.84,0,0,1,0,1.12,2.3,2.3,0,0,1,0,.59A8.64,8.64,0,0,1,98.43,54.14Zm.21,4.36H99v.09l-.18.32Zm1.15.14.48.06a2,2,0,0,1-.35.73l-.21-.36.17-.14Zm-.52-4.24,0,.17-.24.16V54.2l.06.27Zm.29,5.14a32.85,32.85,0,0,1,.15,4C99.08,63.73,99.65,61.27,99.56,59.54Zm-.5.84-.26.13C98.75,60.05,99,60.24,99.06,60.38Zm-.27-2.06.1-.09c-.16.93.2.82.43.94l0,.11-.18-.12-.14.21C98.68,59.21,98.82,58.69,98.79,58.32ZM99,59.94l0,0,.12.34.13-.09-.3-.58,0-.17s.07.05.08,0a.45.45,0,0,1,.67-.12c.1-.25.15,0,.21.09s-.44.07-.22.67l-.11-.25-.11.82C99.29,60.2,98.87,60.6,99,59.94Zm1.25,4.13.1-.23,0-.09-.28.21h0l.09.6,0,0,0-.34c0,.48,0,.49-.23.63l0-.22-.29-.12c.23,0,.13-.34.29-.52v0h0c0-.19-.11-.19-.19-.05-.23.3-.39-.46-.35-.69.06,0,.13.11.17.06.22-.27.39-.06.62,0v.06l.33-.23C100.4,63.43,100.54,64,100.25,64.07ZM99.33,68l.16.14c0-.41.12-.3.24-.33C99.61,67.26,99.39,67.54,99.33,68Zm0-.65-.24.21L99,67.11l0,0Zm.08-24.4c-.09.17-.41.37-.18.4h0c.41.14.39.3-.16.45.32.06.52.2.38.28-.31.19,0,.37-.22.58l-.62-.11v0l.3,0-.53-.2.31-.11h-.09a2.41,2.41,0,0,0,.38-.73l.35.18.05,0-.14-.22h-.39l0-.56.19-.08ZM99.22,66c-.16.23-.26.39-.51.17C98.87,65.7,99,65.66,99.22,66Zm-.49-4,.36.17.38-.17,0,.09-.26.23v.07l.23,0v.07l-.32.21C99.1,62.27,98.9,62.18,98.73,62Zm.07.44.37.25-.14.22.1.36C98.78,63.3,99,62.59,98.8,62.44ZM99.17,64l.07.14c.08-.26.16-.51.26-.81a1.85,1.85,0,0,1-.23,1.13c.15.22.25.32.14.59C99.13,64.76,99.19,64.44,99.17,64Zm-.26,6.74-.08.34,0,0,.13-.29,0,0-.07.38c.16.29-.11.14-.12.3C98.75,71.09,98.76,70.91,98.91,70.75Zm.73-3.54-.09-.52-.09.2c0-.35.11-.31.37-.19l0-.31h0l0,.27.13-.32v.35c.2,0,.22.07.19.33l-.25.13,0-.15h0l0,.26L99.8,67ZM96.3,87.74c0,.45,0,1.77,0,1.77C96.32,91.36,96.2,88.19,96.3,87.74Zm.17,8.14s.11,0,.13-.08c.15-.7.11.06.39,0,.05.84-.15.77-.25.91S96.5,96.62,96.47,95.88ZM95.06,94c0-.37,0-.63,0-.89A7.29,7.29,0,0,1,95,94.73v-.67l0,.1C95,93.46,95,92.94,95.06,94Zm2,5.06L97,98.73l.11.15,0,.14a1.82,1.82,0,0,0,.11-.43,2.4,2.4,0,0,1,0-.59,1.47,1.47,0,0,1,0,.59c0,.29,0,.58-.16.72l0-.29Zm-.84-3.71c0-1.17,0-2.35.07-3.52,0,.16,0,.57,0,1v-.64l0,.49c0-.3,0-.55.06-.85a15.79,15.79,0,0,1,0,1.68V93a22.67,22.67,0,0,0-.08,2.29Zm.44,0a27.94,27.94,0,0,1,0-3c0,.74,0,2.22,0,3Zm1.32,0c0-.32,0-.64,0-1,0,.32,0,.63,0,1Zm.79,0c0-3.16-.1-5.91,0-9.3,0,3.2,0,6,0,9.3Z"
          transform="translate(0 0)"/>
    <polygon points="99.57 14.01 99.11 13.53 99.1 14.87 99.56 14.73 99.57 14.01"/>
    <path d="M99.88,43v1.58l.07,0V43Z" transform="translate(0 0)"/>
    <path d="M99.9,50.08l.1.12V48.86h-.1Z" transform="translate(0 0)"/>
    <path d="M99.58,10.74l-.45,0,0,2.69.46-.14Z" transform="translate(0 0)"/>
    <polygon points="99.56 15.48 99.1 15 99.07 18.61 99.55 18.38 99.56 15.48"/>
    <polygon points="99.54 21.08 99.05 20.83 99.04 21.31 99.54 21.14 99.54 21.08"/>
    <polygon points="99.54 20.62 99.05 20.52 99.05 20.79 99.54 20.62 99.54 20.62"/>
    <path d="M99.86,51.07v0L99.42,51l0,5,.47,0v-.11c0-.46,0-.27,0-.2v-4l-.05-.05v-.09h.05v-.43h0Z"
          transform="translate(0 0)"/>
    <polygon points="99.55 19.14 99.06 19.04 99.06 19.83 99.55 19.66 99.55 19.14"/>
    <path d="M100,44.54v0Z" transform="translate(0 0)"/>
    <path d="M99.58,9.77a4.76,4.76,0,0,1-.26-1.27,1.54,1.54,0,0,0,.23-.83l0,.28V7.51l-.43.18,0,2.6.44-.13Z"
          transform="translate(0 0)"/>
    <polygon points="99.53 1.28 99.22 1.02 99.21 1.77 99.53 1.78 99.53 1.28"/>
    <polygon points="99.22 0.67 99.22 0.79 99.45 0.73 99.22 0.67"/>
    <polygon points="99.32 78.06 99.31 78.59 99.97 78.27 99.32 78.06"/>
    <polygon points="99.89 46.7 99.97 46.7 99.96 46.27 99.89 46.27 99.89 46.7"/>
    <polygon points="99.55 3.38 99.2 3.51 99.19 4.16 99.55 4.05 99.55 3.38"/>
    <path d="M99.43,48.86v.42l.24.06h0s0,0,0,0a.33.33,0,0,1,.12,0s0-.09,0-.13v.17s0,0,0,0a1.23,1.23,0,0,0,0,.57l.09.1V48.86Z"
          transform="translate(0 0)"/>
    <path d="M99.88,43l-.43-.13v1.77a1.12,1.12,0,0,0,.43-.06Z" transform="translate(0 0)"/>
    <path d="M99.46,42.07l-.13,0a.76.76,0,0,1,0,.15l0-.15-.3,0v.18l.45.33Z" transform="translate(0 0)"/>
    <path d="M99.64,87.45l-.36,0v1a1,1,0,0,0,.17.21l.26.19.18.06,0-1.17C99.82,87.78,99.75,87.65,99.64,87.45Z"
          transform="translate(0 0)"/>
    <path d="M99.87,41.65c-.12-.08-.27,0-.35-.2V41.4l-.06,0v.47h.41Z" transform="translate(0 0)"/>
    <path d="M99.63,65.5h0c0-.06,0-.12.07-.19l-.35,0v.36l.11,0C99.52,65.42,99.56,65.45,99.63,65.5Z"
          transform="translate(0 0)"/>
    <path d="M99.86,47.74l-.43-.05v.6l.34,0C99.77,47.92,99.77,48.16,99.86,47.74Z" transform="translate(0 0)"/>
    <polygon points="99.89 46.27 99.44 46.21 99.44 46.64 99.89 46.7 99.89 46.27"/>
    <path d="M99.45,42.62l.43.32v-.21h0a.45.45,0,0,1,0-.23V42l-.42,0Z" transform="translate(0 0)"/>
    <path d="M99,28.06h0c.08-.06.16-.28.25-.33v-.34L99,27.7V28H99Z" transform="translate(0 0)"/>
    <path d="M99.82,31.63v-.42l-.17-.11v.08L99.5,31v.55l.07,0Z" transform="translate(0 0)"/>
    <path d="M99.33,26.52v-.77c0,.28,0,.53,0,.77l.18,0V25.7l-.43-.34c0-.72.07-.69.29-.91l-.21-.11-.15,0v1.13c0,.34,0,.7,0,1.06Z"
          transform="translate(0 0)"/>
    <path d="M99.86,36.36v-.51l-.15-.05c0,.33,0,.65,0,.83,0-.21,0-.51,0-.86h0c-.09,1.78-.12,1-.06,0l-.08,0v1.18l.29-.07C99.77,36.57,99.78,36.72,99.86,36.36Z"
          transform="translate(0 0)"/>
    <polygon points="99.48 37.19 99.48 37.35 99.63 37.25 99.48 37.19"/>
    <path d="M99.87,39.66l0,0-.38,0v.26a4,4,0,0,1,.4.14Z" transform="translate(0 0)"/>
    <path d="M99.6,35.2s0-.14,0-.41a1.39,1.39,0,0,1,.12.57l.16,0,0-2-.35-.11v2.17l.1,0C99.59,35.32,99.59,35.26,99.6,35.2Z"
          transform="translate(0 0)"/>
    <polygon points="99.55 18.38 99.69 18.31 99.67 15.59 99.56 15.48 99.55 18.38"/>
    <path d="M99.58,10.74v2.51l.07,0,0-1.82a3.49,3.49,0,0,1,0-.35l0,.11v-.41Z" transform="translate(0 0)"/>
    <path d="M99.62,11.16l0,.21a2.82,2.82,0,0,0,.09-.6l-.13,0Z" transform="translate(0 0)"/>
    <path d="M99.86,36.36v-.51h0Z" transform="translate(0 0)"/>
    <path d="M100,33.39l-.15,0v2l.14,0V32.81h-.15v.49Z" transform="translate(0 0)"/>
    <polygon points="99.84 33.35 99.86 35.32 99.86 35.32 99.85 33.35 99.84 33.35"/>
    <polygon points="99.33 74.5 99.33 74.92 99.6 74.66 99.33 74.5"/>
    <path d="M99.58,10.16h0V9.87l0-.1Z" transform="translate(0 0)"/>
    <path d="M99.87,40h0v-.32l0,0Z" transform="translate(0 0)"/>
    <path d="M99.68,10.13c0-.09-.05-.18-.07-.26v.28Z" transform="translate(0 0)"/>
    <path d="M99.82,31.63h0v-.4l0,0Z" transform="translate(0 0)"/>
    <polygon points="99.56 14.73 99.66 14.7 99.65 14.1 99.57 14.01 99.56 14.73"/>
    <polygon points="99.54 20.62 99.54 20.62 99.54 20.62 99.54 20.62"/>
    <polygon points="100 87.78 100 87.67 100 87.67 100 87.78"/>
    <path d="M99.54,19.66l0,0c0-.19.06-.28.12-.3v-.17l-.15,0Z" transform="translate(0 0)"/>
    <polygon points="99.54 21.08 99.54 21.14 99.6 21.12 99.54 21.08"/>
    <path d="M99.87,41.65v.2h0V41.7Z" transform="translate(0 0)"/>
    <path d="M99.84,33.29h0v-.49h0Z" transform="translate(0 0)"/>
    <path d="M99.32,76.81v.1h.41l.24-.12V76h0C99.75,76.39,99.68,76.77,99.32,76.81Z" transform="translate(0 0)"/>
    <polygon points="99.59 7.96 99.59 7.84 99.59 7.95 99.59 7.96"/>
    <path d="M99.57,6.12h0V6h0Z" transform="translate(0 0)"/>
    <polygon points="99.59 7.84 99.59 7.51 99.59 7.51 99.59 7.84"/>
    <path d="M100,43l-.07,0v1.36c0-.3,0-.12.06-.07q0-.36,0-.75h0v-.81h-.07V43Z" transform="translate(0 0)"/>
    <path d="M99.38,6.12h.19V6Z" transform="translate(0 0)"/>
    <polygon points="99.53 1.78 99.61 1.78 99.62 1.36 99.53 1.28 99.53 1.78"/>
    <path d="M99.88,42.5a.61.61,0,0,1,.05-.12V42l0,0Z" transform="translate(0 0)"/>
    <path d="M99.88,42.94l.05,0v-.25h-.05Z" transform="translate(0 0)"/>
    <polygon points="99.55 4.05 99.61 4.03 99.61 3.36 99.55 3.38 99.55 4.05"/>
    <path d="M99.86,75.15c0-.11,0-.22,0-.33l-.25-.15-.29.27v.21Z" transform="translate(0 0)"/>
    <path d="M99.33,75.15v-.21l-.24.21Z" transform="translate(0 0)"/>
    <path d="M100,87.45v0h0Z" transform="translate(0 0)"/>
    <polygon points="100 87.45 100 87.41 100 87.41 100 87.45 100 87.45"/>
    <path d="M99,89.33v.22l.2-.08Z" transform="translate(0 0)"/>
    <path d="M98.88,51.47c0,.08,0,.05,0,0Z" transform="translate(0 0)"/>
    <path d="M99,90.45l.23.15v-.24l-.23,0Z" transform="translate(0 0)"/>
    <path d="M99.36,90.65l.34-.14v-.05l-.44-.1v.24Z" transform="translate(0 0)"/>
    <path d="M98.12,59.59l.17.56C98.33,59.75,98.45,59.62,98.12,59.59Z" transform="translate(0 0)"/>
    <path d="M99,51.49h0v0h0Z" transform="translate(0 0)"/>
    <path d="M99.93,89.17h0Z" transform="translate(0 0)"/>
    <path d="M99,89.67a.49.49,0,0,1,0,.17l.25.17v-.33L99,89.55Z" transform="translate(0 0)"/>
    <path d="M99.73,90.33c0-.14,0-.27,0-.39l-.51-.26V90Z" transform="translate(0 0)"/>
    <path d="M99.87,90.43h0l.12-.05v-.33l-.07,0h-.07v.41Z" transform="translate(0 0)"/>
    <path d="M99.86,90.21V90h0Z" transform="translate(0 0)"/>
    <path d="M99.79,92.79l.21-.1v-.13l-.2-.13Z" transform="translate(0 0)"/>
    <path d="M99.63,92.32l-.31.17v.21a1,1,0,0,1,.36.15l.11-.06v-.36Z" transform="translate(0 0)"/>
    <path d="M100,87.41v-.3h0v.3Z" transform="translate(0 0)"/>
    <path d="M99.26,92.48V92.4l0,.09Z" transform="translate(0 0)"/>
    <path d="M99.26,92.48v0l0,0v-.15a.88.88,0,0,1,0,.14l.29-.14-.19-.13h-.09c0,.08,0,.16-.07.23v.08Z"
          transform="translate(0 0)"/>
    <path d="M99.24,56.36c0-.1,0,0,0,0h0v0h0A.17.17,0,0,1,99.24,56.36Z" transform="translate(0 0)"/>
    <path d="M99.19,93.67v.16h0v-.15Z" transform="translate(0 0)"/>
    <path d="M99,88.3v0h0A.43.43,0,0,0,99,88.3Z" transform="translate(0 0)"/>
    <path d="M99.06,95.31h0Z" transform="translate(0 0)"/>
    <path d="M99,90.79l.23-.1V90.6L99,90.46Z" transform="translate(0 0)"/>
    <polygon points="99.35 90.66 99.27 90.61 99.27 90.69 99.35 90.66"/>
    <path d="M100,55.67v0Z" transform="translate(0 0)"/>
    <path d="M99.72,95.32h0Z" transform="translate(0 0)"/>
    <path d="M100,95.34v0h-.28Z" transform="translate(0 0)"/>
    <path d="M100,50.73v-.46l-.1,0v.44Z" transform="translate(0 0)"/>
    <path d="M99.83,50.47V50.3h0a3.91,3.91,0,0,0,0,.74h0v-.33h0v-.44h-.06A1,1,0,0,1,99.83,50.47Z"
          transform="translate(0 0)"/>
    <path d="M99.29,45V45a.14.14,0,0,1,.09.11h.06v-.29h-.12V45h0V45c-.06-.16-.06-.08-.06,0h0Z"
          transform="translate(0 0)"/>
    <path d="M99.46,45.16a2.18,2.18,0,0,1,0-.28h0v.29Z" transform="translate(0 0)"/>
    <path d="M99.4,56.46v-.19c0,.1,0,.26,0,.41h.42l0-.38a3.48,3.48,0,0,0-.47-.07Z" transform="translate(0 0)"/>
    <path d="M99.4,56.23v0Z" transform="translate(0 0)"/>
    <path d="M100,56.34V56h-.09v.33Z" transform="translate(0 0)"/>
    <path d="M99.87,56.3h0V56h0Z" transform="translate(0 0)"/>
    <path d="M99.21,40.08a.83.83,0,0,0-.06-.21s0,0,0,0h0s0,.11,0,.23Z" transform="translate(0 0)"/>
    <path d="M99.44,76H100l0,0v-.79Z" transform="translate(0 0)"/>
    <path d="M100,76l0-.06v-.79l0,.06Z" transform="translate(0 0)"/>
    <path d="M99.11,71.35,99,71.4v.15l.11-.07Z" transform="translate(0 0)"/>
    <path d="M99.33,74.31a.18.18,0,0,1-.15-.09l-.13.06.28.18Z" transform="translate(0 0)"/>
    <path d="M99.62,74.65l.25-.25c0-.13,0-.25,0-.37h0l0,.25a2,2,0,0,0,0-.24,1.09,1.09,0,0,1-.52.26v.15Z"
          transform="translate(0 0)"/>
    <polygon points="100 74.9 100 74.33 99.96 74.36 99.97 74.87 100 74.9"/>
    <path d="M99.93,74.85l0,0v-.51l0,0C99.94,74.55,99.94,74.72,99.93,74.85Z" transform="translate(0 0)"/>
    <path d="M100,87.67v-.26h0Z" transform="translate(0 0)"/>
    <path d="M100,75.15h0V74.9l0,0Z" transform="translate(0 0)"/>
    <path d="M99.93,74.86c0,.19,0,.26,0,0h0l0,.31H100v-.27Z" transform="translate(0 0)"/>
    <path d="M100,10.86V10l-.21.06v.69A.56.56,0,0,1,100,10.86Z" transform="translate(0 0)"/>
    <path d="M99.75,10.77h0v-.69l-.11,0A2.62,2.62,0,0,1,99.75,10.77Z" transform="translate(0 0)"/>
    <path d="M99.76,87.05a1.14,1.14,0,0,0,.18.33V87.1Z" transform="translate(0 0)"/>
    <path d="M99.94,87.38s0,0,0,0h0v-.3h-.06Z" transform="translate(0 0)"/>
    <path d="M100,87.41v-.3h0v.3Z" transform="translate(0 0)"/>
</svg>