<svg xmlns="http://www.w3.org/2000/svg" viewBox="0 0 100 100" width="10em" height="10em"><path d="M33.66,48.6h0Z" transform="translate(-0.18)"/><path d="M60.52,51.93c.37,0,1.07,0,1.48-.07-.08,0-.27,0-.42,0h.05l.36,0h.27c.66-.09,1.73-.09,2.55-.13.12.06.94.11,1.36.2l.44-.12h0c-.21,0-.32,0-.27,0-.38-.06,0-.05,0-.12a6.33,6.33,0,0,1,1,0l.5,0a2.35,2.35,0,0,1,.38,0h-.06l.08,0a16.56,16.56,0,0,0,2-.14c-.49.09.13.1.13.16s-.56,0-1.33,0c.05,0,.1,0,.11,0,.67.06,1.14-.07,2.11,0-.06,0-.19,0-.14,0a2.24,2.24,0,0,0,.74-.08,4.27,4.27,0,0,0,1.18.07,2.93,2.93,0,0,1,.86-.07l-.26,0c.69,0,.56-.07,1.12,0-.22,0-.24,0-.07,0a5.51,5.51,0,0,0,1.24-.15l-.09.08a7.29,7.29,0,0,1,1.76,0c-.19-.14,1.32-.09,1.85-.09-.18,0-.22,0-.23.05,1.1-.1,2.24,0,3.36,0l.18.11c.59,0,.76-.22,1.41-.22l-.24,0c1.14,0,1.6,0,2.53,0l0,.07,1.07-.07c.76.16,3-.12,4.37.07l.09-.14a6.09,6.09,0,0,1,1.45.07h-.12c0,.1.53,0,.86,0s.5-.08.28-.09c1.4,0,3.48,0,4.35.08l1.44-.08V48.67c-.72,0-1.49,0-3-.11l3,0v0c-2.19-.05-4.51,0-6.88,0h0l-8.19,0A81.19,81.19,0,0,0,77,48.45c-1.79,0,2.7.15-5.78.14,0,0,7.41,0,3.45-.08-8.33,0-2.7,0-10.28-.08-4.34.07-8.3,0-9.22.09-2.57-.08-2-.06-6.54-.11h-.39c.12,0-2.53,0-5.11.06a16.69,16.69,0,0,1-2.59.07l.12,0c-.54,0-.41,0-.34,0h-.45c-.38,0-1.08,0-1.49.06a4.11,4.11,0,0,1,.43,0l0,0c-.27,0-.41,0-.37,0l-.26,0c-.66.09-1.74.09-2.56.13-.11-.06-.93-.1-1.36-.2l-.43.12h.3c.38.05,0,0,0,.11a6.16,6.16,0,0,1-1,0h-.83l-.08,0a14.8,14.8,0,0,0-2,.14c.5-.09-.12-.1-.12-.17h1.33c-.06,0-.1,0-.11,0-.67-.06-1.14.07-2.11,0,.06,0,.18,0,.14,0a2,2,0,0,0-.74.07,4.34,4.34,0,0,0-1.19-.07,2.76,2.76,0,0,1-.85.08l.25,0c-.68,0-.56.07-1.12,0,.23,0,.25,0,.08,0a6.06,6.06,0,0,0-1.24.15l.09-.07a7.11,7.11,0,0,1-1.76,0c.19.15-1.33.09-1.85.09.18,0,.21,0,.23,0-1.11.11-2.25,0-3.37,0l-.18-.1c-.59,0-.76.22-1.4.22l.23-.06c-1.14,0-1.6,0-2.52,0l0-.07c-.33,0-.75,0-1.08.08-.75-.17-3,.11-4.37-.07l-.08.13A6.76,6.76,0,0,1,7,48.86h.11c0-.1-.52,0-.85,0s-.5.08-.29.1c-1.4-.06-3.48,0-4.35-.08l-1.44.07v2.82c.73,0,1.49,0,3,.11l-3,0v0c2.2,0,4.51,0,6.89,0h0l8.19,0c3.45,0-2,.14,8.13.12,1.8,0-2.7-.15,5.78-.14,0,0-7.4,0-3.44.08,8.32,0,2.69,0,10.27.09,4.35-.07,8.31,0,9.22-.09,2.58.08,2,.05,6.54.11h.39c-.11,0,2.53,0,5.12-.06a15.6,15.6,0,0,1,2.59-.06l-.13,0c.55,0,.42,0,.34,0Zm30.92-.42-.26,0h-.24ZM8.93,48.91l.26,0h.23Z" transform="translate(-0.18)"/><path d="M66.7,51.83h0Z" transform="translate(-0.18)"/><path d="M32.91,48.6h.78l.07,0A3.29,3.29,0,0,0,32.91,48.6Z" transform="translate(-0.18)"/><path d="M67.45,51.82h-.77l-.07,0A2.81,2.81,0,0,0,67.45,51.82Z" transform="translate(-0.18)"/><path d="M66.86,51.77h0l.36,0a.93.93,0,0,0-.3,0Z" transform="translate(-0.18)"/><path d="M40.22,48.45h-.13l0,0Z" transform="translate(-0.18)"/><path d="M62,52l.14,0-.4,0A1,1,0,0,0,62,52Z" transform="translate(-0.18)"/><path d="M33.51,48.65h-.39a.84.84,0,0,0,.31,0Z" transform="translate(-0.18)"/><path d="M100.18,52.48c-4.29,0-8.46,0-12.44,0l-18.44,0h-.17c-.53,0,7.37.06,1,.07,1.11-.06-3.84,0-4.15-.06-5.09.06-8.21,0-11.46,0l-.4,0,7.26.11-.86,0c7,0,11.76,0,16.35.13.23,0,0,0-.86,0,3.39,0,7.45.22,8.39.1l-1.25,0,17.05.1Z" transform="translate(-0.18)"/><path d="M44.15,47.63h0Z" transform="translate(-0.18)"/><path d="M79.4,53.1l-4.3,0v0c-6,0-12.54-.25-18.59-.25l.32,0,.9,0c1.12,0,2.47,0,2.3.05l-2.3-.05-.9,0h-.15c2.08.11-4.7,0-6.55,0-.41,0-.6-.06-1.64-.08-.06.08-2.34,0-3.21,0-2.08-.06.27-.09-3.3-.13-1.38,0-1.55,0-1.38,0l.26,0a1.32,1.32,0,0,1-.26,0c-.76,0-3-.11-4.92-.14.64,0,1.67,0,2.1,0,.24,0-1,0-1-.09-1.67,0-.68.06-2.77,0l1.94,0c-.83,0-1.9,0-2.32,0,.83,0,1,0,1,0H32.11s1.39.12,1.24.16c-4.6-.11-8.22-.09-11.79-.14h.07l-7.85,0h.44l-6.31,0H1.13l1.64,0h0l-2.59,0v.54H3.43L1,52.84a36.12,36.12,0,0,1,4.28.08c3.74-.06,4.53,0,8,0-3.69,0-.06,0-2.76,0,3.87,0,4.17,0,6.86,0a10.31,10.31,0,0,0,2,.08c2.51,0,6.81,0,10.31,0v0c5.88,0,12.26.12,18.18.06H46.67c-1.1,0-2.41,0-2.26,0l2.26,0h1c-2-.09,4.59-.05,6.4-.07.39,0,.58,0,1.61,0,0-.07,2.28,0,3.13-.06,2,0-.26.09,3.23.09,1.35,0,1.51,0,1.35-.06a1,1,0,0,1-.26,0,1.32,1.32,0,0,1,.26,0c.74,0,3,.07,4.81.08-.63,0-1.64,0-2,0-.24,0,1,0,1,.08,1.64,0,.66-.07,2.71,0l-1.9.05c.82,0,1.87,0,2.27,0-1.24,0-1.07.08-.89.11,4.75,0,.93-.15,1.18-.22C73.89,53.14,76.72,53.11,79.4,53.1Zm-63-.16c.22,0-1.62-.06.24-.06Z" transform="translate(-0.18)"/><path d="M52.21,47.33h0Z" transform="translate(-0.18)"/><path d="M49.9,48h.85a.5.5,0,0,0,.23-.06h-.4c.71,0,.11,0-.62.05Z" transform="translate(-0.18)"/><path d="M48.16,53.09h0Z" transform="translate(-0.18)"/><path d="M56.21,52.79h0Z" transform="translate(-0.18)"/><path d="M.18,47.94c4.3,0,8.48,0,12.47,0l18.41,0h.17c.54,0-7.37-.06-1-.08-1.11.06,3.84,0,4.15.07,5.08-.06,8.21,0,11.45,0l.4,0L39,47.81l.87,0c-7,0-11.76-.06-16.36-.14-.22,0,0,0,.87,0-3.4,0-7.46-.23-8.39-.1l1.25,0L.18,47.43Z" transform="translate(-0.18)"/><path d="M50.46,52.45h-.85l-.22.06h.39c-.71,0-.1,0,.62,0Z" transform="translate(-0.18)"/><path d="M60.31,52h0Z" transform="translate(-0.18)"/><path d="M21,47.33l4.3,0v0c6,0,12.53.24,18.59.24h-.33l-.9,0c-1.12,0-2.46,0-2.3-.06l2.3.06.9,0h.16c-2.08-.1,4.7,0,6.55,0,.4,0,.59.06,1.64.07.06-.07,2.34,0,3.2,0,2.08.05-.26.08,3.31.13,1.38,0,1.54,0,1.38-.06l-.27,0,.27,0c.75.05,3,.11,4.92.15-.64,0-1.68,0-2.1,0-.24,0,1,0,1,.09,1.68,0,.68-.06,2.77,0L64.4,48c.84,0,1.91,0,2.32,0a3.78,3.78,0,0,0-1,.05h2.56s-1.39-.13-1.23-.17c4.59.12,8.21.09,11.78.14h-.06l7.84,0h-.44l6.32,0h6.78c-.25,0-.75,0-1.59,0h2.53v-.54H96.93l2.45,0a38.06,38.06,0,0,1-4.28-.07c-3.74.05-4.53,0-8,0,3.7,0,.07,0,2.77,0-3.88,0-4.18,0-6.86,0a13.66,13.66,0,0,0-2-.08c-2.5.05-6.8,0-10.31.05v0c-5.88,0-12.26-.12-18.18-.06h1.2c1.1,0,2.41,0,2.25,0l-2.25,0h-1c2,.08-4.6,0-6.4.07-.4,0-.59-.06-1.61-.06-.06.07-2.29,0-3.13.06-2,0,.26-.08-3.23-.09-1.35,0-1.51,0-1.35.07a1.09,1.09,0,0,1,.26,0l-.26,0c-.74,0-3-.08-4.81-.09.62,0,1.63,0,2,0,.23,0-1,0-1-.08-1.63,0-.66.07-2.7,0l1.89-.06c-.82,0-1.86,0-2.27,0,1.25,0,1.07-.07.89-.11-4.75,0-.92.16-1.17.22C26.48,47.29,23.64,47.32,21,47.33Zm63,.15c-.23,0,1.61.06-.24.07Z" transform="translate(-0.18)"/><path d="M38.23,48.5l.4,0a.88.88,0,0,0-.25,0Z" transform="translate(-0.18)"/><path d="M53.86,52.46H53.3v0h.6Z" transform="translate(-0.18)"/><path d="M48.51,52.46a.53.53,0,0,0,.19,0l-.52,0,.85,0Z" transform="translate(-0.18)"/><path d="M53.15,52.47h.08S53.2,52.47,53.15,52.47Z" transform="translate(-0.18)"/><path d="M52.7,52.46h-.8l.88,0Z" transform="translate(-0.18)"/><path d="M50.78,52.46h0Z" transform="translate(-0.18)"/><path d="M18.56,47.31l.42,0c-1.44,0-2.24,0-2.83,0Z" transform="translate(-0.18)"/><path d="M78.54,48h0Z" transform="translate(-0.18)"/><path d="M100,53.42h.14v0h-.26c-1.21,0-2.45,0-3.7,0,.11,0,2.39,0,2.13-.07H96.11l-3.21,0,.25,0c-4.75-.08-1.86.15-5.34,0,.11,0-.33,0-.12.06l.53,0-.53,0c-1.29,0-4.31-.1-1.32-.13-1.65,0-3.53,0-4.37,0,1.4,0,1.74,0,2.27.09H77.61c-.75,0,.55,0,1.48,0-7.82-.18-15.82.1-24.64-.12,1,0-.64,0-1.49.07-2.86,0-7.18,0-9.83-.06l.84,0c-6.8,0-11.5.06-16,0-.22,0,0,0,.85-.06-3.32.06-7.3-.15-8.21,0h1.23c-6.56,0-13.82,0-20.6,0-1.59-.08,3.91,0,2.52-.09l-3.59,0v47.25h100v-47Z" transform="translate(-0.18)"/><path d="M86.4,53.13a7.39,7.39,0,0,0-1.38.08h2.69C88,53.19,87.25,53.15,86.4,53.13Z" transform="translate(-0.18)"/><path d="M14,47.3a5.93,5.93,0,0,0,1.38-.09H12.66A5.4,5.4,0,0,0,14,47.3Z" transform="translate(-0.18)"/><path d="M81.8,53.11l-.42,0c1.44,0,2.25,0,2.84,0Z" transform="translate(-0.18)"/><path d="M.33,47H.18l.27,0c1.21,0,2.44,0,3.7,0-.11.06-2.4,0-2.14.07H4.26l3.21,0-.25,0c4.75.09,1.85-.14,5.33,0-.11,0,.34,0,.12,0l-.52,0a4.55,4.55,0,0,1,.52,0c1.3,0,4.32.09,1.32.12,1.65,0,3.53,0,4.38,0-1.4,0-1.75,0-2.28-.09h6.67a9.39,9.39,0,0,1-1.49,0c7.82.19,15.83-.09,24.64.13-1,0,.65,0,1.49-.08,2.86,0,7.19,0,9.84.06l-.85,0c6.81,0,11.5-.07,16,0,.22,0,0,0-.84,0,3.32,0,7.29.16,8.2,0l-1.22,0c6.56,0,13.82,0,20.59,0,1.59.08-3.9,0-2.52.1h3.59V0H.18V47Z" transform="translate(-0.18)"/><path d="M47.22,48l.27,0h-.35Z" transform="translate(-0.18)"/><path d="M21.82,52.39h0Z" transform="translate(-0.18)"/><path d="M46.51,48h.56v0h-.61A.07.07,0,0,1,46.51,48Z" transform="translate(-0.18)"/><path d="M51.86,48l-.2,0,.53,0-.85,0C51.47,47.94,51.62,48,51.86,48Z" transform="translate(-0.18)"/><path d="M47.66,48h0Z" transform="translate(-0.18)"/><path d="M49.59,48h0Z" transform="translate(-0.18)"/></svg>