<svg xmlns="http://www.w3.org/2000/svg"
     viewBox="0 0 839.83 627.28" width="100%" height="100%">
    <path d="M815.34-10.16l.32,12.32a11.29,11.29,0,0,0-.38,2.11c0,6.65,0,13.3,0,19.94.17,14.29.4,28.58.59,42.87q.27,19.83.53,39.67.28,21.06.58,42.12.29,20.32.55,40.65.28,20.94.58,41.89.27,20.33.55,40.65.33,23.9.7,47.79c.09,5.5.25,11,.39,16.5q1,39.56,2,79.1.45,17.87.9,35.73a17.1,17.1,0,0,1-.39,2.81c0-.49,0-1,0-1.47q-.78-28-1.59-56.1a9.86,9.86,0,0,0-.63-2.3l0,0c-.27-13.31-.56-26.62-.8-39.93-.07-4.27,0-8.54,0-12.81,0-2,0-3.95-.2-5.91-.08-1-.84-1.8-.51-3a16,16,0,0,0,.46-4.37c-.06-4.19-.24-8.38-.35-12.57q-1.08-41.65-2.14-83.32l-.08-2.78-1.46.72c0-.51-.17-1,0-1.12,1.05-1.07,1.21-2,0-3.1-.17-.15.09-.79.16-1.3l1.06.59-.49-19.16c-2.46-.37-.57,1.84-1.76,2.34-.73-.2-1.62-.4-2.47-.68-1-.34-2-.79-3-1.11s-1.83-.28-2,1.2c3.52,2.47,8.26,4,8.66,9.47a33.21,33.21,0,0,0-3.52,1.62c-1.69,1-3.29,1.5-5-.16l-1.43,1.41c2.1,3.73,1.67,6.28-1.38,9.12a4.09,4.09,0,0,0-1.24,1.47,9.06,9.06,0,0,1-4.54,5,2.28,2.28,0,0,0-1.22,3c2.89.45,5.17,1.82,6.25,4.66L802,245.05c.9,1.22,2.57,1.37,3.18,2.76-2.13.92-4.49.49-6.72,1.9,2.35,1.58,5.43.32,7.26,2.5-1.91,1.52-4.59,1-6.62,2.78l3.58.17c.86,3.56.87,3.53,4.23,3.93,1.09.13,2.17.45,3.62.75l-3.2,3.56c-2.56-1-2.56-1-2.94.26l2.82,1.08c-3.38,2.69-7.92,2.75-10.92,6.26,1.09,0,1.92-.31,2.28,0,1.89,1.53,4,1.2,6.18,1.11a3.89,3.89,0,0,1,3.44,1.18,10.77,10.77,0,0,1-1.13.46c-1.76.45-3.54.86-5.3,1.33-.72.2-1.61.48-1.44,1.4a3,3,0,0,0,1.14,1.72,12.41,12.41,0,0,0,2.46,1.06l-.58,1.14c2.19.88,5.17.57,5.82,3.84l-2.48,1.21,3.42,4.87-2.69,2.77c1.55,2.26,1,4.38,0,6.66l-2.78-1.65c-.77,2.23-.56,4.09.87,5.6-.91,1.31-1.64,2.38-2.41,3.51l3.6,4-1.52,2.23,1.75,1.17-3.41,3,.67,1.23c-1.73,1.85-1.6,2.51.75,2.95a2.88,2.88,0,0,1,2.13,1.46c.47.77,1,1.49,1.57,2.28a6.49,6.49,0,0,1,5.28,2.12l-3.58,1.82.18.46,3.38-.93a15.55,15.55,0,0,1-.41,3.49,4.37,4.37,0,0,0,.67,4.78,5.41,5.41,0,0,1,1,4.9c-.33,1.35-.69,2.69-1,4,.5,1,1.58,1.82.82,3.14-.1.17.13.66.35.83.86.65.55,1.47.4,2.26-.4,2.1-1,4.17-1.21,6.29-.38,3.49-2.15,5.51-5.63,6.26a8.71,8.71,0,0,0-2.66,1.58c-.54.36-1,.81-1.55,1.2-.18.15-.39.26-1,.66l2.15-.16.1,4,.31,0,1.54-5.56c1.65,2.35,2.83,4.41,5,5.72.58.35.82,1.37,1.07,2.13q.94,2.91,1.73,5.87a2.51,2.51,0,0,1,0,1.79c-1.07,1.64-.56,2.94.58,4.23.49.56.95,1.14,1.4,1.73,1.14,1.54,2.37,3.06,1.17,5.14a1,1,0,0,0,0,.72,5,5,0,0,1-1.3,5.12c1,2.34,1,2.36.59,3.32-.75,1.65-1.93,3.22-.37,5l-3.13.69,2,3.76-1.94,2.39,2.66.41c-.73.87-1.43,1.49-.9,2.68a3.18,3.18,0,0,1-.82,3.22l-2.34-1.23c-3.67,3-7.1,6.29-11.57,8.05,0,0,0,.14-.09.3l1.13,1.54c-2.9.76-2.24-2.3-3.66-2.92-1.24,1.58-1.26,2.19,0,3.28a5,5,0,0,0,3.89,1.28l2.28-.2,0,1.73c-1.51.72-3.3-.68-4.59.88a6.26,6.26,0,0,0,2.17,3.19c.94.91,2,1.71,2.23,3.16.07.41.72.84,1.19,1a10.94,10.94,0,0,0,2.22.38c-1,2,.26,3.33,1.12,4.8s1.68,3,2.65,4.7l-6.58.88,2.59,1.72.13,5-5.64,5.2,2.14.6c-.62,1.27-1.13,2.46-1.76,3.6a34,34,0,0,1-2.58,4.2c-1,1.28-2,1.22-3.08,0a23.45,23.45,0,0,1-1.5-2.27,2.44,2.44,0,0,0-2.51-1.43l1.1,8.13c-1.83.83-2.05,2.27-1.76,4,.21,1.21.26,2.45.5,3.66a2.89,2.89,0,0,0,.77,1.75,3.46,3.46,0,0,1,1.45,3.74l2.31-.22c-.69-1.44-.69-1.44.65-2.41l3.38,3.44-8,4.81c.5,2.48,2.65,2.81,4.75,3.28l-.27,1.5,1.68,1.41-2.28,1.64,4.27,1.93c-.95,1.85-2.49,2.81-4.29,3.93,2.36.37,2.4,2.55,3.59,3.75,2.06-1.81,3.52.17,5.58.59l-4.53,5.53-1.27-2.86c-2,.22-3.69-2.54-6-.41l-.32-1.47-2,.15,1.83,3-1.57,2.5.29.4,4.2-1,.24.27-3.2,3.28.2.24,2.73-1.37c-.4,2.42-.2,4.32,2.08,5.21a9.66,9.66,0,0,0,2.34.5c1,.11,1.71.46,1.63,1.6-.9.73-2.55-.16-2.92,1.63l2.72,1.5-4.61,4.4,1.17.66.48,3.79-1,1.28,2.87.79-1.86,1.66-2.69-1.38-.36.51,3.16,3.1.18,2.24,2.8.1-.83,2.32,1.17,2.23a12.55,12.55,0,0,1-6.64,5l1.36,1.18-1.94,3,2.31.27-4.58,5.8c1.24,1.32,2.35,1.59,3.64.6l-1-1.62,3.82-.54-1.16,1.73,1.46,1.87-5.3.59,2.4,3.31c-4-.22-5.52-3.52-8.17-4.59-.77,1.83-.34,4.11-2.33,5.23.65,2-1,2.61-2,3.74-.78-.54-1.46-1-2.11-1.48-2-1.49-3.95-3-5.95-4.46a1.67,1.67,0,0,0-2.27-.15,1.72,1.72,0,0,0-.23,2.44c.35.59.62,1.24,1.13,2.3-2.14-.82-3.78-1.85-6.16-1.07,1.79,1.3,3.1,2.55,2.36,4.6-3.43.68-3.85.48-5.49-2.76l-4.18,2.67-.34-2.31-2.46-.36-1.1-2.45-.65.11c-1,2.47.94,5.25-.45,7.71-3,.5-3.7-2.37-5.49-3.68-1.17,1.33-2.6,1.26-4.16,1.11-2.93-.27-4.29,1.29-3.72,4,0,.12-.13.28-.21.42-2.12.22-2.71,0-3.75-1.11-2.26-2.51-5.61-2.27-7.58.57a14.82,14.82,0,0,1-2.66.28,4.55,4.55,0,0,1-1.93-.75c-.85-.54-1.61-1.22-2.4-1.84s-.58-2.21-2.4-1.71l.81,2.89a8.75,8.75,0,0,1-1.27-.12c-1.78-.43-3.24-.18-4.13,1.66a1.82,1.82,0,0,1-1.17.72c-.91.21-1.85.28-3.11.44L712,585.21l-2.16,2.42-2.28-1.15-.71,1.25a3,3,0,0,1-.86-.12c-1.59-.85-3.14-1.35-5-.48-.51.25-1.36-.18-2.06-.3l.44-2.3c-1.6-.76-1.85.55-2.28,1.37-4.46-1.32-4.67-1.3-6.31.78l3.34,1.75-3,1.26c-1.42-2.32-1.42-2.31-4.23-2-.68.08-1.47.57-2-.5l1.28-1.86c-1.52-1.22-1.6-1.3-2.86-.11a4.47,4.47,0,0,1-4.81,1.1c-1.87-.67-3.33-.52-4.65,1.06a2.94,2.94,0,0,1-3.84.66l-3.86-1.85-2.93,2.57-2.21-3-1.58,3.09a16.09,16.09,0,0,0-9.2-1.3c-2.79.37-5.55.91-8.33,1.39-.07,0-.11.27-.18.46l1.66,1.32a2.76,2.76,0,0,1-3.27,1c-2.52-1-5.19-.8-7.77-1.25l-.63-1.29-3.58,1.62.25,1.76-2.81.59-.5-3a9.38,9.38,0,0,1-2.33-.31,6.34,6.34,0,0,0-5.51.39c-3.78,1.81-7.24,1.05-10.4-1.4a7.6,7.6,0,0,0-4.51-1.94c-.38,2-2.25,2.68-3.57,3.8s-2.36,2.82-4.58,2.73c-.15-1-.29-1.93-.44-3-1.11.25-2,.57-3-.24-.66-.49-2.24-.1-3.25.29a20.65,20.65,0,0,0-3.37,2.07l.23,1.29c-1.66-.28-3.11-.63-4.58-.73-2-.14-4.26-.58-6.13,0a16,16,0,0,1-9.74-.08,2.06,2.06,0,0,0-2.25.47c-2.12,1.89-4.66,1.93-7.26,1.29-1.85-.45-3.66-1.06-5.49-1.56a4.88,4.88,0,0,1-3.45-2.58c-.08-.19-.36-.3-.56-.45l-1,1.18-3-1.91a8.33,8.33,0,0,1-1,2.42c-.79.93,0,1.64.27,2.45a4.35,4.35,0,0,1-3.7-.63,3.13,3.13,0,0,1-1.6-3l-2.86-.21.79-2-2.88-.06-1.1,1.87-2-.19-.61,1.15c-1-.83-.36-1.44.31-2s1.57-1.17,2.33-1.73l-1.56-2.82-2.09,1.39c-.31-.8-.56-1.44-1-2.71-1,2.49-1.73,4.43-2.54,6.52l-2.94-.57c.06-.87.11-1.55.18-2.43l-1.83.62,1.22,2.56-1.59,1.56c.25.88.47,1.65.77,2.68l-3.95.1,1.15-2.47c-2.8-.47-5.39-1.06-8-1.27-1.34-.11-2.73.5-4.1.75-.82.14-1.64.23-2.47.31-3.05.3-6.1.57-9.15.88-.79.08-1.57.26-2.33.39l0,1.58-5.22-.89c-.71,2.1-2.68,1.33-4.22,1.69-.38,1.38-.75,2.69-1.15,4.15l-4.68-.85,1.56-1.22c-1.95-1-1.95-1-4.24,1.31a2,2,0,0,0-3.09.66l.3,1.17-3.63.52c1.08,1.3,2.23.88,3.24.87q19.39-.21,38.78-.49l42.75-.6,40.26-.55q21.39-.28,42.76-.6l40.76-.56,42.5-.59q20.38-.28,40.76-.56,23.37-.35,46.74-.71c4.55-.07,9.11-.19,13.67-.3,2,0,3.95-.1,5.93-.15a5.28,5.28,0,0,1-2.61.51q-17.64.21-35.29.42-21.13.27-42.26.59l-41.26.57-42,.58-41.26.57-42,.59q-20.62.29-41.26.57c-14,.19-28,.36-42,.59-7.79.12-15.58.33-23.37.51-1.55,0-3.28-.36-4.07,1.73a5.8,5.8,0,0,0-4.89-1.7c-4.12.13-8.26.06-12.39.11-12.84.16-25.68.3-38.52.5-8.54.14-17.07.38-25.61.57-.58,0-1.16,0-1.74.07-1,.07-2,.18-3.45.31l-1.65.88.57-1.43c-3.56.09-6.78.21-10,.25q-20.49.3-41,.57l-42.47.6-40.74.55q-21.36.3-42.72.61c-8.95.14-17.89.35-26.84.52a16.32,16.32,0,0,0-3.7,0,12.25,12.25,0,0,0-3.06,1.75l.89-1.43-.25-.19-1.08.66c-.4-.24-.8-.69-1.2-.69-2.27,0-4.54.14-6.39.21l-.91,1.68-1.18-2a24.73,24.73,0,0,1-2.78.32c-3.06,0-6.12-.11-9.17-.06-3.88.07-7.76.32-11.65.36-5.12,0-10.25-.09-15.37,0-6.45.06-12.91.24-19.36.32-7.85.09-15.71.13-23.57.19-1.19,0-2.32,0-2.61,1.58-.09.43-.81.72-1.13,1.15a9,9,0,0,0-.74,1.41l.07-.06-.91-1.41c1.24-.48,2.75-.57,2.17-2.46l-44.43.59a2.19,2.19,0,0,0,1.48.92c1.54.27,3.08.54,4.62.74a.86.86,0,0,1,.86,1h0c-1-.29-2-.63-3-.86-1.85-.41-3.71-.75-5.57-1.1a18.87,18.87,0,0,0-3.61-.59c-5,0-9.94.23-14.91.31-2,0-4.11-.1-6.2-.16C.42,580.14,0,551.7-.38,523.26h.31L.27,536.5c2.9-.52,2.92-.54,5.44,1a3.09,3.09,0,0,0,3.71.1,5,5,0,0,0,2.38-2.88c-.82-.19-1.72-.14-2.19-.57a5.56,5.56,0,0,1-.93-2l-2.44-1v-.55l4.19-1.74-.05-.39-6.49-.38a23.12,23.12,0,0,0,2.92-9.66,4.74,4.74,0,0,1,2.44-3.56c.75-.48,1.55-.91,2.31-1.36a6.12,6.12,0,0,0-2-6c1.07-1.94,3.17-1.1,5-2l-5.66-1.47a11.3,11.3,0,0,1,1.61-6.88L6.25,496l-.52-.46c2.12-.39,1.13-1.5,1.12-2.38l2.32-1.22-.1-4,8.45-1.63c-.15-.88-.27-1.55-.35-2-2.73,0-5.17.06-7.62.11a1.39,1.39,0,0,0-.66.29c-1.26.84-2.51.55-3.8.09-1.78-.63-3.57-1.19-5.72-1.9.32,2.2-.56,4.19.82,5.54a14.5,14.5,0,0,0-.56,2.74c0,3.12.09,6.25.16,9.37.09,3.92.2,7.84.3,11.77h-.4l-.57-22.13-4-1.22c1-1.59,2.62,1.29,4-.14l-1.61-.87,1.51-.14c0-2,.26-3.84-.4-5.79l-1.19.6-.48-.16-.91-.06c.86-.64,1.42-1.24,1-2.14l1.84,1A4.13,4.13,0,0,0-1,480.4a3.29,3.29,0,0,0-.26-.77l-1.76.63c.1-.22.19-.44.3-.66s.38-.71.57-1.07c1.48-1,1.57-2.77.23-4.37,1.12-1.2,1-2.73.94-4.17q-.25-21.32-.59-42.63c-.14-8.71-.38-17.42-.57-26.13,0-.57,0-1.15.05-1.73l.4,0q.55,36.54,1.11,73.15c2.85-.83,3.24-.64,4.44,2,.14.31.35.6.68,1.16l1.25-3.13c1.39-.52,3.09-.23,3.78-2-2.59.49-2.59.49-4.09-.88a20.73,20.73,0,0,0,1.58-1.52c.41-.46,1.11-1.21,1-1.49-.48-.93.29-1.19.68-1.64-1.76-2-5.46-1.86-5.94-5.37,2.08-.36,2.69,1.34,4,2.3,1.51-2.53,5-2.9,6.12-5.79-1.21-1.46-2.5.11-4.05-.21l-2.5-4.19c.36-.45.55-.88.87-1.06,3-1.66,3.48-4.35,3.13-7.41a5.61,5.61,0,0,1,0-1.23c.2-2.68.56-5.29,3.67-6.33.17-.05.27-.29.4-.43-.18-.21-.26-.37-.39-.45-1.5-.84-3.21-1.46-3.27-3.63,0-.34-.65-.68-1-1-.56-.44-1.16-.85-1.51-1.1.4-1.5.73-2.74,1.16-4.33l2.23-1.68c.85-.64,1.69-1.29,2.53-1.94l-.31-.41L9.2,423l-1.6-2.21c-.63.41-1.19.71-1.67,1.1a41.51,41.51,0,0,1-3.44,2.82,3,3,0,0,1-2.28.17c-.95-.32-.53-1.26-.35-1.94.94-3.41,1.87-6.83,4.06-9.72a2.61,2.61,0,0,0,0-3.58c-.31-.39-.76-.81-.77-1.24s.37-1,.62-1.5L1.11,405l.94-1.55-1.33-.75a13.68,13.68,0,0,0,.2-2.79A4,4,0,0,0,0,397.8c-1.78-1.93-1.46-4,.89-5,.49-.2.94-.47,1.59-.8l-3.81-2.6L3,387.24l-3.74-2L.92,384c-1.44-2.29-1.44-2.29-.14-4.45.29-.49.57-1,.91-1.6-1.53-1.67-1.2-3.35.24-4.88-.33-.4-.48-.73-.75-.89-.85-.49-1.74-.92-2.75-1.44l-.26-10.44a5.49,5.49,0,0,1,4.59.75c3.23-2.23,7.74-2.18,9.85.16,2.72-1,3.47.95,4.16,3.37L18,362,20,364.16c.1-1.77.17-3,.25-4.58-2,.93-3.31.15-4.62-.85-1-.74-2.07-1.3-3.17-2l-.87,1.55c-3.63-.14-7.34.78-10.65-1.75l2.46-2.11-3.55-1.82,1.89-.94c-.14-2.31-1.35-3.3-3.46-3.58a20.87,20.87,0,0,1-3.41-1c0-1.7-.06-3.18,1.7-3.85-.71,1.07-1.63,2.07-1,3.61l1.59.14c.22-2.53.22-2.53-.6-3.71.9-.62.74-1.56.73-2.45q-.23-18.33-.45-36.65-.25-20.42-.56-40.83Q-4,251.89-4.3,240.45a15.66,15.66,0,0,0-.68-3c1.15-2.63.54-5.29.51-8.19l-3.93,1.63,4.23-2.91c-.39-1.32-.79-2.67-1.18-4,1.06-.14.95-.94.94-1.67q-.07-3.17-.19-6.33c0-.26-.23-.51-.43-.95l-1,1.28c0-.48-.06-1.3.16-1.4C-4,214-4.55,212.42-4.57,211c-.12-5.83-.33-11.65-.39-17.48,0-3.83.39-7.69-1-11.41.3-.08.88-.15.88-.23,0-1.45-.07-2.9-.19-4.34,0-.13-.55-.22-.85-.33.45-.69,1.51-1.18.74-2.3l-2.93.44,1.31-1.9,0,1.35c1.1-.67,2-1.09,1.55-2.52l-.95.44c-.41-.31-.78-.8-1.22-.87a12.52,12.52,0,0,0-2.37,0l-.23-.48,1.58-1.13-.3,1,3.73-.09c-.07-.73-.12-1.28-.21-2.12l-3.3,1.32L-5.17,168c0-.62,0-1.35-.06-2.09-.07-5.4-.15-10.8-.21-16.2,0-3.6,0-7.2-.14-10.8-.07-2.09-.75-2.56-3-2.49.16-.3.32-.61.55-1l-2.24.24c.06-.62.11-1.07.17-1.66l-2,.05,2.84-.81.05,1.66A20.13,20.13,0,0,0-7,134.77a1.36,1.36,0,0,0,1.36-1.46c-.09-3.41-.18-6.81-.26-10.16l-1.93-.41a6.63,6.63,0,0,1,.76-1.52c1.22-1.25,1.19-2.75,1.12-4.32-.11-2.16-.13-4.32-.18-6.48l.46,0,.14,5.73c3.19,1.17,3.19,1.17,6.28-1.19.16,0,.38,0,.47.13,2.26,2.51,5.86,2.28,8.48,4.06.18.12.57,0,1.08-.1-3.07-3.12-7-4.27-11.19-5.91l5.5-2L-3,102.93l1.95-1.05a6.61,6.61,0,0,1-1.67-1.42c-.27-.45-.08-1.17-.1-2l-2.77-.89.18,6.81c1.24.2,2.14.71,2.2,2L-5,104.85c.31,1.3.52,2.21.74,3.15.74,0,.74,0,1.09-.68L-2,108.39l-4,.36-.29-11.33a7.69,7.69,0,0,1-1.9-1c-.32-.3-.29-1-.41-1.5.39-.06.77-.13,1.17-.18-.21.36-.71.89-.61,1,.42.64,1,.91,2,.18l-1.46-1.26c.79-.06,1.47-.23,1.31-1.25-.06-.36-.15-.72-.22-1.08l-.4-.2-.59,1.38-.87-1.25c.57-.88,2.64-.91,1.45-3l-1.59.87,2-2c-.43-1.07.73-2.62-.82-3.83a2.3,2.3,0,0,1,.05-2.28c1.07-1,.71-2.12.7-3.2,0-3.29-.15-6.58-.23-9.87l.33,0c.11,1.11.22,2.22.35,3.49l4.53.18,0-.47L-3.54,72c-.13-2.15-2.17-3.92-.68-6.39-1.28.1-2.46,1.7-3.5,0l0,0c1.36.1,1.13-.89,1.11-1.66q-.24-16.59-.52-33.17a9.3,9.3,0,0,0-.32-1.5l-2,2.29c-.15-1,1.33-1.56.16-2.32l2.05-.84c-.25-.84.93-2.09-.82-2.6.59-1.07,1.42-2.08.44-3.69l-2.93.33c.21-.32.41-.65.71-1.14l-2.26.2-.06.45,1.69.42c-1.77.43-1.77.43-2.6-1.29l5.36-.4L-10,17.57l2.62,2c-.11-2.22-1.47-1.94-2.62-2,.15-.23.31-.66.46-.66a23,23,0,0,1,2.29.3L-7.56,6.48l-9.61.25v-.5L-7.4,6l-.12-4.86L19.33.43a9,9,0,0,0,1.89.35Q42.48.51,63.74.2l40.52-.55,42.26-.59q20.52-.28,41-.57l44.75-.65c12.77-.18,25.53-.32,38.29-.5Q293.7-3,316.82-3.34c12.35-.18,24.7-.31,37-.47C370-4,386.18-4.17,402.34-4.5c18.9-.39,37.79-1,56.69-1.44q62-1.59,124.08-3.18c.53,0,1.06,0,2,.11L583-7.32c4.9.28,9.7.18,14.49,0,.47,0,.91-.51,1.36-.77a25.41,25.41,0,0,0,14.1-.1,4.27,4.27,0,0,1,2.16,0,25.31,25.31,0,0,0,12.2-.15,6.63,6.63,0,0,0,1.77.53c2.15.07,4.31,0,6.46,0,2.36,0,4.72-.11,7.07-.17l0-.53c-1-.2-2-.44-3.06-.61s-2.05,0-3-1.19A216.62,216.62,0,0,1,671-11.08c-.32.43-.39.62-.51.66-1.33.43-2.68.84-4,1.25l2.08-1.56c-10-.63-25.77-.09-29.17,1a8.68,8.68,0,0,0,1.44.48,43,43,0,0,0,13.06,0,18.39,18.39,0,0,1,8.82.26,4.67,4.67,0,0,0,3.85-.31c-.1.22-.2.45-.46,1l41.7-.54.57-2.45,2.39,2.1L708.37-10c.61,1.8,1.58.89,2.33.89a15.14,15.14,0,0,0,5.53,0l-1.94-1.37c.91.33,1.81.7,2.74,1A9.43,9.43,0,0,0,719.6-9q5.31.09,10.62,0c1.21,0,2.41-.39,3.61-.38,4.35,0,8.7.12,13.09.2l.22-1.66,1.74-.22-1.1.94c1.5.87,5.58,1,8.86.29a4.71,4.71,0,0,0-4.16-1.42c-1.22,0-2.45.16-3.67.25a9.71,9.71,0,0,1,8,.25,9.67,9.67,0,0,0,2.32.5c.56,1.08,1.57.71,2.42.71,6.84-.07,13.67-.11,20.5-.3,3-.08,5.92-.48,8.88-.73,1,1,2.15.49,3.33.39l-.4-1.46c1.26,1.49,2.74,2,4.57,1a3.48,3.48,0,0,1,.94-.18,8.56,8.56,0,0,0,2.29.68c2.39,0,4.8-.07,7.19-.17a5.51,5.51,0,0,0,1.31-.37l-.1-3.83-3.85-.37c1.43-1.11,2.78.18,4.29,0L811-10ZM299.4,34.69l-3.07-2.4c-.25,1.32-.48,2.53-.74,3.93l3.48-.09c.1-.55.2-1,.29-1.48l4.3-.58c-.18-1.09-.62-1.58-1.4-1.18C301.26,33.4,300.35,34.08,299.4,34.69Zm468,291.69c1.5.31,3,.67,4.51.92a3.57,3.57,0,0,0,1.3-.31c-2-.6-3.87-1.4-5.82-.61-.11-1.64,1.57-1.73,2.11-2.24l-1.24-2.48-2.58.49C765.8,323.87,765.17,325.66,767.36,326.38Zm-693-267c-.07.8-.14,1.61-.22,2.41s-.2,1.57-.34,2.67L78,62.3c-.87-.61-1.48-1-2-1.45s-1.06-1-1.59-1.44c-1.72-.84-1.28-2.61-1.67-4-1.49.08-1.49.08-2.59,1.91-3.55.38-3.77.63-3.12,3.59ZM-3.72,182.34a17,17,0,0,0-.76,3.31c-.12,2.87-.11,5.75-.06,8.62.11,6.16.27,12.32.42,18.48,0,.56.1,1.11.17,1.81l5.47.6a6.8,6.8,0,0,1,.19-2.06c.54-1.16-.14-1.71-.94-2.18a20.66,20.66,0,0,0-2.06-.84c-.79-.35-1.72-.53-2.14-1.58,1.77-.57,4,.45,5.14-1.73L-.43,205l2.54-1.92c-.93-.75-2.18-1.27-2.43-2.07a4.48,4.48,0,0,0-2.56-2.86l1.1-3.19L-3,193.63l3.12-1c.49-2.18.13-4.72,2.41-6-.14-.67-.25-1.19-.4-2,2.49.13,2.92-1.66,3.5-3.53L10,181c-1.61-1.72-3.73-2.36-4.46-4.55,1.83-1.24,1.53-2.63.29-4.16a7.67,7.67,0,0,1-.81-2.1c4.6-.16,8.73,1.34,13,.71-2.92-2.92-6.8-4.15-10.66-6.25l5.12-1.61a24.61,24.61,0,0,1-3-3.76,3.89,3.89,0,0,0-2.22-2.07c-1.52-.55-3-1.2-4.58-1.85,1.38-2.48,4.22-3.32,5.38-6.12l-6.65.17.05,1.76a7.3,7.3,0,0,1-1-.56c-.89-.73-1.79-1.46-2.63-2.25-2-1.89-2.15-2.81-1-5.21.24-.5.45-1,.78-1.78l-2.44-1a4.61,4.61,0,0,0-.3,1Q-5,154-4.79,166.54a3.17,3.17,0,0,0,.47,1.59,3.39,3.39,0,0,1,0,4l.13-2.73-.46,0,.33,2.7c-.1.93-.22,1.85-.28,2.77s.53.82,1.13.71c-.35.52-1,1-1,1.57a40.62,40.62,0,0,0,.18,4.8C-4.28,182.12-3.92,182.23-3.72,182.34ZM34,603.76l2.19,0,0-1.45L34,603.82a3.29,3.29,0,0,0-3.36-1.8c-2.74.18-4.74-1.39-7.27-2.19l1.3-1.64,1.17-1.43c-.9-2.39-.66-3.16,1.54-5.17.34.35.67.72,1,1.06s.64.58,1.21,1.09c0-.94.08-1.5,0-2.06-.16-2.17-.64-2.64-2.87-2.91a5.06,5.06,0,0,1-2-.31c-1.88-1.17-3.54-.64-5.32.25-2,1-2.95.66-4.78-1.37l6.57-2.5c-1.16-2-3-2.65-4.94-3.09-.8-.18-1.65-.16-2.45-.35-2.1-.5-2.76-2.22-1.54-4,.55-.82,1.21-1.57,1.84-2.39-.38-.58-.8-1.25-1.18-1.85,1-2.19,3.46-1.27,5.07-2.44l-1.95-1.39,1.54-1.88a9.6,9.6,0,0,1-2.18-1.32c-1.61-1.75-2.33-1.75-3.63.23a2.14,2.14,0,0,1-3.17.75c-1.34-.74-2-2.43-1.27-3.52a2.11,2.11,0,0,1,1.37-.75,7.12,7.12,0,0,1,1.86.18c1.67-2-.81-2.05-1.29-3.08l2.58-.85c-1.14-2.15-1.32-2.23-3.18-1.41a8.54,8.54,0,0,1-1.36.6A2.72,2.72,0,0,1,4.14,557l5.91-3.39c-.08-1-.19-2.37-.3-3.87l-6.65.83c.35-1.48.61-2.58.88-3.69l-1.29-.72c.52-1.29.52-1.29,3.61-2,.07-.87.14-1.78.22-2.73-2.35-.6-4.15.26-6.17.61.34,9.79.12,19.33.33,29,2.91-1.23,3-1.71,4.8-1.1.22.85.45,1.73.73,2.79l-5.45.14c.17,11.9.34,23.65.51,35.45.65.07,1.06.15,1.47.15,5,0,9.93,0,14.9-.09,2.36,0,4.7.09,7-1,1.09-.51,2.06-.85,2.65-1.94a3.35,3.35,0,0,1,2.81-1.79C31.39,603.56,32.7,603.73,34,603.76ZM365.75-3,275.27-.67,276.86,2l-3.73,2.71,1.18,2.77,2,.2-.38,2.33c5.3-4.19,5.3-4.19,7.41-2.78l-1.77.82c2.27,1.07,3.85.06,5.71-.4l3.06,4.16,1.76-.95L289.66,9c0-.14,0-.29.08-.44l2.65-.07,2.89-.07c.34,1.61.34,1.61,2.43,2.18.13-.19.32-.45.5-.73,1.94-2.85,5-3,6.53,1.24a2.65,2.65,0,0,1,.22.71,2.77,2.77,0,0,0,2.16,2.46c-.95,2.87-.95,2.87.74,5.82l2.86-.07,3.23-.09c.29,1.53.53,2.8.78,4.16l1.7-.71.48,2.31,4.42-.5c.11-.54.19-.91.28-1.33,1.86.16,3.91,1,5.29-.47,1.15-1.27,1.73-3.05,2.62-4.69a4.86,4.86,0,0,0,4.4-.21c-.05-2-.19-4-.14-6s1.69-3.61,3.48-3.14a15.29,15.29,0,0,1,2.25,1l-.7,1.45c1.09.4,2.1.75,3.1,1.13.54.2,1.45.36,1.52.68.29,1.37,1.69,1.64,2.33,2.64a1.93,1.93,0,0,0,2.46.91c.29-3-2.35-3.72-4.3-5.2L349.38,8c-.35-1.13-.63-2-.93-3,4.92-2.55,10.29-1.5,14.93-2.71C364.2.5,364.93-1.12,365.75-3ZM530.26-5.56c-53.26.5-106.43.88-159.34,2.28a9.1,9.1,0,0,1-1,2.54c-.44.5-1.31.61-2,.9,1.29,1.57,2.42.1,3.54.07a4.7,4.7,0,0,0,2.3,1A21.33,21.33,0,0,1,381.69,3c1.91.78,3.85,1.49,5.81,2.15a5.06,5.06,0,0,0,1.6,0c-.23-1.55-.42-2.87-.65-4.37,1.76.25,3.18.5,3.43,2.07a3.93,3.93,0,0,0,1.54,2.85c.51.38.61,1.3.89,2,.2.46.4.92.64,1.49l1.94-2.17a28.54,28.54,0,0,0,15.53,2.78c.19-.81.35-1.47.53-2.23a5.49,5.49,0,0,1,1.37.27c2.51,1.34,5.52,1.64,7.72,3.67a4.13,4.13,0,0,0,1.72,1c.65.16,1.61.32,2,0s.48-1.3.55-2A2.6,2.6,0,0,0,426,9.18c-1.36-3.27-1.19-6.64-.94-10l3.58-.09c-1.19,2.61-.22,4.81.16,7.44a13.14,13.14,0,0,1,1.29-1.27,1.61,1.61,0,0,1,2.51.44c1.29,2.67,3.79,4,6.09,5.49a9.86,9.86,0,0,0,3,.72c-.24-2.06-2.29-3.59-.57-5.59l1.83,1.83c1.65-1.54.78-3.53,1.25-5.2,3.66-1.8,4.69,1.16,6,3.47,1.92-1.5-.65-3.34,1-4.9,2.61,2.23,6,3.47,7.44,7a2,2,0,0,0,.52-2.87c-1.44-2.47-.65-4.5,1.1-6.58L465,2.56c1.68-3.3,1.91-4.43,4.66-3.6-.26,1.12-1,2.33.57,3.45L472.46.19c1.37-1.34,1.74-1.4,3.48-.55a7.94,7.94,0,0,1,1.51.85c1.25,1,2.49,1.21,3.65.09l2.81,1c1.41-2.7,1.41-2.7,2.55-3.39l1,1.13c3-.85,3-.85,5.63,1l1.27-1.19L493-3.12l3.4.9c.16,1.79.64,3.11,2.62,3a18.23,18.23,0,0,1,1.36-2.08c2.12-2.44,4.42-2.29,6.22.37a8.49,8.49,0,0,1,.49,1.15l1.49-3.47,3.75.89c.07-.69.11-1.16.18-1.87l5.69,2.84C519-3,520-4.12,521.81-4.1c.28,1.7,1.86,3,4.1,3.44a2.25,2.25,0,0,0,2.88-1.66l-2-2ZM810.93,62c-1.09,1.51-2.4,2.69-2.86,4.13-.61,1.92,1.21,2.74,2.64,3.48-1,2.81-2.42,4-5.24,4.32-1.72.19-3.47.16-5.21.27s-1.79.17-1.94,2.26c6,.53,6,.53,6.45,2.29l-2,.88c.77,1.42,1.51,2.7,2.17,4,1,2.09.86,3-.87,4.55-.66.61-1.34,1.19-1.91,1.69a3.24,3.24,0,0,0,0,.69,2,2,0,0,1-.82,2.57c-1,.59-1.73.06-2.48-.52a12.67,12.67,0,0,0-1.81-1.29,1.23,1.23,0,0,0-1.93,1.25c.08,1.17.85,1.5,1.9,1.39s2-.33,2.63.78c.27.49.56,1,.8,1.37l9.87,1.35a6,6,0,0,0,.1,2.12,6.35,6.35,0,0,1,.06,4.79c-.39,1.34-.69,2.71-1.09,4.05-1.46,4.88-1.47,4.88.43,9.27-1.4.54-3.35.07-4.21,2.2l7.36,1.19-4.82,4.27c-1.51-1.49-3-2.16-5.31-1l6.44,3.72-4.39,4.63c2.38-.32,3.85-2.38,6.42-2.66a6,6,0,0,1-2.53,3.44c-4,3.1-7.74,6.34-10.59,10.63l9.36,2.1-.66,2.2,2.27.57c-.56,2.59-1,5.07-1.65,7.52a3,3,0,0,1-2.58,2.36l-1.54.29c1.34,1.48,2.51,2.71,1.7,4.83-3.17-.56-4.86,2.29-8.13,3.35l2.79,2.67a16.83,16.83,0,0,1,2.72-1.58c.89-.29,2.1-.68,2.81-.33,2.38,1.19,4.91,1.35,7.46,1.55.13,0,.25.19.41.32l-.47,1,1.47.75c-.38,1.46-1.25,1.7-2.49,1.44-2.31-.49-4.63-.9-7.09-1.38l-.42,3.1c2,1,4.32-.35,6.06,1.53l-3.39,2.07c1.13,2.48,2.15,4.73,5,5.6l-3.26,4.7-1.94.66c2.28,1.06,1.19,2.43.56,3.39a14.21,14.21,0,0,1-2.9,2.51c.06.2.39.68.31,1.09s-.64.52-1.1.86a7.14,7.14,0,0,0,4.55,2,4.12,4.12,0,0,1,3.36,1.61,6.71,6.71,0,0,0,4.27,2.44L812,59l-2,2ZM13.57,288.62l-4.26-1.15c1.63-1.59,1.84-3.2.5-5.08-.84-1.17-.29-2.5.31-3.74a21.7,21.7,0,0,0,1-2.95,16.23,16.23,0,0,1-8.83-6.54c.88-.79,1.78-1.5,2.54-2.32s1.36-1.73,2.36-3c.48.85.84,1.5,1.17,2.07,2.22-1,4.31-1.39,5.29-3.48-3.83-2.45-3.89-2.54-3.88-6.8,2.72-1.55,2.8-1.7,2.28-4.9-1.39,0-2.85-.12-4.31-.14-1.64,0-3.29.08-4.94,0a2.74,2.74,0,0,1-2.51-1.73c-.84-2-.39-4,.18-5.79.29-.9,1.54-1.5,2.41-2.29l-3.28-2.29c1.06-1.24,2.77-1.15,3.54-2.54a11.63,11.63,0,0,0-1.44-.7c-3.61-1.13-5.57.26-5.56,3.9,0,.25,0,.49,0,.74.15,12.24.28,24.47.46,36.71q.38,26.61.81,53.21c0,1,0,1.94.08,3.08l5.79-.8,0-.4-3.69-1.78c1.57-2.2,4.9-.94,6.16-3.41-2-1.38-2.1-1.38-3.74-.08C0,328,0,328-1.83,327.52c1.39-2,2.91-3.43,5.58-3.54s3.69-2.63,5.65-3.81c.78-3.48,2.63-6.79,1.87-9.95-1.74-1.72-3.12-3.07-4.54-4.45,1.08-3.58,2.11-7,3.19-10.55l3.61-1.73c-.56-.47-1.08-1.18-1.35-1.1-1.71.5-1.44-.76-1.87-1.7,1.38-.58,2.6-1.08,3.8-1.6s2.44-1.06,3.65-1.6C15.94,287,14.77,288.26,13.57,288.62ZM381,603.42l2.8-.07q24.33-.36,48.67-.72c5-.08,10.1-.23,15.15-.34.77,0,1.64,0,1.7-1a2.42,2.42,0,0,0-.6-1.67c-2.1-2.09-4.29-4.1-6.44-6.15-.65-.63-1.28-1-2.15-.35a1.38,1.38,0,0,1-.9.32c-1.81-.22-2.6,1-3.49,2.17,1.68,1.15,1.68,1.15.75,3-2.78-.68-4.32,2.34-7.12,2.52.16-.87.28-1.53.41-2.2l-5.13-2.58-1-3.38,1.13-1.38-1.83-3-2.14.42c-.79-.45-1-1.68-2.24-1l.34,3.87-3.23-.62c.56,1.18.92,2.1,1.42,2.92s.69,1.65,0,2.25a3.3,3.3,0,0,1-2.16.8,11.09,11.09,0,0,1-2.78-.93c.08-.59.14-1,.2-1.51-2-.79-3.33-1.93-2.94-4.29a1.86,1.86,0,0,0-1.33-2.14c-.07,1.13-.13,2-.18,2.91l-5.65.14c-.26-1-.47-1.77-.81-3.06-1,1.94-.51,4.49-3.27,4.28-.2.73-.36,1.32-.56,2.07l-2.09-1-.35,1.42-7.84-4.84c.18-.44.37-.87.64-1.52l-3.83-1.54c-1.14,2.38-2.18,4.56-3.29,6.85,1,1,.71,2.17.26,3.38A10.35,10.35,0,0,0,381,603.42ZM76.51,5.1l-.19-.61L-7,6.63c.06,2.21.09,4.24.17,6.28.08,1.78-.3,3.83.47,5.27s2.71,2.32,4.14,3.43c.06.05.16.05.4.12.47-1.44.94-2.89,1.48-4.52L1,16.56c-.87-1.4-.63-1.89,2-3.92.69.49,1.44,1,2.16,1.53,2,1.48,3.95,3,5.95,4.45a14.05,14.05,0,0,0,2,1l1-2.25c-.4-1.18-.71-2.12-1.15-3.41,3.27,1.75,3.91,1.85,6.06,1-1.76-1-3-2.25-2.25-4.37C19.86,10,20.32,9,22.7,13.1c1.54-.33,2.41-2.25,4.27-2,.12.72.23,1.34.33,2l2.56.08L31,15.65c.34-.14.75-.23.75-.32,0-2.41-.1-4.82-.16-7.26,3.43-1.21,4.46,1.81,6.31,3.35a4.87,4.87,0,0,1,4.52-.92c2.32.61,4.08.12,5-2.27,0-.12.26-.18.59-.39a37.58,37.58,0,0,1,5,.71c2.51.69,4.17-.07,5.27-2.33.06-.12.25-.19,0,0a27.78,27.78,0,0,1,2.94,0c.68.07,1.79.2,1.94.59.53,1.46,1.9,1.41,2.92,1.91.74,3.41.74,3.41,2.62,2.58L67.16,7.65,71.85,8C72.52,5.71,74.33,5.12,76.51,5.1ZM37.88,70.9c.17,1.43,0,2.66.49,3.62a11.59,11.59,0,0,0,2.39,2.54c-2.3.38-4.33-.67-6.31.63l2.48,2.23c-.77.45-1.33.75-1.87,1.1s-1,.69-1.47,1l.19.49a8.45,8.45,0,0,0,2-.37c2-.94,2.29-.88,3.59,1.4l-3.39,1c0,.63-.09,1.24-.15,1.94,1.25.28,2.6,1,3.22-.34.73-1.6,1.86-3.29.69-5.24l5.38-3.63-2.56-1.84.17-.37,5.69.42c1.39,5.58,1.39,5.58,5.42,7.6l-2.78,3.16c.92.3,1.54.53,2.16.71s1.39.38,2.06.56c1-3,.3-5.62-2-7a47.08,47.08,0,0,1,3.14-4.09,3,3,0,0,0,.61-3.78c-.8-1.62-1.47-3.3-2.3-4.9a4.46,4.46,0,0,1-.36-3.92l1.73.1.11-.5c-1.89-1.21-4.1-1.39-6.23-1.76-1.41,1.83-.34,3.61-.22,5.4-1.63.78-3.18,1.55-4.76,2.25a3.4,3.4,0,0,1-1.65.44c-1.3-.16-1.82.79-2.37,1.49ZM79.53,605.68c-3.13-.44-5.76.14-7.37,1.69,14,.13,27.65,0,41.33-.48l-1.37-2c-1.68-.54-3.63-.66-4.89-1.66-2.73-2.17-6-3.13-9-4.53a2.15,2.15,0,0,0-3,.56c.39.83.8,1.68,1.27,2.66-1.84.5-4-1.14-5.22,1.42-1.64-1-3.51-1.6-4.49-2.86-1.32-1.72-2.62-1.67-4.28-1.07-.12,0-.19.25-.32.43l.84,1c-1.25,1.83-3.59,1.07-5.13,2.24ZM802.19-2.41c1,2.32.6,3.62-1.68,5.41l-2-2.11c-.81,3.4-.26,4.3,2.85,4.76,1.49.22,3,.35,3.8,2l5.55-2.87c-.06-2.58-.1-4.95-.19-7.33s0-4.69-.31-7.23l-20.9.53.83,2.14c2.35.87,4.55.26,6.74-.63a3.49,3.49,0,0,1,2.07-.38c1.94.63,3.81,1.48,6,2.37Zm9.63,57-.5-19.42c-3.41.6-6.12-1.24-8.85-2.19l-2.17,5.15c.26,1,.34,2.45,2.36,3,2.49.68,2.69,1.43,1.92,4.07-.46,1.59-.35,2.08,1.11,2.76a29.52,29.52,0,0,0,3.52,1.14c.48.15,1,.32,1.71.57-2.52,1.82-5.08.66-7.29.95l-.13,2.67ZM211.56,1.23a6.18,6.18,0,0,0-1.11-.34q-23.74.6-47.49,1.18A2.24,2.24,0,0,0,160.65,4l7.47.72c.07-.22.16-.61.3-1s.34-.72.58-1.21c5,3,10.3,1.18,15.46.87,0,1.86-1.72,1.92-2.66,3l5.73.46a1.85,1.85,0,0,0,.74,0A8.55,8.55,0,0,0,190.2,6c1.34-.92,2.85-.61,4.3-.85s1.45,1.18,2.33,1.49l4.38-1.14c-.28-1-.5-1.7-.76-2.6l2.68-1c.46,1.28.85,2.34,1.28,3.53,1-.63,2.61-1.11,2.72-1.81.24-1.58,1.32-1.43,2.25-1.75C210,1.69,210.54,1.53,211.56,1.23ZM69,70.1c-1.12.31-1.89.5-2.65.74-1.65.53-3.31,1-4.93,1.64a1.33,1.33,0,0,0-.89,2c.65,1.29,1.41,2.52,2.1,3.75l5.73-1.52L65.5,81.44c2.35,2.32,4.18,2.24,5.71-.23s2.12-5.2.38-7.87a2.36,2.36,0,0,1-.2-2.52c0-.1-.1-.28-.15-.41l-2-.85c.34-1,.64-1.76,1-2.7-1.7,0-3.24-.51-4.79.66ZM23.51,350.68a33.3,33.3,0,0,0-8.88-7.32c-5.43-3.24-11.18-5.95-17.16-9.08,0,1.57.08,2.93.11,4.29s.08,2.76.11,4c.32.2.39.27.46.28a22.15,22.15,0,0,0,3.88.31c2.26-.2,4.19.79,6.25,1.33a2,2,0,0,0,.64,0l.32-.43-1.81-.77.38-.5a16.35,16.35,0,0,1,9.58,3.74c.13.1.36.25.34.34-.36,1.7,1.43,1.75,2.09,2.63.14,1.21-.94,2.46.21,3.48ZM583-8l-.08-.49L478.17-5.84a1.72,1.72,0,0,0,1.19.36q21.87-.3,43.74-.63c8.95-.15,17.9-.43,26.85-.58,9.44-.16,18.88-.18,28.32-.38A25.51,25.51,0,0,0,583-8Zm-22,6.1c.64-1.08,1.05-2.51,1.65-2.6,1.44-.22,2.34-1.81,4-1.32a9,9,0,0,0,2.64,0v-.4L534.29-6c1.61,1,4,.75,3.7,3.63,3.28.35,6.23,2.19,9.69,1.36-.34-.85-.56-1.41-.82-2,2.21-.42,4.23-.83,6.27-1.17C556-4.75,558.76-4.51,561-1.95Zm-558.8,127c-.37-1.59-1.45-2.19-3.26-1.89a4.74,4.74,0,0,1-2.27-.74c-1.31-.59-2.08-.24-2.1,1.16,0,1.88.07,3.76.11,5.64,0,1.6.09,3.19.13,4.77,2.78,0,3.36-1.66,3.35-3.83l5-.78-.41-1.54,2.66-1.24C4.8,125.12,3.47,125.43,2.24,125.05Zm53.3-15.65,4.91-2.71c-2.46-1.31-4.66-2.14-7.14-1.61-.53-.57-1-1.09-1.49-1.64-1.93,1-4,1.48-5.25,3.15,1.21,2.85,1.79,3.15,4.52,2.46.32-.08.63-.21.95-.3C53.25,108.41,54.47,108.12,55.54,109.4ZM702.11,63.2c.64-.66,1-1.42,1.63-1.62,2.25-.75,3-2.52,3.69-4.51-.55-.61-1.06-1.14-1.51-1.71s-.81-1.21-1.37-2.06C703.47,55,702.3,56,702.27,57c0,1.74-1.07,2.62-2.07,3.68-.47.5-.88,1.06-1.5,1.82ZM24.68,184.75l-.85-1.48c2.67-.26,1.94,2.22,3,3.15,1.57-1.95,1.34-3.3-.78-4.21a5.68,5.68,0,0,0-6.31,1c-.24,1.12-.34,2.66-1.07,3.06-1.82,1-2,2.7-2.8,4.3ZM163.74,603c-2.51-.37-4.71-.69-6.9-1a1.24,1.24,0,0,0-.72.06c-1.52.72-3,1.47-4.72,2.3a18.5,18.5,0,0,1,2.3,1.19c1.59,1.13,3.37.48,5.05.7,2.1.29,3.16-.9,4.11-2.4A7.22,7.22,0,0,1,163.74,603ZM67.53,110c2.22-.31,3.45,1.15,4.73,2.53,1.34-.78,2.75-1.26,3.35-2.78C72.9,109,70,109.23,67.78,107c-.35,1.52-1.13,2-2.39,1.83a2.37,2.37,0,0,0-2.48,1.25l3.27,3.83C66.66,112.5,67.1,111.22,67.53,110ZM703.42,46.16l.19-.5a28.76,28.76,0,0,1-3.1-4.71c-1-2.49-3.08-3.67-5.27-5.17-.5,3.07-.43,5.55,2.65,7a35.1,35.1,0,0,1,3.22,2.3A16.65,16.65,0,0,0,703.42,46.16ZM808.18,13.34l-1.72.91c1.55,1.4,1.87,3.77,4.39,3.86l-.24-9.33c-1.65.46-3.21.52-4.42,1.74C806.86,11.47,807.47,12.32,808.18,13.34ZM121.46,3.13,109,3.45,107.61,6.6c.65.92,1.42,1.16,2.27.35a6,6,0,0,1,6.85-1.21,2.49,2.49,0,0,0,2.73-.65Zm16,43.73c0,.23,0,.45.05.67a26.62,26.62,0,0,0,3.53,2,2.37,2.37,0,0,0,3-1,2.32,2.32,0,0,0-.58-3.07,5.09,5.09,0,0,0-4.23-1.69C138.86,44.94,139.41,46.56,137.42,46.86ZM102.82,5.12c-4.89-2.44-9.6-1.33-14.84-.9,2.26,1.73,4.25-.82,6.07.6-.24.91-.51,1.88-.83,3.06l2.3-.24L95.46,5.2C98,6.6,100.29,7.7,102.82,5.12Zm99.48,83A6.83,6.83,0,0,0,203,89c.69.66,1.47,1.2,2.37.4s.23-1.52-.23-2.18c-.62-.91-1.33-1.77-2-2.7l3.74-3.16-3.92-1.82a5.49,5.49,0,0,0-1.11,5,2.09,2.09,0,0,0,.73,1.16C204,86.85,204.05,86.82,202.3,88.09ZM106.82,52.16c1.1.27,2,.55,2.85.68s1.73-.31,1.65-1.3a24.07,24.07,0,0,0-1.23-6.07c-2.11.22-3.32,1.13-3.75,2.94,0,.1.14.25.22.37l2.21-.69ZM268.88,3.65l2.92.18c.55-1.26,1-2.54,2.78-2.16-.13-.92-.23-1.62-.32-2.32l-7.53.2,0,1.81,3.14.18ZM741.77-6.63c1.64-2,1.89-2.15,4.09-1,1.06.55,1.92.9,2.71-.77-2.1-1-4.24-.34-6.27-.39a28.89,28.89,0,0,0-6.27.33l3.67,3.24c1-.1,2.28.29,3.75-.56ZM729-5.16c-.93-2.51-1.29-3.23-2.15-3.3a22.94,22.94,0,0,0-7.42.43,22.52,22.52,0,0,0,7.83,3.41C727.79-4.49,728.45-5,729-5.16ZM811,20.8l-6.12.15a8.39,8.39,0,0,0,6.24,4.53ZM153.72,2.68c-3-.7-15.22-.24-17.05.5C142.61,5.73,148.15,3.48,153.72,2.68Zm-6.58,48.57a7.55,7.55,0,0,0-6.73,2.88c-.87,1.06-.57,1.71.48,2.33A16.08,16.08,0,0,0,147.14,51.25Zm461-58.07-6,.15c-.5.78-1,1.5-1.46,2.24,1.88,1.08,2,1,5.68-.23C607.38-5,608.27-5.3,608.18-6.82ZM760.73,378.4c2.68,1,3.22.94,4.53-.77a24.11,24.11,0,0,1-1.64-2.13,1.7,1.7,0,0,0-2.52-.7,19.94,19.94,0,0,0-1.83,1.17l2.57,1Zm-6.94-341c-.38-2.11-.66-3.68-.95-5.33-1.86-.65-2.94.88-4.67,1.55Zm27.44,427.72c-2.4,1.23-2.4,1.23-2.35,2.54l6.24-3.84,1.92,1.08c.24-.39.44-.59.46-.81a.78.78,0,0,0-.25-.64c-2.12-1.36-4.22-.92-6.42.17ZM8.76,130.43c-1.77-.47-2.89.73-4.21,1.48a6,6,0,0,1-2.24,1c-.46,0-1-.58-1.76-1.08,0,.7-.22,1.29,0,1.52,1.09,1.21,5.33,1,6.5-.22-.1-.51-.21-1-.31-1.57ZM109.89,598.14c.94,3,2.18,4.25,4.82,5.17C114.68,599.91,113.13,598.17,109.89,598.14ZM768.35,37.41l-1.39-2c-1.73.86-1.72,2.13-1.36,3.53,2.61.62,4.26.17,6.43-2ZM30.49,85.06,32,83.76l-2.92-2.39c-.44,1.86-.79,3.35-1.21,5.1l3.91.47C31.14,86,30.84,85.59,30.49,85.06Zm1.85,41.29,1.13,2.06,4-2.45c-.34-.92-.72-2-1.05-2.84Zm378.4-98.58c.26,2,.47,3.65.71,5.33a1.74,1.74,0,0,0,1.79,1.57C414.13,31.49,413.32,29,410.74,27.77ZM709.09-8.1c.78,2.84,2.2,3.92,4.69,3.58C712.38-7.95,711.54-8.6,709.09-8.1Zm38,39.53c.59-1,.95-2.33,1.82-2.93s2.29-.51,3.57-.74l.09-2.13c-1.37.17-3-.1-3.63.56A7,7,0,0,0,747.07,31.43ZM261-.21,254.66,0c.47,1,.82,1.69,1.24,2.55L257.07.63l3.4,2.06C260.69,1.56,260.85.69,261-.21ZM616-4.6c.85.23,1.8.83,2.43.59a48.34,48.34,0,0,0,5.06-2.6l-.16-.48a11.57,11.57,0,0,0-3.5.16A21.36,21.36,0,0,0,616-4.6ZM49.65,403.52c3.15.21,4.11-.51,4.23-3C51.48,399.74,50.53,400.39,49.65,403.52ZM689.47,26.26c-4.24-1.68-5.57-1.76-7-.52C685.37,27.45,687.25,27.63,689.47,26.26Zm99.78,465,3.76-2.38-1.38-2.5c-.62.77-1,1.49-1.53,1.83a9.09,9.09,0,0,1-2.4.63l.95,1.49C788.82,490.59,789,490.86,789.25,491.24Zm-773.48-71c.28-.47.91-1.29.8-1.4-1-1.05.12-1.88.45-3.12l-5.49,2a19.28,19.28,0,0,1,2.41,1A15.66,15.66,0,0,1,15.77,420.28ZM243.27,44.33c-.4-2.69-1.5-2.46-5.27-1.32C238.57,44.67,238.57,44.67,243.27,44.33ZM782.2,130.55l-.3.33-3.75.43,0,.57a9.94,9.94,0,0,0,7.13.46ZM29.83,399.37c2.27.58,3.65.08,4.7-1.19.29-.35.19-1,.26-1.55-.52,0-1.18-.27-1.52,0C32.2,397.31,31.24,398.2,29.83,399.37Zm362.08,184.9c-.36,4,0,4.77,2.81,5.35C393.44,587.87,394.69,585.37,391.91,584.27ZM124.38,3.07l-.11.46,4.46,2.18,2.15-2.8Zm79,43.51,5-.76c-1.32-2-3-1.7-4.78-1.62a8.82,8.82,0,0,0-.35,1.16A5.76,5.76,0,0,0,203.41,46.58ZM662.08-8.31c-3-1.18-5.54-1.11-11.64.3ZM796.45,203.81c-3.62-.61-4.62,0-4.58,2.68C794.05,206.91,794.9,205.17,796.45,203.81ZM329.18,26.92c1.84-.7,3.79,0,5.78-1.64l-5.85-.94ZM6,480l2.53.83c-.39-.74-.48-1.24-.71-1.31a10.44,10.44,0,0,0-6.7-.3l3.23,1.88Zm14.8,99.95c-.75-1.24-1.07-2.88-2.68-3a3.73,3.73,0,0,0-3.62,1.88,13.33,13.33,0,0,0,1.71-.17c1.93-.49,1.95-.52,3,1.14C19.63,580.41,20,580.65,20.8,579.92Zm453.63,13,5.84,1-.06-2.24C476.4,591.75,476.4,591.75,474.43,593ZM663.71,18.78c2.72.68,4,.65,6,0l-3.88-1.87ZM631,583.67l3.14,2.19,1.68-2.72C634.17,582.21,632.84,583.1,631,583.67ZM.56,93.52a11.7,11.7,0,0,1-3.11.8,15.09,15.09,0,0,1-3.5-1c.47.73.67,1.45,1.08,1.6a16.41,16.41,0,0,0,3.58.87C-.1,95.89.54,95.17.56,93.52Zm736.94,1-.15.5c.62.4,1.26,1.17,1.85,1.13,1.35-.08,2.34-.93,3-2.64ZM203.16,96.07c-1.42,1.53-3,.28-4.65.32L197.08,99C199.61,98.21,201.85,98.14,203.16,96.07ZM131.32,606.86l.14-.56-5.2-1.79L125,606.66ZM81.18,51.38c-.44-1.51-1.82-1.28-3.08-1.65-.42,1-.8,1.82-1.19,2.69l.29.43Zm79-42.27a6.43,6.43,0,0,0,4.94-.77l-2.58-2ZM115.77,59.17,112,61.75l3.9.93Zm-60.88-4c-1.24-1.79-2.39-2.38-3.07-1.62.27.47.54,1,.82,1.47l-1.41.8,2.1.89Zm703.6,45.51c-2.47-1.25-4.45-2.34-7-2.63C755.21,100.78,756.27,101.23,758.49,100.71Zm7.5,31.65,3.54-1.9c-1.28-.85-2.21-1.55-3.39-.67C765.17,130.51,765.7,131.3,766,132.36ZM217.11,38.13a5.53,5.53,0,0,1-.6-1.56,9.9,9.9,0,0,1,.39-2c-2.07.75-2.08,2.26-2.48,3.88ZM5,570c-1.61.3-3,.34-3.41,2.24l3.91-.1C5.33,571.42,5.19,570.83,5,570ZM755.76,61.49c-2.18-.28-2.68,1.22-3.54,2.41C754,64.69,754,64.68,755.76,61.49ZM140.05,37.76c-.73.86-1.63,1.44-1.56,3l3.93-1.06C141.47,38.9,140.79,38.36,140.05,37.76Zm141.59,10.4c1.49,1.05,3,.94,4.76.41C284.82,45.91,283.18,48.08,281.64,48.16ZM733.43,65.4c.74.24,1.19.55,1.42.43A4.16,4.16,0,0,0,737,63.07C734.91,62.34,734.53,64,733.43,65.4Zm-649.55,525c-2.84-3.18-2.84-3.18-4.42-2.11ZM134.72,2.78c-1.1,0-2-.33-2.78.5l1.55,2.41C135.2,5.09,134.91,4,134.72,2.78Zm2,603.65c4,.41,4.17.39,5.74-.49C140.37,605.53,138.53,605.43,136.75,606.43ZM745.66,308.57c-2.28-1-2.7-.84-3.47,1.28A3.51,3.51,0,0,0,745.66,308.57ZM135.45,52.5c-.15,1.47-.25,2.5-.39,3.83l3-.85Zm-134,88.23c-2.23-2.64-2.65-2.77-4.64-1.58C-2,140.45-.25,139.93,1.45,140.73Zm762.16,5.61,1.93-2.45-.27-.42-3.88,1.43ZM721.78,30.8a6.88,6.88,0,0,0-4.27-1.44C719.2,31.6,719.26,31.62,721.78,30.8ZM755.6,93.15c2.35,1.77,3,1.6,3.94-.82ZM735.07-.74l4.28-1.21C735.6-2.94,735.6-2.94,735.07-.74Zm32.86,67.59.5,0,1.13-3.2L767,63.9ZM77.32,4.43l3,2.1c.49-.82.84-1.39,1.34-2.21ZM761.47,34.08c-1.71,2.18-1.72,2.21-1.19,4-.32-2.17,2.17-1.81,2.83-3.21ZM514.44,586a3,3,0,0,0-2.47-3.92ZM147.08,42.57a12.43,12.43,0,0,0,4.42-.41l-4-1.67C147.37,41.21,147.26,41.73,147.08,42.57ZM695.7,84c1.2.77,2.09,1.59,3.41.74C697.81,82.65,697.81,82.65,695.7,84ZM143,39.87c-.53,2.56-.53,2.56,1,3C144.49,40.13,144.49,40.13,143,39.87ZM85.82,595.7l0,.66c1.17,0,2.34,0,3.5-.09.13,0,.19-.76.34-1.46ZM771.44,399.24a2.83,2.83,0,0,0,3.3.43c.23-.12.51-.6.43-.74-.15-.3-.59-.73-.8-.68A29.85,29.85,0,0,0,771.44,399.24ZM69.63,88.17l.06,2.41.43.2,1.72-2.69C71.2,88,71,88,70.73,88S70.11,88.09,69.63,88.17ZM.79,74.65l-1.4-.25c-.06,1.43-.06,1.43-1.77,3C-.56,77.36.2,76.37.79,74.65ZM758,43.89,761.58,45l.2-.33-1.9-2.29ZM98.77,55.72c-1.18.93-1.44,1.74-.86,2.41.32.38,1.17.31,2.3.56C99.6,57.43,99.25,56.7,98.77,55.72ZM737.6,15.84c1.63.14,2-.11,2.45-1.47.33-1.06-.35-1.17-.91-1.32C738.57,14.09,738.09,15,737.6,15.84Zm-584.18-11c2,2,2.49,2.1,3.9.58ZM383.91,37.35c.94-1,.78-2,.47-3.17C382.59,34.73,382.52,35.26,383.91,37.35ZM629.19,8.69c-1.5.12-2.48,1-3.54,2.32l1,1.26.69-.36C627,10.23,628.12,9.52,629.19,8.69ZM342.28,593.51l-.25-3.34c-1,.9-1.69,1.49-2.58,2.29ZM13.17,193.13c.55-1.4.16-2.82-.76-3l-1,1.27c.26.32.44.59.66.81S12.68,192.73,13.17,193.13ZM749.28,354.62c2.72.92,3,.78,3.34-1.21Zm-110.53,232,3.88.38C640.44,585.12,640.44,585.12,638.75,586.6ZM771.13,87.38c-1.36,2.59-1.19,2.93,1.15,2.85ZM732,288.92l3.55-1.19C733.25,286.61,733.25,286.61,732,288.92ZM19.67,550.64c-.27-1-.49-1.91-.71-2.78l-.53,0c-.33.89-.65,1.79-1.05,2.88ZM59.48,70.29l.5-2.53-3.2.9Zm-36-2-3.65-.44C22.22,70,22.46,70,23.51,68.31Zm-1.58,255,2,1.87c.43-.87.72-1.44,1.14-2.3ZM15.75,526c1.1-2.67,1-2.83-1.22-2.79ZM44.62,87.23c1.4,1.42,1.4,1.42,2.8,0C46.5,87,45.72,86.18,44.62,87.23Zm71.47-36L118.64,53C118.31,50.38,118.27,50.35,116.09,51.24Zm-86.16,532c2.28,1.78,2.36,1.78,3.79.45ZM46.42,359.07l-4-.64C44.21,360.23,44.21,360.23,46.42,359.07ZM202.92,98.79c-.16,1.24-.23,1.8-.33,2.55l2.47-.18ZM-5.88,81.7l2.79-.2-2.85-2.23ZM801.87,282.94c.9.61,1.63.26,2.78,0L803,281.48Zm-5.41-29.41c-.68-2.21-1-2.33-2.81-1.35ZM782.17,449.61l-.23.78,3.77,1.16.16-.5ZM742,4.17l-.35.37A4.22,4.22,0,0,0,744.31,7l.38-.41ZM98.41,48.76c-1.18-2-1.36-2-2.76-.12ZM779.33,455.6c1.57,1.67,1.57,1.67,2.66.44ZM100.47,39.88c-1.94-.13-1.94-.13-2.88.42C99.66,41.14,99.66,41.14,100.47,39.88Zm647.78-22a3.93,3.93,0,0,0-3.26.57C746.39,19,747.39,19.18,748.25,17.84Zm48.48-6.38c-.83-1.33-1.76-1.83-3.24-.48ZM26.25,425.87l-.09.59,3.47.52.09-.65ZM-3.67,226.46c-.21,2.77-.21,2.77,1.86,2.65Zm782,28.06c1,.36,1.82.9,3,.56C780.46,253.84,779.62,253.45,778.36,254.52ZM333.89,20.64c2.07,1.2,2.07,1.2,3.17-.5ZM304.36,35.26c.12,1-.36,1.93.83,2.24a.72.72,0,0,0,.6-.32C306.19,36.18,305.59,35.73,304.36,35.26ZM18.76,480.84c2.23.57,2.4.44,2.13-1.3ZM108,69.17l-.63.55L107,71.47a2.15,2.15,0,0,0,1.52-1.1C108.67,70.1,108.19,69.57,108,69.17ZM32.84,352.8l-2.38-1.06C30.63,353.62,30.63,353.62,32.84,352.8Zm165-318,3,.47C199.87,34.14,199.25,33.47,197.81,34.79Zm1,37.86c-.44,1.12-.72,1.84-1,2.56C199.05,74.85,199.7,74.27,198.83,72.65ZM35.61,304.41a3.61,3.61,0,0,0,1.56,2.33C36.86,305.29,36.86,305.29,35.61,304.41Zm32,285.77,3.38,2C70.49,590.44,69.33,590.22,67.56,590.18ZM797.22,174.8l-.09.55,3.13.54.1-.58Zm-747,428.69c-2.31-1-2.31-1-3.93-.23ZM734.47,99.86l-.19.61,3.31,1,.14-.45Zm-739.95,19c.08,1.59,1.06,1.58,2.19,1.43Zm662.23-46C658,74,658,74,659.51,73.3ZM6.18,141.11l2.24.22C7.17,140.22,7.17,140.22,6.18,141.11ZM2.94,146c-.07.21-.14.42-.22.63l2.42.71.14-.46ZM208,43c-1.26-1.5-1.26-1.5-2.59-.51ZM71.81,596.24c1.13.88,1.85.58,2.55-.79ZM8.32,351.38l-2.75-.65C7,352.13,7,352.13,8.32,351.38ZM18.37,227.07c-1.58.2-1.58.2-2.54,1.69ZM755.11,2.56c1,1.43,1,1.43,2.27,1.31ZM461.21,601.92a2.51,2.51,0,0,0-3.47.09ZM788.88,300.18l-.47.42,1.57,1.92.41-.33ZM751.43-2.35l.24.72c.67-.27,1.52-.08,2.27-1.34ZM110.3,74.75c.43-1.55.43-1.55-1.35-1.46C109.39,73.75,109.74,74.14,110.3,74.75ZM644.45-8.12V-8L646.58-8v-.14ZM509.12,585l0-.61-1.73.15,0,.51Zm-476-30-.24.62,2,.51.15-.58ZM2,102c1.19,1.06,1.83,1.25,2.55.11Zm792.1-61.06.17-.58-1.89-.45-.12.48ZM62.65,536.3l2,1.44C64.54,536,63.93,535.87,62.65,536.3ZM808.17,383.85l.37.4,1.81-1.23-.22-.32ZM400,34.24c.66-1,.66-1-.05-1.84ZM30,332.13l-.08-.4a2.83,2.83,0,0,0-.92,0c-.26.09-.46.37-.69.57l.19.26Zm768.2-58.27-.11-.34-1.35.32.17.52Z"
          transform="translate(17.18 15.3)"/>
    <path d="M526.31,581.89l.8,1.82-.35.34L525.69,583Z" transform="translate(17.18 15.3)"/>
    <path d="M769,1.69l.33-.84C767.77.41,725.19.08,721.2.49a3.06,3.06,0,0,0-1.76.81l2.66.85L718.47,2C718.28.84,719.06.5,719.8.32A11.8,11.8,0,0,1,722.64,0Q745.85,0,769,0a3.25,3.25,0,0,1,1.93.6Z"
          transform="translate(17.18 15.3)"/>
    <path d="M638,2.18V.63H609.9l.83,1L601.08.39c1.49-.53,32.71-.77,37.5-.2Z" transform="translate(17.18 15.3)"/>
    <path d="M704.44,1.71c-.44-.36-.89-.72-1.73-1.42h3.43l-.25,2.65-.41.17L704.68,2c.63.06,1.12-.11.92-.84-.05-.21-.55-.3-.85-.45Z"
          transform="translate(17.18 15.3)"/>
    <path d="M798.87,3.13c-.47-.11-.87-.63-1.43,0a5.75,5.75,0,0,1-1.54.93L798,1.6Z" transform="translate(17.18 15.3)"/>
    <path d="M765.18,3.6l3.94-2A5.59,5.59,0,0,1,765.18,3.6Z" transform="translate(17.18 15.3)"/>
    <path d="M806.07,1.6c-.51,1-.22,2.56-2,2.47Z" transform="translate(17.18 15.3)"/>
    <path d="M809.42.9c-.92,1.28-2.32.43-3.45.78Z" transform="translate(17.18 15.3)"/>
    <path d="M814.46,459.07c-1.12.45-.81,1.44-.82,2.27-.08,4.38-.12,8.77-.17,13.16a1.9,1.9,0,0,1-.42,1.39l.42-43.74h.32v24.48h.92C814.63,457.45,813.41,458.14,814.46,459.07Z"
          transform="translate(17.18 15.3)"/>
    <path d="M811.84,589.19c0-6.39,0-12.78,0-19.17,0-6.07.12-12.15.18-18.22q.16-15,.32-30,.24-20.87.49-41.72a.57.57,0,0,1,.24-.46C813.19,516.2,812.25,552.75,811.84,589.19Z"
          transform="translate(17.18 15.3)"/>
    <path d="M814,398.42c.08,2.95.23,5.89.23,8.84,0,6.48-.07,13-.11,19.44a3,3,0,0,1-.43,1.87c0-2.69,0-5.38,0-8.07q0-9.84.09-19.68c0-.78.18-1.56.27-2.35Z"
          transform="translate(17.18 15.3)"/>
    <path d="M811.85,592.62a1.12,1.12,0,0,1,.12.43c0,.09-.16.17-.25.25,0-.13-.13-.27-.11-.39S811.76,592.72,811.85,592.62Z"
          transform="translate(17.18 15.3)"/>
</svg>